<svg id="Layer_1" data-name="Layer 1" xmlns="http://www.w3.org/2000/svg" xmlns:xlink="http://www.w3.org/1999/xlink" viewBox="0 0 619.4 710.86"><defs><style>.cls-1{fill:url(#radial-gradient);}.cls-2{fill:#ff0;}.cls-3{fill:#fff;}.cls-4{fill:aqua;}.cls-5{isolation:isolate;}.cls-6{fill:url(#linear-gradient);}.cls-7{fill:url(#linear-gradient-2);}.cls-8{fill:url(#linear-gradient-3);}.cls-9{fill:none;stroke:#fff;stroke-linecap:round;stroke-miterlimit:10;stroke-width:0.25px;}</style><radialGradient id="radial-gradient" cx="729.46" cy="820.58" r="130.07" gradientTransform="translate(17.01 -15.05) rotate(1.24)" gradientUnits="userSpaceOnUse"><stop offset="0" stop-color="#fff"/><stop offset="0.74" stop-color="#8a8c9c"/><stop offset="0.78" stop-color="#9092a1"/><stop offset="0.83" stop-color="#a1a3b0"/><stop offset="0.89" stop-color="#bdbec7"/><stop offset="0.96" stop-color="#e4e5e8"/><stop offset="1" stop-color="#fff"/></radialGradient><linearGradient id="linear-gradient" x1="135.48" y1="233.42" x2="313.53" y2="411.47" gradientUnits="userSpaceOnUse"><stop offset="0" stop-color="#56c8da"/><stop offset="1" stop-color="#004db0"/></linearGradient><linearGradient id="linear-gradient-2" x1="284.63" y1="130.29" x2="593.9" y2="439.55" gradientUnits="userSpaceOnUse"><stop offset="0" stop-color="#3189b1"/><stop offset="1" stop-color="#002078"/></linearGradient><linearGradient id="linear-gradient-3" x1="269.45" y1="402.36" x2="451.07" y2="583.98" gradientUnits="userSpaceOnUse"><stop offset="0" stop-color="#3190be"/><stop offset="1" stop-color="#001f67"/></linearGradient></defs><circle class="cls-1" cx="702.16" cy="776.41" r="79.21" transform="translate(-246.98 -169.15) rotate(-1.24)"/><path class="cls-2" d="M451.36,186.13a1.56,1.56,0,0,1-3.11,0,1.56,1.56,0,1,1,3.11,0Z" transform="translate(-230.3 -184.57)"/><path class="cls-3" d="M400.05,272.88a1.24,1.24,0,1,1-1.24-1.24A1.24,1.24,0,0,1,400.05,272.88Z" transform="translate(-230.3 -184.57)"/><path class="cls-3" d="M268.83,347.36a1.4,1.4,0,1,1-1.4-1.4A1.4,1.4,0,0,1,268.83,347.36Z" transform="translate(-230.3 -184.57)"/><path class="cls-4" d="M362.74,362.91a3.27,3.27,0,1,1-3.27-3.27A3.26,3.26,0,0,1,362.74,362.91Z" transform="translate(-230.3 -184.57)"/><path class="cls-3" d="M664.68,241a1.4,1.4,0,1,1-1.4-1.4A1.4,1.4,0,0,1,664.68,241Z" transform="translate(-230.3 -184.57)"/><path class="cls-3" d="M743.66,267.91a3.73,3.73,0,1,1-3.73-3.73A3.73,3.73,0,0,1,743.66,267.91Z" transform="translate(-230.3 -184.57)"/><path class="cls-3" d="M746.77,358.24a2,2,0,1,1-2-2A2,2,0,0,1,746.77,358.24Z" transform="translate(-230.3 -184.57)"/><path class="cls-3" d="M837,345.81a.47.47,0,1,1-.46-.47A.47.47,0,0,1,837,345.81Z" transform="translate(-230.3 -184.57)"/><circle class="cls-3" cx="588.31" cy="275.51" r="2.49"/><path class="cls-3" d="M811.77,518.85a2.8,2.8,0,1,1-2.8-2.79A2.8,2.8,0,0,1,811.77,518.85Z" transform="translate(-230.3 -184.57)"/><circle class="cls-4" cx="846.9" cy="519.48" r="2.8" transform="translate(-289.5 -72.62) rotate(-7.31)"/><path class="cls-2" d="M793.11,730.46a1.71,1.71,0,1,0,1.71-1.71A1.7,1.7,0,0,0,793.11,730.46Z" transform="translate(-230.3 -184.57)"/><path class="cls-3" d="M831,852.2a3.11,3.11,0,1,1-3.11-3.11A3.11,3.11,0,0,1,831,852.2Z" transform="translate(-230.3 -184.57)"/><circle class="cls-3" cx="414.56" cy="668.41" r="1.24"/><path class="cls-3" d="M477.17,825a1.71,1.71,0,1,1-1.71-1.71A1.71,1.71,0,0,1,477.17,825Z" transform="translate(-230.3 -184.57)"/><path class="cls-3" d="M383.88,774.62a1.4,1.4,0,1,1-1.4-1.4A1.4,1.4,0,0,1,383.88,774.62Z" transform="translate(-230.3 -184.57)"/><path class="cls-3" d="M353.72,894.65a.78.78,0,0,1-.78.78.78.78,0,0,1,0-1.56A.78.78,0,0,1,353.72,894.65Z" transform="translate(-230.3 -184.57)"/><path class="cls-3" d="M294.75,607.51a2.48,2.48,0,1,1-2.48-2.48A2.48,2.48,0,0,1,294.75,607.51Z" transform="translate(-230.3 -184.57)"/><path class="cls-3" d="M236.91,675a3.31,3.31,0,1,1-3.31-3.3A3.31,3.31,0,0,1,236.91,675Z" transform="translate(-230.3 -184.57)"/><path class="cls-3" d="M289.58,762.21H284.3v-5.28a1.81,1.81,0,0,0-3.62,0v5.28h-5.29a1.81,1.81,0,1,0,0,3.62h5.29v5.29a1.81,1.81,0,1,0,3.62,0v-5.29h5.28a1.81,1.81,0,1,0,0-3.62Z" transform="translate(-230.3 -184.57)"/><path class="cls-3" d="M793,194.16h-3.24v-3.24a1.11,1.11,0,1,0-2.22,0v3.24h-3.24a1.11,1.11,0,0,0,0,2.22h3.24v3.24a1.11,1.11,0,0,0,2.22,0v-3.24H793a1.11,1.11,0,0,0,0-2.22Z" transform="translate(-230.3 -184.57)"/><g class="cls-5"><polygon class="cls-6" points="304.31 110.6 388.75 338.48 141.12 530.69 68.35 300.55 304.31 110.6"/><polygon class="cls-7" points="304.31 110.6 492.24 233.82 580.55 456.77 388.75 338.48 304.31 110.6"/><polygon class="cls-8" points="388.75 338.48 580.55 456.77 338.95 638.14 141.12 530.69 388.75 338.48"/></g><path class="cls-9" d="M838.49,274.13a12.68,12.68,0,1,1-12.67-12.67A12.67,12.67,0,0,1,838.49,274.13Z" transform="translate(-230.3 -184.57)"/></svg>