<svg id="Layer_1" data-name="Layer 1" xmlns="http://www.w3.org/2000/svg" xmlns:xlink="http://www.w3.org/1999/xlink" viewBox="0 0 576.58 667.51"><defs><style>.cls-1{fill:url(#radial-gradient);}.cls-2{fill:aqua;}.cls-3{fill:#fff;}.cls-4{fill:#ff0;}.cls-5{fill:#f7931e;}.cls-6{isolation:isolate;}.cls-7{fill:url(#linear-gradient);}.cls-8{fill:url(#linear-gradient-2);}.cls-9{fill:url(#linear-gradient-3);}.cls-10{fill:none;stroke:#fff;stroke-linecap:round;stroke-miterlimit:10;stroke-width:0.25px;}</style><radialGradient id="radial-gradient" cx="360.07" cy="774.2" r="119.2" gradientTransform="translate(639.32 -58.61) rotate(45)" gradientUnits="userSpaceOnUse"><stop offset="0" stop-color="#feed58"/><stop offset="0.12" stop-color="#f0cb41"/><stop offset="0.27" stop-color="#e2a92a"/><stop offset="0.39" stop-color="#d9951c"/><stop offset="0.47" stop-color="#d68d17"/><stop offset="0.57" stop-color="#d8921a"/><stop offset="0.68" stop-color="#dea024"/><stop offset="0.8" stop-color="#e8b734"/><stop offset="0.93" stop-color="#f5d84a"/><stop offset="1" stop-color="#feed58"/></radialGradient><linearGradient id="linear-gradient" x1="285.68" y1="482.47" x2="403.07" y2="164.55" gradientUnits="userSpaceOnUse"><stop offset="0" stop-color="#f0f"/><stop offset="0.06" stop-color="#f501f9"/><stop offset="0.71" stop-color="#7e0cb6"/><stop offset="1" stop-color="#4f109b"/></linearGradient><linearGradient id="linear-gradient-2" x1="185.34" y1="627.19" x2="571.74" y2="512.25" gradientUnits="userSpaceOnUse"><stop offset="0" stop-color="#ff54ff"/><stop offset="0.06" stop-color="#f550f9"/><stop offset="0.71" stop-color="#7e22b6"/><stop offset="1" stop-color="#4f109b"/></linearGradient><linearGradient id="linear-gradient-3" x1="153.27" y1="643.77" x2="229.08" y2="219.47" xlink:href="#linear-gradient"/></defs><circle class="cls-1" cx="390.41" cy="742.42" r="75.64" transform="translate(-662.33 287.27) rotate(-45)"/><path class="cls-2" d="M761.5,493.38h-2.17v-2.17a1.36,1.36,0,1,0-2.71,0v2.17h-2.17a1.36,1.36,0,1,0,0,2.71h2.17v2.16a1.36,1.36,0,1,0,2.71,0v-2.16h2.17a1.36,1.36,0,0,0,0-2.71Z" transform="translate(-251.71 -206.25)"/><path class="cls-3" d="M828.29,614.63a1.6,1.6,0,1,1-1.6-1.61A1.6,1.6,0,0,1,828.29,614.63Z" transform="translate(-251.71 -206.25)"/><path class="cls-3" d="M732.4,252.66a1.61,1.61,0,1,1-1.6-1.6A1.6,1.6,0,0,1,732.4,252.66Z" transform="translate(-251.71 -206.25)"/><path class="cls-4" d="M402.22,274.45a1.6,1.6,0,1,1-1.6-1.6A1.6,1.6,0,0,1,402.22,274.45Z" transform="translate(-251.71 -206.25)"/><path class="cls-3" d="M346.71,403.7a1.6,1.6,0,1,1-1.6-1.6A1.6,1.6,0,0,1,346.71,403.7Z" transform="translate(-251.71 -206.25)"/><path class="cls-3" d="M739.62,339.05h-2.17v-2.16a1.36,1.36,0,1,0-2.71,0v2.16h-2.17a1.36,1.36,0,0,0,0,2.71h2.17v2.17a1.36,1.36,0,1,0,2.71,0v-2.17h2.17a1.36,1.36,0,0,0,0-2.71Z" transform="translate(-251.71 -206.25)"/><path class="cls-3" d="M309.13,677.52H307v-2.17a1.36,1.36,0,0,0-2.71,0v2.17h-2.17a1.36,1.36,0,0,0,0,2.71h2.17v2.17a1.36,1.36,0,0,0,2.71,0v-2.17h2.17a1.36,1.36,0,1,0,0-2.71Z" transform="translate(-251.71 -206.25)"/><path class="cls-3" d="M260.11,276.45h-2.17v-2.17a1.36,1.36,0,0,0-2.71,0v2.17h-2.17a1.36,1.36,0,0,0,0,2.71h2.17v2.17a1.36,1.36,0,1,0,2.71,0v-2.17h2.17a1.36,1.36,0,0,0,0-2.71Z" transform="translate(-251.71 -206.25)"/><path class="cls-3" d="M778,411.11a1.6,1.6,0,1,1-1.6-1.6A1.6,1.6,0,0,1,778,411.11Z" transform="translate(-251.71 -206.25)"/><path class="cls-5" d="M256.22,564.26a1.6,1.6,0,1,1-1.6-1.61A1.6,1.6,0,0,1,256.22,564.26Z" transform="translate(-251.71 -206.25)"/><path class="cls-5" d="M301,742.62a1.61,1.61,0,1,1-1.6-1.6A1.6,1.6,0,0,1,301,742.62Z" transform="translate(-251.71 -206.25)"/><path class="cls-3" d="M596.49,292.11a1.6,1.6,0,1,1-1.6-1.6A1.6,1.6,0,0,1,596.49,292.11Z" transform="translate(-251.71 -206.25)"/><g class="cls-6"><polygon class="cls-7" points="408.16 137.99 497.36 528.76 255.26 565.01 175.22 162.06 408.16 137.99"/><polygon class="cls-8" points="497.36 528.76 419.38 598.94 201.69 633 255.26 565.01 497.36 528.76"/><polygon class="cls-9" points="255.26 565.01 201.69 633 132.28 269.15 175.22 162.06 255.26 565.01"/></g><line class="cls-10" x1="198.63" y1="667.38" x2="38.17" y2="667.38"/><line class="cls-10" x1="560" y1="136.57" x2="560" y2="0.13"/><line class="cls-10" x1="560" y1="169.99" x2="560" y2="150.63"/></svg>