<svg xmlns="http://www.w3.org/2000/svg" xmlns:xlink="http://www.w3.org/1999/xlink" x="0" y="0" viewBox="0 0 222.073 261.161" style="enable-background:new 0 0 222.073 261.161;" xml:space="preserve">
	<g>
		<g>
			<g>
				<path class="st0" d="M49.602,31.13c2.643-3.854,5.669-6.951,8.896-9.543s6.725-4.637,9.931-6.786
					c3.206-2.149,6.266-4.02,9.218-5.666c2.952-1.646,5.798-3.065,8.592-4.266c2.794-1.201,5.537-2.183,8.295-2.94
					c2.758-0.757,5.895-1.381,9.042-1.637c3.147-0.255,6.059-0.129,8.83,0.301c2.77,0.43,5.396,1.163,7.927,2.119
					c2.531,0.956,4.839,2.316,6.599,4.353c1.76,2.037,3.157,4.56,4.457,7.268c1.3,2.708,2.503,5.604,3.831,8.432
					c1.328,2.829,2.782,5.591,4.558,8.07c1.776,2.48,3.908,4.73,6.43,6.348c2.521,1.619,5.416,2.653,8.636,3.267
					c3.22,0.613,6.764,0.805,10.565,0.792c3.802-0.012,7.862-0.231,12.098-0.38c4.236-0.15,8.19,0.15,11.918,0.238
					c3.729,0.088,7.232,0.174,10.422,0.603c3.19,0.429,6.063,1.204,8.532,2.764"></path>
				<path class="st0" d="M48.094,33.486c2.573-4.04,5.55-7.292,8.77-9.974c3.22-2.682,6.788-4.635,10.112-6.76
					c3.324-2.125,6.496-3.944,9.552-5.531c3.056-1.586,5.997-2.938,8.879-4.076c2.881-1.137,5.703-2.06,8.531-2.767
					c2.828-0.707,6.026-1.287,9.225-1.514c3.199-0.228,6.155-0.091,8.968,0.341c2.813,0.431,5.478,1.155,8.051,2.097
					c2.572,0.942,4.891,2.348,6.684,4.389c1.793,2.041,3.242,4.535,4.616,7.182c1.374,2.647,2.671,5.447,4.115,8.15
					c1.444,2.703,3.035,5.309,4.964,7.609c1.93,2.3,4.235,4.344,6.929,5.76c2.695,1.416,5.765,2.252,9.149,2.688
					c3.385,0.436,7.082,0.474,11.014,0.354c3.932-0.12,8.098-0.399,12.397-0.533c4.299-0.134,7.961,0.31,11.559,0.457
					c3.598,0.146,6.944,0.331,9.976,0.881c3.033,0.55,5.748,1.471,8.097,3.167"></path>
				<path class="st0" d="M46.69,35.992c2.495-4.234,5.409-7.658,8.604-10.454c3.195-2.796,6.668-4.972,10.196-6.852
					c3.529-1.88,6.735-3.852,9.892-5.381s6.191-2.812,9.158-3.882c2.966-1.071,5.865-1.927,8.762-2.578
					c2.897-0.65,6.154-1.175,9.403-1.365c3.249-0.19,6.249-0.033,9.103,0.406c2.854,0.44,5.56,1.163,8.174,2.095
					c2.614,0.932,4.952,2.368,6.788,4.4c1.836,2.031,3.348,4.483,4.805,7.054s2.86,5.263,4.429,7.827
					c1.569,2.565,3.306,5.003,5.396,7.114c2.09,2.112,4.572,3.944,7.442,5.156c2.87,1.212,6.115,1.849,9.66,2.115
					c3.546,0.266,7.392,0.16,11.442-0.051c4.05-0.211,8.638-0.862,12.595-0.557c3.957,0.304,7.692,0.451,11.148,0.675
					c3.456,0.224,6.637,0.523,9.511,1.205c2.874,0.682,5.438,1.751,7.685,3.579"></path>
				<path class="st0" d="M45.39,38.644c1.206-2.215,2.516-4.229,3.922-6.052c1.406-1.823,2.906-3.455,4.483-4.921
					c3.154-2.931,6.62-5.19,10.191-7.079c3.571-1.888,6.969-3.735,10.224-5.211c3.255-1.475,6.38-2.688,9.429-3.688
					c3.049-1,6.022-1.785,8.986-2.371c2.964-0.586,6.279-1.047,9.577-1.189c3.298-0.142,6.342,0.044,9.237,0.501
					c2.896,0.456,5.641,1.183,8.296,2.109c2.656,0.927,5.024,2.378,6.914,4.387s3.474,4.403,5.026,6.884
					c1.552,2.481,3.069,5.05,4.773,7.465c1.704,2.414,3.594,4.673,5.85,6.59c2.256,1.916,4.918,3.534,7.964,4.541
					c3.046,1.008,6.463,1.452,10.164,1.555c3.701,0.104,7.686-0.132,11.841-0.414c4.156-0.282,8.749-0.73,12.614-0.409
					c3.865,0.321,7.466,0.531,10.77,0.851c3.304,0.32,6.314,0.748,9.032,1.569c2.719,0.82,5.14,2.041,7.304,3.989"></path>
				<path class="st0" d="M44.194,41.438c1.164-2.313,2.432-4.425,3.799-6.341c1.367-1.916,2.833-3.635,4.383-5.178
					c3.099-3.084,6.539-5.452,10.131-7.378c3.592-1.926,7.161-3.662,10.511-5.087c3.35-1.425,6.563-2.569,9.691-3.496
					c3.129-0.927,6.174-1.635,9.203-2.149c3.029-0.514,6.4-0.903,9.746-0.988c3.346-0.085,6.432,0.14,9.369,0.622
					c2.937,0.481,5.721,1.219,8.418,2.145c2.697,0.926,5.106,2.376,7.059,4.348c1.953,1.972,3.622,4.294,5.278,6.671
					c1.656,2.377,3.299,4.81,5.146,7.063c1.846,2.253,3.897,4.325,6.324,6.04c2.427,1.715,5.27,3.116,8.49,3.923
					c3.22,0.806,6.806,1.062,10.656,1.015c3.85-0.047,7.962-0.397,12.208-0.727c4.246-0.33,8.771-0.552,12.53-0.193
					c3.758,0.359,7.212,0.652,10.356,1.083c3.144,0.432,5.981,0.999,8.549,1.962c2.568,0.964,4.859,2.331,6.963,4.388"></path>
				<path class="st0" d="M43.097,44.367c2.131-4.575,4.642-8.427,7.487-11.587c2.845-3.16,6.026-5.634,9.401-7.623
					c3.376-1.989,6.948-3.591,10.26-4.993c3.312-1.402,6.487-2.513,9.569-3.411c3.082-0.898,6.071-1.583,9.023-2.091
					c2.952-0.507,5.71-0.841,9.103-1.028c3.393-0.187,6.5-0.098,9.442,0.224c2.942,0.323,5.718,0.88,8.395,1.621
					c2.677,0.741,5.414,1.461,7.629,2.947c2.216,1.486,4.063,3.395,5.803,5.45c1.74,2.055,3.371,4.256,5.099,6.38
					c1.729,2.124,3.555,4.171,5.644,5.968c2.089,1.797,4.442,3.343,7.18,4.526c2.739,1.183,5.871,1.969,9.286,2.269
					c3.415,0.3,7.124,0.185,11.017-0.093c3.893-0.277,7.971-0.716,12.101-0.999c4.129-0.282,8.003,0.08,11.363,0.473
					c3.361,0.393,6.412,0.789,9.183,1.348c2.771,0.56,5.264,1.283,7.545,2.373c2.281,1.09,4.343,2.554,6.309,4.596"></path>
				<path class="st0" d="M42.094,47.419c1.028-2.373,2.144-4.575,3.353-6.597c1.208-2.021,2.509-3.862,3.894-5.529
					c2.77-3.333,5.891-5.955,9.243-8.04c3.352-2.085,6.994-3.666,10.391-5.04c3.397-1.374,6.652-2.429,9.807-3.26
					c3.155-0.83,6.212-1.437,9.225-1.864c3.013-0.428,5.827-0.684,9.266-0.789c3.439-0.105,6.587,0.05,9.569,0.423
					c2.982,0.373,5.794,0.965,8.509,1.726s5.487,1.49,7.763,2.948c2.276,1.458,4.204,3.302,6.043,5.263
					c1.839,1.961,3.587,4.038,5.45,6.014c1.862,1.977,3.837,3.852,6.085,5.464c2.248,1.612,4.769,2.958,7.676,3.944
					c2.906,0.986,6.204,1.579,9.77,1.713c3.566,0.134,7.41-0.121,11.41-0.489c4-0.368,8.156-0.848,12.316-1.094
					c4.16-0.246,7.78,0.365,11.007,0.839c3.227,0.474,6.119,0.983,8.731,1.672c2.612,0.688,4.948,1.555,7.106,2.777
					c2.158,1.222,4.133,2.807,6.092,4.918"></path>
				<path class="st0" d="M41.179,50.584c0.993-2.452,2.069-4.743,3.235-6.855c1.167-2.112,2.424-4.046,3.768-5.801
					c2.689-3.511,5.739-6.297,9.051-8.498c3.313-2.201,6.978-3.809,10.458-5.163c3.479-1.354,6.81-2.358,10.036-3.123
					c3.226-0.765,6.346-1.29,9.418-1.635c3.072-0.344,5.941-0.516,9.424-0.531c3.484-0.015,6.671,0.215,9.691,0.647
					c3.02,0.431,5.869,1.065,8.622,1.853c2.754,0.788,5.558,1.535,7.902,2.953c2.344,1.418,4.363,3.186,6.31,5.041
					c1.947,1.855,3.822,3.797,5.825,5.616c2.003,1.819,4.133,3.515,6.543,4.937c2.41,1.422,5.102,2.567,8.174,3.359
					c3.072,0.792,6.529,1.201,10.237,1.181c3.708-0.02,7.677-0.4,11.77-0.837c4.092-0.438,8.307-0.934,12.474-1.112
					c4.168-0.177,7.499,0.673,10.586,1.24c3.087,0.567,5.816,1.199,8.272,2.02s4.639,1.832,6.688,3.179
					c2.049,1.347,3.956,3.04,5.939,5.196"></path>
				<path class="st0" d="M40.344,53.846c0.962-2.523,2-4.896,3.126-7.094c1.126-2.199,2.34-4.225,3.641-6.071
					c2.603-3.692,5.572-6.654,8.832-8.987c3.26-2.333,6.9-4.021,10.458-5.365c3.558-1.345,6.962-2.302,10.255-3.003
					c3.293-0.701,6.476-1.144,9.604-1.402c3.128-0.257,6.049-0.342,9.575-0.259c3.526,0.083,6.753,0.397,9.81,0.894
					c3.057,0.497,5.942,1.18,8.734,2.001c2.791,0.82,5.624,1.597,8.044,2.965c2.421,1.367,4.537,3.047,6.6,4.786
					c2.063,1.738,4.072,3.534,6.222,5.188c2.15,1.653,4.44,3.164,7.015,4.392c2.575,1.229,5.437,2.173,8.67,2.777
					c3.233,0.604,6.843,0.839,10.683,0.679c3.84-0.16,7.921-0.645,12.089-1.13c4.167-0.485,8.421-0.969,12.571-1.044
					c4.15-0.075,7.176,0.991,10.119,1.66c2.944,0.669,5.51,1.429,7.813,2.384c2.303,0.955,4.345,2.105,6.301,3.566
					c1.956,1.462,3.819,3.245,5.857,5.42"></path>
				<path class="st0" d="M39.579,57.189c0.892-2.46,1.844-4.798,2.872-6.985c1.028-2.187,2.13-4.225,3.314-6.1
					c2.367-3.75,5.057-6.847,8.044-9.329c2.987-2.481,6.264-4.355,9.733-5.766c3.469-1.411,6.855-2.394,10.096-3.111
					c3.241-0.717,6.368-1.16,9.428-1.414c3.06-0.253,6.054-0.315,9.036-0.237c2.982,0.078,6.667,0.326,9.736,0.759
					c3.069,0.433,5.949,1.031,8.722,1.755c2.772,0.724,5.436,1.576,8.047,2.502c2.611,0.925,4.988,2.202,7.156,3.657
					c2.168,1.455,4.204,3.037,6.293,4.558c2.09,1.521,4.233,2.98,6.572,4.238c2.339,1.258,4.875,2.313,7.704,3.086
					c2.83,0.773,5.952,1.26,9.408,1.47c3.456,0.209,7.161-0.012,11.037-0.41c3.876-0.398,7.909-0.973,11.941-1.401
					c4.032-0.428,8.312-0.801,11.612-0.175s6.208,1.281,8.772,2.052c2.563,0.771,4.784,1.658,6.798,2.728
					c2.013,1.07,3.82,2.326,5.611,3.839c1.791,1.513,3.558,3.293,5.584,5.355"></path>
				<path class="st0" d="M38.873,60.593c0.875-2.505,1.799-4.904,2.794-7.162c0.994-2.258,2.058-4.375,3.201-6.333
					c2.285-3.917,4.885-7.193,7.798-9.829s6.133-4.642,9.579-6.133c3.445-1.492,6.96-2.423,10.261-3.098
					c3.301-0.673,6.483-1.047,9.595-1.22c3.111-0.173,6.152-0.142,9.177,0.03c3.025,0.172,6.742,0.533,9.846,1.052
					c3.104,0.519,6.017,1.19,8.824,1.969c2.807,0.78,5.505,1.67,8.155,2.615c2.649,0.946,5.116,2.143,7.39,3.498
					c2.274,1.355,4.434,2.807,6.661,4.177c2.226,1.371,4.519,2.66,7.012,3.739c2.494,1.079,5.189,1.947,8.173,2.54
					c2.984,0.592,6.256,0.907,9.841,0.972c3.585,0.066,7.403-0.274,11.365-0.746c3.962-0.472,8.052-1.077,12.097-1.466
					c4.046-0.389,8.166-0.452,11.366,0.238c3.2,0.69,5.978,1.437,8.404,2.317c2.426,0.88,4.502,1.89,6.392,3.078
					c1.89,1.188,3.595,2.555,5.341,4.143c1.746,1.588,3.527,3.407,5.671,5.428"></path>
				<path class="st0" d="M38.215,64.039c0.865-2.537,1.768-4.987,2.734-7.306c0.966-2.32,1.994-4.511,3.097-6.548
					c2.206-4.074,4.714-7.529,7.547-10.326c2.834-2.798,5.986-4.946,9.395-6.536c3.409-1.589,7.024-2.505,10.381-3.142
					c3.358-0.637,6.593-0.945,9.753-1.038c3.16-0.093,6.245,0.032,9.311,0.301s6.814,0.747,9.951,1.359
					c3.137,0.612,6.083,1.361,8.923,2.202c2.84,0.841,5.574,1.774,8.261,2.742c2.688,0.968,5.246,2.085,7.631,3.334
					c2.384,1.249,4.674,2.564,7.04,3.781c2.367,1.216,4.811,2.332,7.459,3.232c2.648,0.9,5.501,1.584,8.635,2.003
					c3.134,0.419,6.548,0.57,10.251,0.508c3.703-0.063,7.62-0.501,11.651-1.024c4.03-0.523,8.157-1.132,12.193-1.451
					c4.035-0.319,7.978-0.082,11.079,0.674c3.1,0.757,5.753,1.598,8.048,2.583c2.295,0.986,4.236,2.113,6.016,3.407
					c1.78,1.295,3.4,2.758,5.125,4.401c1.725,1.643,3.53,3.544,5.876,5.354"></path>
				<path class="st0" d="M37.59,67.502c0.864-2.554,1.752-5.041,2.695-7.412c0.942-2.371,1.938-4.627,3.005-6.737
					c2.133-4.22,4.548-7.85,7.298-10.812c2.75-2.962,5.827-5.264,9.188-6.964c3.362-1.7,7.046-2.64,10.457-3.247
					c3.411-0.607,6.696-0.854,9.902-0.869c3.206-0.015,6.333,0.204,9.438,0.573c3.105,0.368,6.882,0.969,10.051,1.678
					c3.169,0.71,6.146,1.542,9.02,2.448c2.873,0.906,5.641,1.886,8.367,2.881c2.725,0.995,5.374,2.033,7.872,3.173
					c2.498,1.14,4.919,2.315,7.428,3.374c2.509,1.059,5.105,2.001,7.906,2.724c2.801,0.724,5.808,1.227,9.086,1.481
					c3.278,0.255,6.823,0.257,10.631,0.085c3.807-0.172,7.808-0.688,11.888-1.238c4.08-0.55,8.223-1.134,12.225-1.35
					c4.001-0.216,7.762,0.296,10.768,1.119c3.005,0.823,5.539,1.754,7.713,2.838c2.174,1.084,3.992,2.319,5.679,3.706
					c1.687,1.388,3.243,2.929,4.972,4.602c1.729,1.673,3.719,3.326,6.162,5.029"></path>
				<path class="st0" d="M36.985,70.961c0.872-2.555,1.755-5.065,2.681-7.476c0.926-2.41,1.895-4.722,2.929-6.897
					c2.067-4.35,4.392-8.149,7.056-11.274c2.664-3.126,5.658-5.587,8.963-7.409c3.305-1.821,7.028-2.825,10.489-3.412
					c3.461-0.587,6.793-0.778,10.042-0.718c3.249,0.06,6.416,0.373,9.558,0.841c3.142,0.468,6.946,1.193,10.146,2.004
					c3.2,0.811,6.208,1.733,9.113,2.708c2.906,0.976,5.708,2.008,8.47,3.032c2.763,1.024,5.498,1.991,8.11,3.019
					c2.612,1.029,5.166,2.062,7.817,2.964c2.651,0.902,5.398,1.671,8.35,2.222c2.951,0.551,6.108,0.882,9.52,0.983
					c3.413,0.101,7.079-0.03,10.975-0.291c3.896-0.261,7.963-0.831,12.073-1.38c4.109-0.55,8.246-1.077,12.187-1.157
					c3.941-0.08,7.535,0.667,10.454,1.55c2.919,0.883,5.343,1.897,7.41,3.068c2.066,1.172,3.778,2.501,5.391,3.963
					c1.613,1.463,3.146,3.024,4.932,4.585c1.786,1.561,3.826,3.131,6.374,4.727"></path>
				<path class="st0" d="M36.384,74.389c0.891-2.537,1.776-5.054,2.693-7.491c0.917-2.437,1.866-4.792,2.871-7.023
					c2.011-4.463,4.25-8.419,6.828-11.704c2.578-3.286,5.486-5.91,8.727-7.861c3.241-1.951,6.971-3.056,10.479-3.632
					c3.508-0.576,6.884-0.719,10.173-0.589c3.29,0.13,6.494,0.536,9.671,1.105s7.006,1.42,10.235,2.335
					c3.229,0.915,6.266,1.93,9.204,2.978c2.937,1.049,5.773,2.136,8.572,3.191c2.8,1.055,5.615,1.961,8.341,2.881
					c2.725,0.92,5.412,1.813,8.203,2.56c2.791,0.747,5.687,1.348,8.783,1.734c3.096,0.386,6.394,0.554,9.932,0.517
					c3.537-0.038,7.312-0.285,11.28-0.612c3.968-0.327,8.081-0.924,12.198-1.443c4.117-0.519,8.222-0.96,12.076-0.866
					c3.854,0.093,7.314,1.012,10.157,1.948c2.843,0.936,5.16,2.046,7.114,3.32c1.954,1.273,3.579,2.656,5.159,4.086
					c1.581,1.43,3.123,2.906,4.945,4.383c1.822,1.476,3.933,2.947,6.593,4.435"></path>
				<path class="st0" d="M35.773,77.76c0.879-2.386,1.738-4.78,2.611-7.121c0.874-2.341,1.762-4.631,2.693-6.822
					c1.861-4.384,3.889-8.369,6.215-11.762c2.326-3.394,4.942-6.202,7.879-8.373c2.937-2.171,6.318-3.707,9.756-4.431
					c3.439-0.724,6.747-0.979,9.964-0.931c3.217,0.048,6.343,0.4,9.426,0.938c3.083,0.538,6.543,1.317,9.781,2.228
					c3.238,0.911,6.268,1.93,9.181,2.983c2.913,1.054,5.709,2.146,8.453,3.217c2.743,1.071,5.409,2.184,8.165,2.987
					c2.757,0.803,5.43,1.602,8.15,2.3c2.72,0.698,5.486,1.294,8.393,1.718c2.908,0.424,5.957,0.674,9.201,0.735
					c3.244,0.06,6.686-0.072,10.31-0.329c3.624-0.257,7.441-0.585,11.334-1.038c3.893-0.453,7.868-1.019,11.736-1.348
					c3.868-0.329,7.628-0.42,11.045,0.17c3.417,0.589,6.352,1.607,8.794,2.641c2.442,1.034,4.431,2.188,6.165,3.408
					c1.734,1.22,3.216,2.508,4.709,3.818c1.493,1.31,3,2.641,4.808,3.962c1.808,1.322,3.922,2.628,6.572,3.949"></path>
				<path class="st0" d="M35.097,80.991c0.973-2.25,1.839-4.639,2.722-6.974c0.884-2.334,1.769-4.637,2.687-6.857
					c1.836-4.44,3.8-8.542,6.051-12.069c2.252-3.528,4.783-6.488,7.648-8.793c2.865-2.305,6.139-4.036,9.618-4.788
					c3.478-0.752,6.824-0.992,10.075-0.901c3.252,0.091,6.41,0.515,9.524,1.138c3.114,0.624,6.597,1.511,9.86,2.529
					c3.263,1.017,6.318,2.138,9.258,3.278c2.941,1.141,5.765,2.305,8.54,3.427c2.775,1.122,5.443,2.315,8.28,3.058
					c2.836,0.742,5.615,1.442,8.45,2.022c2.835,0.58,5.728,1.038,8.763,1.321c3.034,0.284,6.211,0.392,9.569,0.327
					c3.358-0.066,6.903-0.309,10.602-0.639c3.699-0.33,7.559-0.688,11.464-1.124c3.904-0.436,7.86-0.941,11.664-1.145
					c3.804-0.203,7.418,0.082,10.752,0.697c3.334,0.615,6.209,1.739,8.585,2.789c2.376,1.05,4.305,2.186,5.994,3.367
					c1.689,1.181,3.141,2.406,4.627,3.641c1.486,1.236,3.011,2.479,4.866,3.707s4.048,2.437,6.813,3.659"></path>
				<path class="st0" d="M34.303,83.998c1.047-2.142,2.037-4.387,2.941-6.656c0.912-2.289,1.794-4.611,2.707-6.847
					c1.825-4.47,3.736-8.668,5.921-12.316c2.184-3.647,4.634-6.752,7.425-9.189c2.791-2.438,5.936-4.375,9.45-5.169
					c3.515-0.794,6.894-1.03,10.178-0.904c3.284,0.125,6.473,0.613,9.615,1.318c3.142,0.704,6.648,1.698,9.933,2.82
					c3.286,1.122,6.365,2.345,9.331,3.573c2.966,1.228,5.819,2.466,8.625,3.64c2.806,1.174,5.475,2.453,8.383,3.146
					c2.908,0.694,5.784,1.304,8.727,1.776c2.944,0.471,5.956,0.802,9.108,0.958c3.152,0.156,6.445,0.137,9.905-0.037
					c3.46-0.175,7.093-0.508,10.849-0.887c3.757-0.379,7.639-0.739,11.532-1.129c3.893-0.39,7.749-0.591,11.47-0.604
					c3.721-0.013,7.317,0.16,10.59,0.753c3.273,0.593,6.087,1.863,8.403,2.909c2.316,1.046,4.191,2.148,5.841,3.273
					c1.65,1.126,3.076,2.276,4.56,3.426c1.484,1.15,3.03,2.299,4.936,3.43c1.906,1.132,4.18,2.241,7.062,3.369"></path>
				<path class="st0" d="M33.428,86.837c1.123-2.03,2.163-4.163,3.148-6.353c0.985-2.19,1.906-4.45,2.822-6.686
					c1.831-4.472,3.702-8.743,5.828-12.494c2.125-3.751,4.498-6.988,7.217-9.553c2.719-2.564,5.713-4.706,9.261-5.557
					c3.548-0.851,6.959-1.095,10.272-0.944c3.314,0.15,6.53,0.695,9.698,1.475c3.168,0.78,6.693,1.875,10,3.1
					c3.307,1.225,6.409,2.548,9.401,3.864c2.991,1.316,5.871,2.627,8.707,3.854c2.836,1.227,5.507,2.588,8.477,3.248
					c2.969,0.659,5.933,1.192,8.975,1.569c3.042,0.377,6.164,0.594,9.423,0.639c3.259,0.045,6.656-0.086,10.203-0.349
					c3.547-0.264,7.251-0.665,11.045-1.067c3.794-0.402,7.683-0.738,11.497-0.904c3.814-0.165,7.627-0.35,11.316-0.343
					c3.689,0.007,7.204-0.111,10.478,0.816c3.274,0.927,5.973,1.929,8.235,2.954c2.262,1.025,4.089,2.075,5.704,3.132
					c1.615,1.056,3.021,2.12,4.507,3.176c1.486,1.056,3.055,2.103,5.014,3.134c1.959,1.031,4.315,2.041,7.312,3.079"></path>
				<path class="st0" d="M32.474,89.507c1.199-1.915,2.311-3.942,3.36-6.038c1.049-2.095,2.035-4.259,2.989-6.441
					c1.907-4.364,3.714-8.74,5.791-12.576c2.077-3.835,4.379-7.193,7.03-9.875c2.651-2.682,5.649-4.694,9.065-5.924
					c3.416-1.229,7.011-1.202,10.351-1.038c3.341,0.164,6.583,0.758,9.775,1.606c3.193,0.848,6.735,2.038,10.062,3.361
					c3.327,1.323,6.45,2.746,9.466,4.148c3.015,1.402,5.921,2.786,8.786,4.066c2.865,1.279,5.543,2.715,8.561,3.359
					c3.017,0.643,6.057,1.117,9.185,1.416s6.347,0.42,9.699,0.371c3.352-0.048,6.838-0.269,10.455-0.599
					c3.618-0.33,7.374-0.775,11.185-1.172c3.811-0.397,7.585-0.499,11.364-0.653c3.779-0.155,7.574-0.295,11.241-0.251
					c3.667,0.044,7.171-0.031,10.395,0.928c3.225,0.958,5.872,1.95,8.086,2.938c2.215,0.987,3.998,1.972,5.584,2.946
					c1.585,0.974,2.974,1.939,4.464,2.893c1.49,0.953,3.084,1.892,5.097,2.821c2.012,0.928,4.449,1.841,7.561,2.793"></path>
				<path class="st0" d="M31.442,92.009c2.551-3.597,4.729-7.679,6.739-11.89c2.01-4.21,3.803-8.614,5.844-12.512
					c2.041-3.898,4.28-7.359,6.868-10.147c2.588-2.788,5.523-4.909,8.896-6.217c3.374-1.308,7.024-1.385,10.389-1.22
					c3.365,0.165,6.63,0.798,9.845,1.706c3.215,0.908,6.773,2.186,10.118,3.602c3.345,1.417,6.489,2.935,9.527,4.421
					c3.038,1.486,5.97,2.942,8.863,4.272c2.893,1.33,5.589,2.824,8.638,3.473c3.049,0.649,6.15,1.084,9.35,1.325
					c3.2,0.241,6.501,0.286,9.929,0.166c3.429-0.12,6.986-0.407,10.656-0.778c3.67-0.371,7.462-0.852,11.218-1.209
					c3.756-0.357,7.493-0.508,11.25-0.623c3.757-0.116,7.546-0.189,11.202-0.092s7.157,0.094,10.34,1.065
					c3.183,0.971,5.784,1.937,7.957,2.872c2.173,0.934,3.919,1.84,5.478,2.72c1.559,0.881,2.935,1.738,4.43,2.581
					c1.496,0.842,3.116,1.67,5.182,2.493s4.581,1.639,7.803,2.511"></path>
				<path class="st0" d="M30.334,94.345c2.702-3.362,5.017-7.235,7.135-11.28c2.119-4.046,4.036-8.262,6.029-12.236
					c1.994-3.974,4.155-7.559,6.688-10.439c2.533-2.881,5.407-5.101,8.741-6.482c3.333-1.38,7.024-1.584,10.412-1.43
					c3.387,0.154,6.674,0.814,9.909,1.772c3.235,0.959,6.806,2.316,10.168,3.819c3.361,1.503,6.524,3.113,9.584,4.679
					c3.06,1.566,6.016,3.092,8.936,4.47c2.921,1.378,5.806,2.61,8.713,3.58c2.907,0.97,6.206,1.101,9.461,1.31
					c3.254,0.208,6.62,0.201,10.107,0.035c3.487-0.166,7.113-0.469,10.805-0.973c3.692-0.505,7.41-1.035,11.131-1.393
					c3.722-0.358,7.434-0.469,11.184-0.519c3.749-0.051,7.543-0.036,11.199,0.129c3.656,0.164,7.161,0.25,10.31,1.218
					c3.149,0.969,5.711,1.894,7.848,2.763c2.137,0.868,3.85,1.682,5.387,2.458c1.537,0.777,2.901,1.517,4.404,2.243
					c1.503,0.726,3.149,1.436,5.265,2.154c2.116,0.718,4.707,1.438,8.034,2.233"></path>
				<path class="st0" d="M29.156,96.522c2.727-2.992,5.089-6.469,7.241-10.155c2.152-3.686,4.088-7.577,6.041-11.331
					c1.953-3.753,3.92-7.368,6.146-10.46c2.227-3.093,4.862-5.437,7.861-7.099c3-1.662,6.561-2.371,9.864-2.489
					c3.303-0.118,6.505,0.315,9.645,1.094c3.141,0.778,6.273,1.894,9.629,3.314c3.355,1.419,6.498,3.012,9.523,4.598
					c3.025,1.586,5.93,3.17,8.783,4.64c2.853,1.47,5.654,2.83,8.456,3.974c2.802,1.144,5.65,1.94,8.687,2.361
					c3.037,0.421,6.182,0.598,9.437,0.596c3.255-0.003,6.654-0.262,10.098-0.748s6.924-1.065,10.436-1.552
					c3.512-0.487,7.055-0.881,10.609-1.042c3.554-0.162,7.122-0.095,10.726-0.007c3.605,0.088,7.213,0.266,10.627,0.565
					c3.414,0.299,6.678,0.894,9.427,1.772c2.749,0.877,4.984,1.679,6.868,2.409c1.884,0.731,3.416,1.393,4.833,2.016
					c1.417,0.623,2.72,1.207,4.194,1.782c1.473,0.575,3.12,1.14,5.231,1.726c2.11,0.586,4.688,1.189,7.964,1.881"></path>
				<path class="st0" d="M27.912,98.544c2.865-2.771,5.358-6.039,7.621-9.548c2.263-3.509,4.291-7.254,6.308-10.907
					c2.017-3.653,4.02-7.21,6.248-10.303c2.228-3.092,4.66-5.751,7.625-7.469c2.965-1.718,6.522-2.539,9.843-2.715
					c3.321-0.176,6.538,0.241,9.695,1.033c3.157,0.791,6.303,1.947,9.669,3.424c3.366,1.478,6.523,3.145,9.564,4.801
					c3.041,1.656,5.966,3.309,8.841,4.832c2.875,1.524,5.701,2.922,8.53,4.082c2.829,1.16,5.666,2.014,8.699,2.484
					c3.033,0.469,6.212,0.673,9.487,0.443c3.275-0.231,6.617-0.728,10.011-1.273c3.394-0.546,6.84-1.141,10.332-1.607
					c3.492-0.466,7.028-0.801,10.584-0.88c3.556-0.08,7.138,0.095,10.763,0.294c3.625,0.199,7.259,0.486,10.686,0.859
					c3.428,0.372,6.692,1.011,9.421,1.847c2.729,0.835,4.94,1.563,6.8,2.202c1.86,0.639,3.371,1.191,4.775,1.696
					c1.403,0.505,2.702,0.963,4.184,1.417c1.482,0.454,3.153,0.903,5.305,1.387c2.153,0.484,4.793,1.001,8.153,1.627"></path>
				<path class="st0" d="M26.608,100.419c2.998-2.553,5.62-5.613,7.996-8.941c2.376-3.328,4.5-6.917,6.587-10.455
					c2.088-3.538,4.136-7.023,6.376-10.093c2.241-3.071,4.674-5.726,7.546-7.589c2.872-1.863,6.413-2.787,9.749-3.037
					c3.336-0.249,6.568,0.137,9.739,0.928c3.171,0.791,6.33,1.974,9.705,3.499c3.375,1.525,6.545,3.256,9.601,4.975
					c3.057,1.72,5.999,3.433,8.895,5.005c2.896,1.572,5.746,3.005,8.602,4.177c2.856,1.173,5.689,2.121,8.684,2.48
					c2.995,0.359,6.116,0.24,9.321-0.099c3.205-0.34,6.495-0.9,9.851-1.467c3.357-0.567,6.783-1.141,10.267-1.553
					c3.485-0.412,7.028-0.657,10.599-0.629c3.571,0.028,7.178,0.333,10.835,0.659c3.657,0.327,7.324,0.737,10.775,1.192
					c3.451,0.455,6.722,1.124,9.438,1.908c2.716,0.783,4.908,1.43,6.751,1.97c1.842,0.54,3.335,0.973,4.727,1.354
					c1.392,0.38,2.685,0.708,4.175,1.038c1.49,0.329,3.18,0.659,5.369,1.041c2.19,0.382,4.884,0.813,8.319,1.379"></path>
				<path class="st0" d="M25.25,102.154c3.126-2.341,5.873-5.194,8.362-8.336c2.488-3.142,4.711-6.569,6.874-9.981
					c2.164-3.412,4.265-6.807,6.528-9.838c2.263-3.03,4.689-5.694,7.516-7.624c2.827-1.93,6.332-2.934,9.722-3.195
					c3.39-0.261,6.619,0.035,9.787,0.772c3.168,0.737,6.322,1.901,9.705,3.46c3.383,1.559,6.563,3.345,9.634,5.119
					c3.071,1.774,6.041,3.564,8.937,5.136c2.895,1.572,5.726,2.957,8.555,4.076c2.83,1.119,5.622,2.007,8.521,2.203
					c2.9,0.196,5.945-0.038,9.091-0.447c3.146-0.409,6.395-0.994,9.727-1.546c3.332-0.552,6.749-1.071,10.239-1.397
					c3.49-0.326,7.051-0.456,10.649-0.296c3.598,0.16,7.242,0.613,10.94,1.083c3.698,0.47,7.409,1.015,10.892,1.56
					c3.483,0.546,6.768,1.236,9.479,1.959c2.711,0.723,4.891,1.282,6.72,1.716c1.829,0.434,3.308,0.744,4.69,0.996
					c1.382,0.251,2.67,0.445,4.165,0.647c1.495,0.201,3.2,0.411,5.42,0.69c2.22,0.28,4.959,0.626,8.457,1.133"></path>
				<path class="st0" d="M23.846,103.76c3.247-2.136,6.116-4.785,8.715-7.741s4.922-6.214,7.166-9.49
					c2.244-3.276,4.405-6.568,6.7-9.541c2.295-2.973,4.724-5.624,7.52-7.598c2.795-1.974,6.206-3.133,9.663-3.377
					c3.457-0.243,6.723,0.046,9.908,0.762c3.185,0.716,6.336,1.841,9.695,3.351c3.359,1.509,6.52,3.275,9.562,5.015
					c3.041,1.741,5.96,3.457,8.814,4.985s5.643,2.87,8.434,3.949s5.558,1.955,8.371,2.024c2.813,0.068,5.791-0.243,8.888-0.686
					c3.098-0.443,6.316-1.017,9.634-1.522c3.318-0.504,6.738-0.938,10.244-1.151c3.506-0.213,7.096-0.201,10.732,0.112
					c3.636,0.313,7.327,0.931,11.075,1.558c3.749,0.627,7.512,1.317,11.036,1.961c3.524,0.644,6.83,1.347,9.544,2.006
					c2.714,0.658,4.888,1.124,6.709,1.447c1.82,0.323,3.288,0.506,4.662,0.626c1.374,0.119,2.656,0.175,4.153,0.247
					c1.497,0.072,3.212,0.158,5.455,0.335c2.242,0.177,5.016,0.439,8.565,0.89"></path>
				<path class="st0" d="M22.404,105.246c3.36-1.939,6.346-4.387,9.054-7.157c2.708-2.769,5.131-5.855,7.458-8.987
					c2.327-3.132,4.554-6.309,6.888-9.208c2.334-2.9,4.777-5.521,7.552-7.517c2.775-1.996,6.065-3.33,9.581-3.569
					c3.516-0.239,6.809,0.023,9.999,0.696c3.189,0.672,6.321,1.735,9.642,3.169c3.32,1.434,6.431,3.121,9.417,4.784
					c2.986,1.663,5.846,3.305,8.641,4.764c2.796,1.458,5.526,2.734,8.265,3.755c2.739,1.022,5.487,1.911,8.22,1.885
					c2.733-0.026,5.652-0.383,8.709-0.827c3.057-0.445,6.255-0.977,9.569-1.403c3.314-0.427,6.747-0.747,10.279-0.821
					c3.532-0.074,7.162,0.1,10.846,0.585c3.684,0.484,7.432,1.283,11.24,2.079c3.809,0.796,7.632,1.64,11.206,2.391
					c3.574,0.751,6.91,1.464,9.634,2.053c2.724,0.589,4.9,0.959,6.717,1.169c1.817,0.211,3.277,0.264,4.644,0.248
					c1.366-0.015,2.642-0.098,4.138-0.158c1.496-0.059,3.216-0.096,5.472-0.022c2.256,0.073,5.054,0.252,8.639,0.648"></path>
				<path class="st0" d="M20.931,106.622c3.465-1.751,6.562-4.004,9.376-6.589c2.814-2.584,5.337-5.495,7.749-8.477
					c2.412-2.982,4.709-6.033,7.089-8.846c2.38-2.814,4.845-5.387,7.611-7.386c2.766-2,5.916-3.51,9.486-3.754
					c3.57-0.245,6.881-0.024,10.064,0.585c3.182,0.609,6.282,1.585,9.547,2.914c3.264,1.329,6.306,2.906,9.22,4.464
					c2.914,1.558,5.697,3.099,8.418,4.462c2.721,1.364,5.379,2.553,8.053,3.501c2.674,0.948,5.402,1.86,8.06,1.766
					c2.659-0.094,5.526-0.465,8.551-0.883c3.025-0.417,6.21-0.88,9.529-1.203c3.319-0.323,6.773-0.505,10.341-0.42
					c3.567,0.085,7.247,0.442,10.987,1.113c3.741,0.671,7.555,1.663,11.431,2.639c3.876,0.975,7.768,1.982,11.4,2.846
					c3.632,0.864,7.008,1.591,9.751,2.11c2.743,0.518,4.927,0.791,6.746,0.887c1.819,0.097,3.274,0.019,4.635-0.132
					c1.361-0.151,2.628-0.375,4.12-0.566c1.491-0.192,3.209-0.352,5.471-0.383c2.261-0.031,5.071,0.066,8.677,0.406"></path>
				<path class="st0" d="M19.436,107.899c3.561-1.573,6.762-3.639,9.678-6.041c2.916-2.402,5.536-5.137,8.034-7.964
					c2.498-2.827,4.868-5.745,7.3-8.46c2.432-2.715,4.927-5.225,7.692-7.21c2.766-1.985,5.766-3.662,9.387-3.919
					c3.621-0.257,6.944-0.09,10.111,0.439c3.167,0.529,6.223,1.398,9.417,2.597c3.194,1.199,6.151,2.64,8.977,4.068
					c2.826,1.427,5.517,2.842,8.149,4.09c2.632,1.248,5.204,2.332,7.801,3.19c2.597,0.858,5.298,1.785,7.888,1.649
					c2.589-0.137,5.41-0.499,8.41-0.865c2.999-0.366,6.179-0.735,9.51-0.931c3.331-0.197,6.815-0.221,10.426,0.042
					c3.611,0.263,7.347,0.818,11.153,1.69c3.806,0.872,7.694,2.067,11.645,3.231c3.951,1.163,7.918,2.339,11.616,3.322
					c3.698,0.983,7.123,1.736,9.894,2.183c2.771,0.448,4.97,0.624,6.796,0.607c1.826-0.016,3.281-0.224,4.636-0.511
					c1.356-0.286,2.615-0.65,4.098-0.974c1.483-0.324,3.193-0.609,5.45-0.743c2.257-0.135,5.066-0.123,8.679,0.162"></path>
				<path class="st0" d="M17.926,109.089c3.648-1.406,6.947-3.291,9.96-5.515c3.012-2.224,5.729-4.784,8.312-7.453
					c2.584-2.669,5.029-5.448,7.517-8.054c2.488-2.607,5.019-5.041,7.793-6.996c2.774-1.955,5.619-3.779,9.289-4.052
					c3.67-0.272,7.001-0.167,10.146,0.27c3.144,0.437,6.148,1.183,9.26,2.232c3.112,1.048,5.972,2.332,8.697,3.606
					c2.725,1.275,5.311,2.541,7.841,3.654c2.531,1.113,5.004,2.075,7.513,2.83c2.509,0.755,5.172,1.676,7.695,1.516
					s5.303-0.492,8.282-0.787c2.979-0.294,6.159-0.549,9.508-0.602c3.349-0.052,6.87,0.098,10.531,0.555
					c3.661,0.457,7.461,1.222,11.339,2.305c3.878,1.083,7.848,2.49,11.881,3.847c4.033,1.358,8.082,2.709,11.852,3.818
					c3.771,1.108,7.258,1.902,10.065,2.281c2.807,0.38,5.029,0.462,6.868,0.335c1.839-0.128,3.296-0.463,4.648-0.883
					c1.352-0.42,2.602-0.923,4.073-1.379c1.471-0.456,3.166-0.864,5.41-1.104c2.243-0.24,5.039-0.313,8.643-0.085"></path>
				<path class="st0" d="M16.371,110.229c3.728-1.247,7.12-2.957,10.227-5.006c3.106-2.048,5.918-4.432,8.588-6.94
					c2.67-2.508,5.195-5.139,7.743-7.629c2.548-2.49,5.122-4.837,7.912-6.748c2.79-1.911,5.797-3.384,9.216-4.119
					c3.42-0.735,7.038-0.285,10.156,0.049c3.118,0.334,6.062,0.942,9.082,1.82c3.021,0.879,5.771,1.982,8.383,3.083
					c2.611,1.101,5.079,2.199,7.497,3.159c2.417,0.96,4.781,1.783,7.191,2.422c2.41,0.639,5.018,1.518,7.478,1.35
					c2.46-0.168,5.2-0.453,8.163-0.659c2.962-0.205,6.148-0.33,9.522-0.223c3.374,0.107,6.936,0.448,10.654,1.111
					c3.718,0.662,7.589,1.65,11.547,2.952c3.958,1.302,8.016,2.928,12.139,4.486c4.122,1.558,8.259,3.09,12.111,4.328
					c3.852,1.239,7.414,2.097,10.268,2.412c2.853,0.315,5.106,0.307,6.964,0.071c1.858-0.235,3.322-0.696,4.672-1.247
					c1.35-0.551,2.59-1.192,4.045-1.779c1.455-0.587,3.131-1.121,5.351-1.467c2.221-0.346,4.992-0.507,8.572-0.339"></path>
				<path class="st0" d="M14.712,111.384c3.806-1.094,7.29-2.63,10.492-4.502s6.112-4.075,8.874-6.415
					c2.762-2.34,5.371-4.816,7.987-7.179c2.616-2.363,5.24-4.611,8.054-6.466c2.814-1.854,5.819-3.314,9.201-4.093
					s7.031-0.473,10.121-0.255c3.089,0.217,5.967,0.669,8.886,1.356c2.919,0.687,5.549,1.585,8.035,2.489
					c2.486,0.904,4.823,1.81,7.114,2.596c2.291,0.786,4.533,1.452,6.834,1.959c2.301,0.507,4.658,0.856,7.21,1.088
					c2.552,0.233,5.118-0.345,8.068-0.448c2.95-0.103,6.146-0.081,9.55,0.201c3.404,0.283,7.016,0.827,10.797,1.708
					c3.782,0.881,7.732,2.101,11.778,3.632c4.046,1.532,8.202,3.383,12.421,5.146c4.219,1.764,8.455,3.48,12.397,4.853
					c3.942,1.374,7.595,2.324,10.506,2.577c2.912,0.254,5.206,0.158,7.09-0.183c1.885-0.341,3.361-0.925,4.713-1.608
					c1.352-0.683,2.582-1.462,4.019-2.182c1.438-0.72,3.087-1.382,5.278-1.838c2.19-0.456,4.927-0.708,8.469-0.606"></path>
				<path class="st0" d="M13.029,112.516c3.874-0.953,7.443-2.325,10.737-4.025c3.293-1.7,6.299-3.725,9.153-5.895
					c2.854-2.17,5.55-4.485,8.238-6.713c2.688-2.228,5.369-4.365,8.215-6.15c2.846-1.785,5.858-3.215,9.213-4.019
					c3.355-0.804,7.02-0.646,10.079-0.549c3.059,0.097,5.867,0.382,8.679,0.863c2.812,0.481,5.312,1.158,7.664,1.847
					c2.351,0.689,4.548,1.387,6.704,1.983c2.156,0.596,4.267,1.09,6.45,1.453c2.183,0.363,4.435,0.596,6.903,0.749
					c2.467,0.153,5.046-0.21,7.986-0.199c2.94,0.011,6.151,0.188,9.589,0.656c3.438,0.467,7.104,1.226,10.955,2.333
					c3.851,1.107,7.885,2.567,12.024,4.332c2.07,0.883,4.167,1.839,6.29,2.826c2.122,0.987,4.27,2.005,6.431,2.992
					c2.161,0.986,4.325,1.955,6.455,2.866c2.13,0.911,4.224,1.766,6.244,2.522c4.039,1.513,7.793,2.586,10.773,2.786
					c2.98,0.199,5.324,0.022,7.241-0.419c1.918-0.441,3.411-1.145,4.766-1.955c1.355-0.81,2.575-1.725,3.993-2.577
					c1.418-0.852,3.036-1.641,5.188-2.209c2.152-0.568,4.841-0.915,8.332-0.884"></path>
				<path class="st0" d="M11.345,113.636c3.931-0.828,7.577-2.047,10.955-3.582c3.378-1.536,6.476-3.386,9.42-5.387
					c2.944-2.001,5.728-4.151,8.492-6.237c2.763-2.085,5.507-4.103,8.392-5.805c2.885-1.702,5.912-3.088,9.251-3.9
					c3.338-0.813,7.01-0.788,10.04-0.813c3.029-0.026,5.766,0.088,8.466,0.354c2.7,0.266,5.065,0.709,7.275,1.17
					c2.21,0.461,4.259,0.936,6.272,1.329c2.013,0.393,3.987,0.703,6.045,0.912c2.058,0.209,4.199,0.318,6.576,0.386
					c2.377,0.069,4.958-0.114,7.892,0.016c2.933,0.13,6.161,0.471,9.637,1.129c3.475,0.658,7.199,1.636,11.123,2.974
					c3.924,1.338,8.046,3.041,12.282,5.042c2.119,1.001,4.267,2.073,6.441,3.173c2.175,1.1,4.376,2.228,6.59,3.319
					c2.214,1.091,4.431,2.158,6.613,3.16c2.182,1.002,4.329,1.938,6.399,2.765c4.14,1.653,8.005,2.883,11.063,3.037
					c3.058,0.154,5.459-0.096,7.417-0.629c1.957-0.533,3.472-1.349,4.834-2.281c1.362-0.933,2.572-1.979,3.967-2.961
					c1.395-0.982,2.978-1.898,5.083-2.579s4.737-1.127,8.161-1.172"></path>
				<path class="st0" d="M9.684,114.758c3.976-0.719,7.688-1.798,11.143-3.18c3.455-1.381,6.64-3.063,9.672-4.896
					c3.032-1.833,5.903-3.818,8.743-5.756c2.84-1.938,5.649-3.827,8.579-5.436c2.93-1.609,5.98-2.936,9.311-3.74
					c3.33-0.804,7.009-0.888,10.011-1.033c3.001-0.144,5.666-0.204,8.253-0.158c2.587,0.046,4.813,0.247,6.877,0.471
					c2.064,0.223,3.961,0.465,5.826,0.646s3.696,0.298,5.625,0.345c1.929,0.048,3.955,0.025,6.237,0.005
					c2.283-0.021,4.852-0.072,7.779,0.178c2.927,0.25,6.175,0.757,9.689,1.608c3.515,0.852,7.298,2.05,11.297,3.621
					c1.999,0.785,4.051,1.662,6.146,2.624c2.095,0.963,4.233,2.01,6.401,3.129c2.168,1.118,4.369,2.307,6.597,3.519
					c2.228,1.213,4.483,2.449,6.751,3.644c2.268,1.194,4.539,2.36,6.775,3.452s4.435,2.11,6.557,3.008
					c4.244,1.795,8.227,3.211,11.372,3.33c3.145,0.12,5.612-0.191,7.615-0.807c2.004-0.616,3.545-1.535,4.916-2.582
					c1.37-1.047,2.572-2.22,3.942-3.329c1.37-1.108,2.913-2.151,4.963-2.946c2.05-0.794,4.614-1.343,7.958-1.47"></path>
				<path class="st0" d="M8.072,115.898c4.007-0.628,7.775-1.583,11.298-2.821s6.788-2.759,9.903-4.429
					c3.115-1.67,6.072-3.49,8.989-5.278c2.917-1.788,5.795-3.543,8.774-5.049c2.979-1.506,6.059-2.762,9.389-3.544
					c3.33-0.782,7.02-0.94,9.997-1.198c2.977-0.258,5.571-0.486,8.045-0.661c2.474-0.174,4.56-0.219,6.477-0.238
					c1.917-0.019,3.658-0.015,5.372-0.054c1.715-0.039,3.4-0.12,5.197-0.239c1.797-0.119,3.704-0.275,5.89-0.387
					c2.186-0.112,4.723-0.093,7.644,0.276c2.922,0.369,6.189,1.039,9.744,2.082c3.555,1.043,7.399,2.461,11.473,4.26
					c2.037,0.9,4.131,1.894,6.271,2.974s4.326,2.245,6.544,3.479c2.218,1.234,4.472,2.536,6.753,3.859
					c2.281,1.322,4.591,2.665,6.914,3.961c2.322,1.296,4.648,2.558,6.937,3.738c2.289,1.18,4.543,2.279,6.717,3.247
					c4.35,1.936,8.454,3.561,11.694,3.659c3.241,0.098,5.781-0.26,7.838-0.947c2.056-0.687,3.629-1.698,5.011-2.851
					c1.382-1.154,2.576-2.446,3.92-3.677c1.344-1.23,2.841-2.396,4.83-3.306c1.989-0.909,4.474-1.562,7.724-1.778"></path>
				<path class="st0" d="M6.537,117.072c4.024-0.556,7.834-1.404,11.415-2.511c3.581-1.108,6.918-2.478,10.11-3.991
					s6.231-3.171,9.224-4.809c2.993-1.638,5.94-3.254,8.97-4.65c3.031-1.396,6.146-2.572,9.483-3.317
					c3.337-0.746,7.043-0.941,10-1.302c2.957-0.361,5.484-0.753,7.848-1.143c2.363-0.39,4.311-0.679,6.08-0.941
					c1.77-0.262,3.355-0.5,4.919-0.76c1.564-0.26,3.102-0.543,4.766-0.829c1.664-0.287,3.453-0.579,5.541-0.783
					c2.088-0.204,4.572-0.177,7.487,0.303c2.916,0.48,6.203,1.309,9.798,2.537c3.595,1.228,7.498,2.859,11.648,4.881
					c2.075,1.011,4.21,2.119,6.394,3.313c2.184,1.193,4.418,2.473,6.686,3.819c2.268,1.346,4.574,2.758,6.909,4.186
					c2.335,1.428,4.699,2.873,7.074,4.267c2.376,1.393,4.755,2.747,7.098,4.013c2.343,1.265,4.649,2.442,6.877,3.478
					c4.455,2.074,8.678,3.921,12.023,4.014c3.345,0.094,5.967-0.298,8.082-1.041c2.115-0.743,3.725-1.835,5.122-3.084
					c1.397-1.249,2.584-2.653,3.9-3.998c1.316-1.346,2.766-2.633,4.687-3.656c1.921-1.023,4.318-1.784,7.461-2.093"></path>
				<path class="st0" d="M5.104,118.299c4.026-0.505,7.865-1.261,11.492-2.253c3.627-0.992,7.026-2.223,10.288-3.587
					c3.262-1.364,6.378-2.865,9.444-4.353c3.065-1.488,6.081-2.964,9.165-4.246c3.084-1.281,6.237-2.368,9.585-3.067
					c3.349-0.699,7.078-0.894,10.019-1.345c2.941-0.451,5.407-0.996,7.664-1.594c2.257-0.598,4.069-1.126,5.695-1.628
					c1.625-0.501,3.057-0.979,4.472-1.459c1.414-0.48,2.808-0.963,4.341-1.417c1.533-0.454,3.204-0.88,5.195-1.174
					c1.991-0.295,4.4-0.319,7.309,0.262c2.909,0.581,6.215,1.558,9.847,2.961c3.633,1.404,7.595,3.236,11.818,5.47
					c2.111,1.117,4.287,2.333,6.514,3.635c2.228,1.302,4.507,2.69,6.824,4.142c2.317,1.452,4.673,2.968,7.06,4.496
					c2.386,1.529,4.803,3.07,7.231,4.556c2.428,1.486,4.859,2.926,7.253,4.272c2.395,1.346,4.753,2.597,7.032,3.699
					c4.558,2.204,8.894,4.275,12.351,4.381c3.457,0.106,6.168-0.303,8.348-1.087c2.18-0.784,3.831-1.942,5.247-3.274
					c1.415-1.332,2.597-2.837,3.886-4.292c1.288-1.454,2.686-2.856,4.533-3.993c1.847-1.136,4.147-2.007,7.172-2.415"></path>
				<path class="st0" d="M3.802,119.596c4.013-0.472,7.867-1.155,11.529-2.047c3.662-0.891,7.112-1.996,10.436-3.221
					c3.324-1.226,6.51-2.575,9.644-3.918c3.134-1.343,6.215-2.678,9.352-3.842c3.137-1.164,6.329-2.156,9.693-2.8
					c3.364-0.645,7.123-0.804,10.054-1.331c2.931-0.527,5.34-1.211,7.496-2.005c2.156-0.793,3.839-1.552,5.324-2.285
					c1.486-0.733,2.769-1.444,4.038-2.138c1.269-0.694,2.522-1.372,3.927-1.989c1.405-0.616,2.962-1.171,4.859-1.552
					c1.897-0.38,4.214-0.506,7.114,0.162c2.9,0.668,6.222,1.779,9.89,3.344c3.668,1.565,7.685,3.585,11.977,6.016
					c2.146,1.215,4.36,2.533,6.629,3.935c2.269,1.403,4.593,2.892,6.956,4.443c2.363,1.55,4.769,3.163,7.205,4.784
					c2.436,1.622,4.902,3.253,7.38,4.823c2.477,1.571,4.958,3.092,7.402,4.513s4.852,2.74,7.181,3.905
					c4.658,2.328,9.001,4.033,12.656,4.668c3.655,0.635,6.396-0.194,8.647-1.002c2.251-0.807,3.95-2.015,5.387-3.416
					c1.437-1.402,2.617-2.995,3.877-4.549s2.605-3.066,4.373-4.313c1.768-1.247,3.964-2.228,6.859-2.74"></path>
				<path class="st0" d="M2.655,120.98c3.986-0.458,7.841-1.086,11.524-1.892c3.683-0.806,7.175-1.798,10.55-2.895
					c3.375-1.097,6.624-2.304,9.82-3.507c3.196-1.203,6.34-2.4,9.527-3.446c3.188-1.046,6.419-1.939,9.8-2.523
					c3.381-0.583,7.172-0.682,10.097-1.267c2.925-0.586,5.283-1.394,7.346-2.368c2.063-0.974,3.622-1.949,4.975-2.902
					c1.353-0.953,2.493-1.888,3.624-2.788c1.13-0.899,2.248-1.766,3.531-2.537c1.283-0.771,2.731-1.449,4.539-1.908
					c1.808-0.46,4.02-0.721,6.908,0.017c2.889,0.738,6.223,1.965,9.923,3.673c1.85,0.854,3.792,1.828,5.815,2.915
					s4.13,2.289,6.308,3.594c2.178,1.305,4.428,2.714,6.735,4.208c2.307,1.495,4.673,3.075,7.08,4.715s4.858,3.34,7.34,5.046
					c2.482,1.706,4.996,3.417,7.519,5.064c2.523,1.647,5.05,3.241,7.541,4.73c2.49,1.488,4.945,2.87,7.32,4.09
					c2.376,1.22,4.673,2.278,6.846,3.117c2.173,0.839,4.222,1.458,6.099,1.801c3.755,0.685,6.633-0.037,8.962-0.849
					c2.328-0.812,4.079-2.051,5.542-3.506c1.463-1.455,2.643-3.124,3.875-4.768c1.233-1.643,2.523-3.259,4.208-4.612
					c1.685-1.354,3.77-2.446,6.525-3.067"></path>
				<path class="st0" d="M1.689,122.462c3.945-0.461,7.787-1.05,11.48-1.787c3.692-0.736,7.212-1.63,10.629-2.61
					c3.417-0.981,6.72-2.055,9.971-3.125c3.251-1.07,6.452-2.134,9.687-3.064c3.235-0.93,6.504-1.724,9.901-2.243
					c3.397-0.518,7.22-0.538,10.144-1.164c2.924-0.627,5.237-1.542,7.214-2.678c1.977-1.136,3.421-2.312,4.649-3.471
					c1.228-1.158,2.235-2.304,3.235-3.396c1-1.093,1.99-2.134,3.159-3.049c1.169-0.915,2.515-1.704,4.24-2.233
					c1.726-0.529,3.827-0.937,6.701-0.151c2.874,0.787,6.217,2.111,9.944,3.942c1.863,0.915,3.823,1.957,5.869,3.116
					c2.046,1.159,4.178,2.438,6.385,3.821c2.207,1.384,4.489,2.873,6.831,4.449c2.342,1.576,4.746,3.236,7.192,4.956
					c2.447,1.719,4.94,3.496,7.464,5.275c2.525,1.779,5.081,3.561,7.646,5.274c2.565,1.714,5.134,3.371,7.667,4.918
					c2.533,1.547,5.03,2.983,7.449,4.253c2.419,1.27,4.76,2.372,6.978,3.249c2.218,0.877,4.314,1.528,6.239,1.895
					c3.851,0.735,6.871,0.134,9.282-0.662c2.411-0.796,4.219-2.047,5.712-3.539c1.493-1.492,2.675-3.222,3.882-4.943
					c1.207-1.721,2.442-3.43,4.041-4.887c1.599-1.456,3.567-2.658,6.175-3.39"></path>
				<path class="st0" d="M0.926,124.053c3.891-0.479,7.708-1.045,11.397-1.727c3.689-0.682,7.225-1.49,10.673-2.367
					c3.448-0.877,6.795-1.829,10.093-2.774s6.549-1.884,9.825-2.701c3.277-0.818,6.58-1.515,9.992-1.968
					c3.412-0.453,7.261-0.386,10.187-1.037c2.926-0.651,5.2-1.653,7.099-2.932c1.899-1.278,3.237-2.636,4.35-3.982
					c1.114-1.346,1.996-2.684,2.875-3.954c0.88-1.27,1.753-2.472,2.817-3.517c1.064-1.045,2.318-1.933,3.969-2.519
					c1.652-0.587,3.646-1.131,6.502-0.317c2.857,0.814,6.204,2.211,9.952,4.141c1.874,0.965,3.848,2.062,5.913,3.282
					c2.064,1.22,4.218,2.562,6.451,4.012c2.233,1.45,4.543,3.008,6.916,4.652c2.373,1.644,4.81,3.374,7.292,5.159
					c2.482,1.786,5.013,3.627,7.575,5.467c2.562,1.841,5.156,3.681,7.759,5.45c2.602,1.769,5.208,3.478,7.778,5.073
					c2.57,1.595,5.105,3.077,7.562,4.388c2.458,1.311,4.838,2.451,7.098,3.36c2.259,0.91,4.397,1.59,6.368,1.98
					c3.941,0.781,7.1,0.3,9.599-0.458c2.499-0.759,4.369-2.002,5.897-3.512c1.528-1.51,2.716-3.284,3.899-5.07
					c1.182-1.785,2.363-3.579,3.874-5.132c1.511-1.553,3.358-2.863,5.811-3.708"></path>
				<path class="st0" d="M0.384,125.759c3.826-0.509,7.605-1.066,11.279-1.707c3.673-0.64,7.215-1.378,10.683-2.163
					c3.468-0.785,6.848-1.626,10.184-2.457c3.336-0.831,6.628-1.65,9.94-2.361c3.312-0.712,6.644-1.315,10.067-1.703
					c3.423-0.389,7.289-0.24,10.218-0.899c2.93-0.659,5.169-1.73,6.997-3.13c1.828-1.399,3.071-2.918,4.08-4.431
					c1.009-1.513,1.779-3.025,2.549-4.452c0.771-1.428,1.538-2.773,2.509-3.93c0.971-1.158,2.143-2.129,3.73-2.758
					c1.587-0.629,3.489-1.27,6.324-0.453c2.835,0.817,6.182,2.263,9.945,4.266c1.881,1.001,3.867,2.142,5.946,3.408
					c2.079,1.266,4.251,2.659,6.505,4.162c2.254,1.503,4.588,3.115,6.987,4.814c2.4,1.699,4.865,3.483,7.377,5.322
					c2.513,1.839,5.075,3.731,7.669,5.62c2.594,1.889,5.221,3.774,7.855,5.586c2.634,1.812,5.271,3.56,7.872,5.193
					s5.144,3.109,7.621,4.429c2.478,1.32,4.883,2.473,7.178,3.407s4.477,1.648,6.505,2.085c4.055,0.874,7.337,0.499,9.922-0.205
					c2.585-0.704,4.531-1.912,6.107-3.413c1.576-1.501,2.778-3.3,3.939-5.135c1.161-1.835,2.287-3.702,3.71-5.343
					c1.423-1.641,3.146-3.056,5.439-4.016"></path>
				<path class="st0" d="M0.079,127.579c3.751-0.548,7.482-1.107,11.129-1.719c3.647-0.611,7.182-1.29,10.658-1.996
					c3.476-0.706,6.88-1.448,10.244-2.175c3.364-0.727,6.689-1.436,10.029-2.049c3.339-0.613,6.693-1.128,10.123-1.456
					s7.298-0.111,10.23-0.762c2.932-0.651,5.14-1.773,6.905-3.272c1.765-1.499,2.921-3.156,3.837-4.813
					c0.916-1.658,1.585-3.321,2.26-4.885c0.674-1.564,1.35-3.031,2.241-4.282c0.891-1.251,1.993-2.286,3.529-2.941
					c1.535-0.656,3.368-1.327,6.179-0.531s6.152,2.265,9.923,4.314c1.886,1.024,3.879,2.193,5.969,3.492
					c2.09,1.299,4.276,2.728,6.546,4.269c2.27,1.541,4.623,3.193,7.044,4.932c2.421,1.738,4.909,3.563,7.446,5.44
					c2.537,1.877,5.129,3.814,7.746,5.721c2.617,1.907,5.258,3.786,7.899,5.58c2.641,1.794,5.278,3.515,7.88,5.123
					s5.17,3.104,7.671,4.443c2.501,1.339,4.936,2.522,7.27,3.499c2.333,0.977,4.566,1.749,6.657,2.262
					c4.183,1.024,7.609,0.776,10.27,0.123c2.66-0.652,4.677-1.823,6.303-3.304c1.627-1.481,2.864-3.27,4.019-5.125
					c1.155-1.854,2.23-3.77,3.556-5.491c1.326-1.721,2.917-3.241,5.045-4.315"></path>
				<path class="st0" d="M0.026,129.51c3.836-0.62,7.676-1.215,11.445-1.836c3.769-0.621,7.435-1.286,11.056-1.956
					c3.621-0.67,7.18-1.356,10.706-2.01s7.023-1.275,10.539-1.785c3.516-0.511,7.054-0.91,10.67-1.113
					c3.616-0.203,7.463-0.173,10.095-1.105c2.632-0.931,4.636-2.538,6.042-4.298c1.406-1.76,2.279-3.655,2.995-5.506
					c0.716-1.851,1.269-3.666,1.931-5.3c0.663-1.635,1.431-3.094,2.554-4.207c1.123-1.113,2.597-1.884,4.695-2.08
					c2.097-0.197,4.991,0.412,8.492,1.977c1.75,0.782,3.634,1.743,5.638,2.866c2.003,1.123,4.126,2.407,6.355,3.834
					c2.229,1.426,4.565,2.997,6.992,4.685c2.426,1.687,4.973,3.541,7.582,5.443c2.608,1.902,5.281,3.874,7.993,5.853
					c2.712,1.979,5.461,3.966,8.221,5.897c2.76,1.931,5.531,3.811,8.282,5.599c2.751,1.789,5.483,3.486,8.165,5.049
					c2.682,1.563,5.313,2.991,7.861,4.236c2.548,1.245,5.014,2.306,7.359,3.128c4.69,1.644,8.929,2.091,12.042,1.674
					c3.113-0.417,5.479-1.451,7.36-2.876c1.88-1.426,3.276-3.24,4.512-5.172c1.236-1.932,2.315-3.977,3.599-5.848
					c1.285-1.871,2.782-3.563,4.813-4.804"></path>
				<path class="st0" d="M0.232,131.542c3.744-0.67,7.518-1.28,11.241-1.885c3.723-0.606,7.363-1.229,10.974-1.836
					c3.61-0.606,7.173-1.21,10.708-1.777s7.044-1.096,10.568-1.526c3.524-0.431,7.062-0.762,10.662-0.928
					c3.6-0.165,7.435-0.094,10.049-1.019c2.613-0.926,4.568-2.583,5.911-4.422c1.343-1.84,2.141-3.84,2.782-5.793
					c0.642-1.954,1.12-3.868,1.717-5.58c0.597-1.713,1.31-3.228,2.391-4.364c1.081-1.136,2.528-1.895,4.614-2.041
					c2.086-0.145,4.952,0.439,8.436,1.97c1.742,0.766,3.621,1.718,5.622,2.836c2.001,1.119,4.158,2.457,6.439,3.935
					c2.281,1.477,4.68,3.09,7.164,4.8c2.484,1.71,5.053,3.516,7.677,5.378c2.623,1.863,5.306,3.794,8.021,5.734
					c2.715,1.94,5.46,3.887,8.209,5.782c2.749,1.895,5.503,3.742,8.236,5.504c2.733,1.762,5.444,3.439,8.109,4.991
					c2.664,1.552,5.282,2.979,7.824,4.235c2.542,1.256,5.009,2.342,7.369,3.205c4.719,1.725,9.15,2.406,12.346,2.058
					c3.196-0.348,5.646-1.329,7.597-2.717c1.95-1.389,3.4-3.186,4.655-5.119c1.255-1.934,2.318-4.004,3.535-5.924
					c1.217-1.92,2.595-3.688,4.446-5.037"></path>
				<path class="st0" d="M0.704,133.659c3.65-0.717,7.351-1.345,11.021-1.942c3.67-0.597,7.274-1.186,10.863-1.739
					c3.589-0.553,7.144-1.085,10.676-1.577c3.532-0.491,7.044-0.94,10.564-1.301c3.52-0.362,7.05-0.635,10.625-0.772
					c3.575-0.136,7.379-0.04,9.968-0.951c2.589-0.91,4.496-2.597,5.783-4.494c1.286-1.897,2.02-3.976,2.601-6.006
					c0.58-2.029,1.001-4.014,1.549-5.778c0.549-1.763,1.222-3.307,2.277-4.44c1.056-1.133,2.491-1.857,4.58-1.93
					c2.09-0.073,4.917,0.529,8.471,2.071c1.777,0.771,3.717,1.749,5.791,2.894c2.074,1.145,4.28,2.457,6.591,3.898
					c2.311,1.442,4.731,3.015,7.227,4.682c2.496,1.667,5.069,3.428,7.69,5.244c2.62,1.816,5.295,3.701,7.995,5.593
					c2.7,1.893,5.424,3.794,8.145,5.646c2.721,1.852,5.442,3.658,8.14,5.385c2.698,1.727,5.374,3.376,8.005,4.908
					c2.632,1.533,5.219,2.949,7.739,4.207c2.52,1.258,4.972,2.358,7.329,3.251c4.714,1.786,9.306,2.702,12.583,2.426
					c3.277-0.275,5.814-1.197,7.837-2.544c2.024-1.347,3.534-3.118,4.816-5.049c1.282-1.93,2.34-4.018,3.5-5.982
					c1.16-1.965,2.43-3.804,4.112-5.256"></path>
				<path class="st0" d="M1.408,135.792c3.592-0.665,7.232-1.343,10.826-1.946c3.594-0.603,7.17-1.152,10.728-1.661
					c3.559-0.509,7.095-0.98,10.613-1.407c3.518-0.426,7.02-0.807,10.525-1.112c3.505-0.305,7.015-0.533,10.554-0.649
					c3.539-0.117,7.294-0.013,9.851-0.901c2.556-0.888,4.416-2.589,5.651-4.522c1.235-1.932,1.916-4.066,2.449-6.144
					c0.533-2.078,0.91-4.106,1.427-5.891c0.517-1.785,1.168-3.33,2.216-4.434c1.047-1.104,2.542-1.696,4.721-1.67
					c2.179,0.026,5.026,0.567,8.698,2.077c1.836,0.755,3.823,1.71,5.931,2.825s4.338,2.391,6.663,3.792
					c2.325,1.401,4.748,2.93,7.24,4.549c2.492,1.619,5.053,3.329,7.655,5.094c2.602,1.764,5.253,3.595,7.922,5.435
					c2.669,1.84,5.357,3.688,8.037,5.49c2.679,1.802,5.353,3.561,8.003,5.246c2.649,1.686,5.275,3.298,7.86,4.803
					c2.585,1.505,5.128,2.902,7.611,4.154c2.483,1.251,4.905,2.356,7.243,3.269c4.676,1.827,9.386,2.968,12.741,2.769
					c3.355-0.199,5.977-1.056,8.077-2.355c2.099-1.299,3.675-3.039,4.992-4.96c1.317-1.92,2.378-4.019,3.493-6.022
					c1.114-2.003,2.288-3.907,3.814-5.458"></path>
				<path class="st0" d="M2.289,137.814c3.544-0.599,7.128-1.202,10.694-1.767c3.566-0.565,7.076-1.122,10.595-1.603
					c3.519-0.481,7.025-0.9,10.518-1.273c3.493-0.374,6.972-0.698,10.451-0.958c3.478-0.26,6.956-0.455,10.448-0.564
					c3.492-0.109,7.181-0.007,9.695-0.869c2.513-0.862,4.322-2.565,5.51-4.515c1.188-1.95,1.826-4.112,2.323-6.212
					c0.497-2.099,0.848-4.142,1.349-5.92c0.501-1.778,1.253-3.205,2.44-4.198c1.187-0.992,2.817-1.536,5.041-1.535
					c2.224,0.001,5.049,0.465,8.809,1.94c1.88,0.738,3.897,1.666,6.026,2.749c2.128,1.083,4.367,2.32,6.691,3.678
					c2.324,1.357,4.737,2.837,7.21,4.405c2.474,1.567,5.008,3.222,7.577,4.93c2.569,1.708,5.182,3.48,7.808,5.262
					c2.626,1.782,5.264,3.572,7.888,5.318c2.625,1.746,5.239,3.452,7.828,5.089c2.589,1.638,5.153,3.207,7.679,4.678
					c2.526,1.47,5.013,2.842,7.446,4.078c2.433,1.236,4.812,2.337,7.118,3.263c4.611,1.85,8.933,3.001,12.735,3.053
					c3.802,0.052,6.211-0.878,8.386-2.124c2.176-1.245,3.82-2.947,5.178-4.85c1.358-1.903,2.432-4.006,3.511-6.04
					c1.08-2.033,2.17-3.996,3.554-5.638"></path>
				<path class="st0" d="M3.362,139.718c3.664-0.567,7.377-1.142,11.071-1.679c3.694-0.536,7.329-1.067,10.977-1.515
					c3.647-0.449,7.28-0.837,10.9-1.164c3.62-0.326,7.227-0.591,10.828-0.794c3.601-0.204,7.198-0.346,10.795-0.429
					c3.597-0.082,6.844-0.408,8.943-1.661c2.099-1.254,3.536-3.475,4.394-5.651c0.858-2.176,1.309-4.461,1.815-6.538
					c0.506-2.077,1.065-3.948,1.979-5.416c0.915-1.468,2.183-2.538,3.998-3.084c1.815-0.546,4.175-0.573,7.203,0.005
					c3.027,0.578,7.314,2.254,11.845,4.539c2.266,1.143,4.636,2.442,7.086,3.86c2.45,1.419,4.979,2.958,7.563,4.583
					c2.585,1.625,5.219,3.332,7.883,5.087c2.664,1.755,5.357,3.557,8.06,5.372c2.703,1.815,5.392,3.599,8.058,5.33
					c2.666,1.731,5.309,3.408,7.922,5.006c2.613,1.597,5.193,3.113,7.728,4.512c2.535,1.399,5.024,2.681,7.452,3.806
					c2.428,1.125,4.794,2.092,7.078,2.855c2.283,0.763,4.484,1.322,6.571,1.623c4.176,0.602,7.419-0.05,9.941-1.147
					c2.522-1.097,4.425-2.747,5.959-4.669c1.535-1.921,2.703-4.111,3.812-6.269c1.11-2.158,2.167-4.281,3.482-6.087"></path>
				<path class="st0" d="M4.644,141.5c3.617-0.513,7.288-1.037,10.943-1.527c3.654-0.491,7.251-0.978,10.861-1.388
					c3.611-0.41,7.207-0.763,10.788-1.056c3.58-0.293,7.145-0.526,10.697-0.698c3.552-0.172,7.091-0.283,10.618-0.331
					c3.528-0.048,6.469-0.559,8.464-1.845c1.995-1.286,3.406-3.477,4.309-5.596c0.904-2.119,1.459-4.319,2.09-6.308
					c0.632-1.988,1.336-3.767,2.391-5.156c1.054-1.389,2.455-2.392,4.375-2.897c1.919-0.506,4.355-0.516,7.409,0.04
					c3.054,0.556,7.359,2.174,11.873,4.382c2.257,1.105,4.608,2.358,7.028,3.726c2.42,1.367,4.91,2.849,7.447,4.413
					c2.537,1.564,5.118,3.206,7.721,4.894c2.603,1.688,5.23,3.422,7.862,5.169c2.633,1.747,5.245,3.464,7.83,5.129
					c2.586,1.666,5.145,3.282,7.676,4.824c2.53,1.542,5.028,3.008,7.484,4.367c2.456,1.359,4.871,2.61,7.233,3.717
					c2.361,1.107,4.669,2.069,6.906,2.844c2.236,0.775,4.401,1.363,6.47,1.714c4.137,0.701,7.58,0.211,10.179-0.813
					c2.6-1.024,4.581-2.614,6.172-4.497c1.591-1.883,2.794-4.055,3.892-6.224c1.099-2.169,2.099-4.332,3.294-6.216"></path>
				<path class="st0" d="M6.151,143.157c3.572-0.465,7.201-0.944,10.815-1.393c3.614-0.449,7.17-0.898,10.742-1.272
					c3.572-0.374,7.13-0.695,10.669-0.958c3.539-0.262,7.059-0.467,10.559-0.61c3.5-0.143,6.98-0.225,10.438-0.242
					c3.457-0.016,6.067-0.75,7.972-2.061c1.905-1.311,3.304-3.464,4.265-5.515c0.961-2.051,1.632-4.155,2.398-6.041
					c0.767-1.887,1.627-3.56,2.829-4.855c1.202-1.296,2.743-2.216,4.772-2.665c2.03-0.449,4.547-0.427,7.634,0.124
					c3.087,0.551,7.383,2.113,11.859,4.246c2.238,1.066,4.559,2.274,6.94,3.59c2.381,1.316,4.822,2.739,7.303,4.242
					c2.481,1.501,4.998,3.078,7.532,4.698c2.534,1.62,5.086,3.283,7.64,4.96c2.554,1.677,5.081,3.323,7.579,4.921
					c2.498,1.598,4.968,3.149,7.408,4.632c2.44,1.483,4.849,2.895,7.219,4.208s4.703,2.528,6.989,3.61
					c2.286,1.082,4.526,2.032,6.704,2.811s4.297,1.386,6.333,1.777c4.073,0.781,7.678,0.468,10.351-0.477
					c2.673-0.945,4.731-2.468,6.381-4.304c1.65-1.835,2.893-3.98,3.99-6.15c1.097-2.17,2.053-4.362,3.144-6.31"></path>
				<path class="st0" d="M7.845,144.639c3.705-0.442,7.501-0.882,11.219-1.331c3.717-0.449,7.438-0.854,11.141-1.201
					c3.704-0.347,7.391-0.638,11.054-0.865c3.662-0.227,7.3-0.391,10.907-0.486c3.607-0.095,7.499,0.19,10.478-0.309
					c2.978-0.5,5.072-1.668,6.763-3.51c1.691-1.842,2.744-3.989,3.694-6.049c0.95-2.06,1.793-4.035,2.875-5.691
					c1.081-1.657,2.397-2.998,4.155-3.888c1.757-0.891,3.953-1.333,6.698-1.254c2.745,0.079,5.995,0.561,10.327,2.164
					c2.166,0.802,4.435,1.783,6.778,2.906c2.344,1.122,4.763,2.385,7.234,3.754c2.471,1.369,4.997,2.846,7.551,4.394
					c2.554,1.547,5.136,3.165,7.723,4.817c2.587,1.651,5.181,3.335,7.751,4.996s5.116,3.301,7.62,4.868
					c2.503,1.567,4.973,3.077,7.407,4.502s4.831,2.767,7.187,3.992c2.356,1.225,4.672,2.334,6.938,3.29
					c2.265,0.955,4.48,1.756,6.629,2.358c4.296,1.205,8.532,1.516,11.605,0.803c3.073-0.713,5.45-2.114,7.336-3.909
					c1.887-1.796,3.283-3.984,4.462-6.245c1.18-2.261,2.147-4.591,3.201-6.691"></path>
				<path class="st0" d="M9.711,145.982c3.658-0.399,7.409-0.798,11.079-1.209s7.344-0.779,11-1.094
					c3.657-0.315,7.296-0.575,10.907-0.772c3.611-0.197,7.193-0.333,10.736-0.4c3.543-0.066,7.314,0.213,10.097-0.389
					c2.782-0.602,4.784-1.797,6.458-3.607c1.674-1.81,2.8-3.869,3.863-5.819c1.063-1.951,2.059-3.798,3.298-5.33
					c1.239-1.532,2.718-2.75,4.616-3.539c1.898-0.789,4.213-1.15,7.035-1.022c2.823,0.129,6.093,0.62,10.393,2.18
					c2.15,0.78,4.389,1.729,6.692,2.809c2.304,1.081,4.672,2.294,7.083,3.606c2.412,1.313,4.87,2.727,7.349,4.208
					c2.479,1.48,4.98,3.027,7.481,4.606c2.501,1.578,5.003,3.187,7.478,4.774c2.475,1.587,4.923,3.152,7.326,4.649
					c2.403,1.497,4.771,2.939,7.105,4.304c2.333,1.365,4.632,2.652,6.894,3.832c2.262,1.181,4.488,2.256,6.672,3.19
					c2.183,0.934,4.324,1.729,6.409,2.342c4.17,1.226,8.401,1.723,11.54,1.108c3.138-0.615,5.593-1.924,7.547-3.648
					c1.954-1.723,3.407-3.857,4.607-6.092c1.2-2.236,2.15-4.569,3.129-6.709"></path>
				<path class="st0" d="M11.711,147.213c3.61-0.358,7.314-0.719,10.935-1.093c3.62-0.374,7.245-0.708,10.85-0.99
					c3.606-0.282,7.194-0.512,10.749-0.681c3.555-0.169,7.078-0.276,10.554-0.314c3.476-0.038,7.063,0.174,9.677-0.511
					c2.614-0.685,4.544-1.894,6.218-3.659c1.674-1.765,2.883-3.726,4.065-5.561s2.333-3.548,3.728-4.95
					c1.396-1.401,3.033-2.494,5.068-3.178c2.034-0.683,4.463-0.959,7.358-0.778c2.895,0.181,6.188,0.691,10.44,2.206
					c2.126,0.757,4.328,1.673,6.585,2.712c2.257,1.039,4.569,2.202,6.916,3.458c2.348,1.256,4.733,2.608,7.133,4.022
					c2.401,1.414,4.816,2.89,7.228,4.395c2.412,1.505,4.82,3.039,7.198,4.551c2.378,1.512,4.726,3.004,7.027,4.429
					c2.301,1.426,4.566,2.8,6.798,4.103c2.232,1.303,4.429,2.534,6.595,3.668s4.298,2.171,6.395,3.08s4.158,1.691,6.173,2.309
					c4.031,1.235,7.958,1.874,11.392,1.392c3.149-0.442,5.729-1.722,7.751-3.364c2.022-1.642,3.536-3.711,4.764-5.909
					c1.228-2.198,2.174-4.522,3.094-6.689"></path>
				<path class="st0" d="M13.807,148.36c3.749-0.335,7.592-0.682,11.349-1.034c3.757-0.352,7.516-0.661,11.251-0.914
					c3.735-0.252,7.446-0.448,11.114-0.574c3.668-0.127,7.292-0.185,10.852-0.162c3.56,0.023,6.622-0.306,8.932-1.363
					c2.309-1.057,4.143-2.755,5.704-4.622c1.561-1.867,2.849-3.778,4.257-5.451c1.409-1.673,2.934-3.111,4.804-4.162
					s4.081-1.719,6.742-1.931c2.662-0.212,5.771,0.029,9.359,0.752c1.794,0.362,3.883,0.942,6.102,1.746
					c2.219,0.805,4.508,1.768,6.844,2.855c2.336,1.087,4.723,2.298,7.136,3.599c2.413,1.301,4.852,2.692,7.295,4.14
					c2.443,1.448,4.902,2.964,7.34,4.488c2.437,1.524,4.852,3.054,7.218,4.538c2.366,1.484,4.687,2.925,6.969,4.304
					c2.282,1.379,4.525,2.698,6.733,3.931c2.209,1.234,4.384,2.383,6.526,3.419c2.143,1.036,4.253,1.959,6.327,2.733
					c4.148,1.549,8.159,2.511,11.888,2.524c3.729,0.013,6.693-1.076,9.008-2.609c2.315-1.533,4.041-3.59,5.406-5.836
					s2.372-4.676,3.296-6.97"></path>
				<path class="st0" d="M15.959,149.45c3.697-0.296,7.489-0.605,11.189-0.92c3.701-0.316,7.404-0.591,11.08-0.811
					c3.676-0.22,7.327-0.385,10.928-0.482c3.602-0.096,7.155-0.125,10.635-0.071c3.48,0.055,6.227-0.505,8.467-1.574
					c2.239-1.069,4.087-2.71,5.727-4.475c1.639-1.767,3.065-3.541,4.626-5.072c1.561-1.531,3.255-2.821,5.278-3.74
					c2.023-0.919,4.374-1.468,7.137-1.593c2.764-0.123,5.94,0.177,9.544,0.919c3.603,0.742,8.176,2.368,12.724,4.445
					c2.275,1.039,4.591,2.193,6.925,3.431c2.335,1.238,4.688,2.561,7.04,3.937c2.352,1.376,4.716,2.816,7.053,4.262
					c2.337,1.446,4.648,2.898,6.907,4.304c2.259,1.406,4.472,2.77,6.644,4.078c2.173,1.307,4.306,2.556,6.407,3.728
					c4.202,2.344,8.281,4.384,12.249,5.894c3.967,1.51,7.827,2.49,11.461,2.617c3.634,0.127,6.782-0.788,9.167-2.217
					c2.385-1.429,4.183-3.397,5.595-5.58c1.411-2.183,2.439-4.577,3.334-6.87"></path>
				<path class="st0" d="M18.125,150.51c3.645-0.258,7.384-0.53,11.029-0.811c3.645-0.281,7.29-0.523,10.907-0.712
					c3.617-0.188,7.205-0.323,10.739-0.39c3.534-0.067,7.015-0.066,10.413,0.02c3.398,0.085,5.851-0.712,8.049-1.772
					c2.198-1.06,4.082-2.629,5.814-4.284c1.732-1.656,3.301-3.288,5.016-4.674c1.716-1.385,3.575-2.529,5.747-3.317
					c2.172-0.788,4.653-1.223,7.513-1.261c2.859-0.038,6.095,0.319,9.707,1.079c3.612,0.759,8.06,2.301,12.478,4.279
					c2.209,0.989,4.451,2.085,6.705,3.261c2.254,1.175,4.52,2.429,6.781,3.733c2.26,1.303,4.526,2.667,6.763,4.036
					c2.236,1.368,4.443,2.741,6.596,4.07c2.153,1.328,4.256,2.616,6.32,3.85c2.063,1.234,4.087,2.414,6.08,3.524
					c3.986,2.218,7.855,4.156,11.635,5.617c3.78,1.461,7.477,2.444,10.999,2.663c3.522,0.219,6.795-0.505,9.249-1.825
					c2.454-1.32,4.324-3.193,5.786-5.304c1.462-2.112,2.52-4.46,3.401-6.74"></path>
				<path class="st0" d="M20.261,151.567c3.794-0.234,7.682-0.49,11.471-0.746c3.789-0.257,7.575-0.471,11.323-0.626
					c3.748-0.155,7.457-0.249,11.095-0.264c3.638-0.015,7.412,0.32,10.383-0.1c2.971-0.42,5.394-1.385,7.532-2.647
					c2.139-1.261,4.132-3.068,6.018-4.633c1.886-1.565,3.759-2.986,5.88-4.081c2.121-1.096,4.486-1.869,7.213-2.244
					c2.727-0.375,5.814-0.354,9.281,0.078c3.467,0.433,7.325,1.187,11.738,2.744c2.207,0.779,4.454,1.697,6.722,2.721
					c2.268,1.024,4.556,2.154,6.85,3.359c2.294,1.205,4.59,2.486,6.872,3.809c2.282,1.322,4.55,2.687,6.793,4.062
					c2.243,1.376,4.416,2.711,6.534,3.996c2.119,1.285,4.183,2.521,6.211,3.695c4.056,2.349,7.959,4.451,11.784,6.126
					c3.824,1.675,7.574,2.923,11.204,3.462c3.63,0.539,7.295,0.273,10.091-0.866c2.795-1.139,4.931-2.942,6.583-5.058
					c1.651-2.116,2.819-4.54,3.749-6.922"></path>
				<path class="st0" d="M22.323,152.645c3.743-0.197,7.58-0.418,11.313-0.642c3.733-0.223,7.462-0.407,11.149-0.531
					c3.687-0.125,7.332-0.19,10.898-0.176c3.566,0.014,7.166,0.299,10.035-0.161c2.868-0.46,5.278-1.397,7.467-2.582
					c2.188-1.185,4.301-2.856,6.336-4.272c2.034-1.417,4.082-2.678,6.368-3.623c2.286-0.946,4.806-1.582,7.657-1.845
					s6.029-0.157,9.541,0.324c3.512,0.481,7.357,1.244,11.654,2.718c2.148,0.737,4.327,1.604,6.518,2.569
					c2.191,0.965,4.395,2.029,6.598,3.164c2.203,1.135,4.402,2.339,6.583,3.583c2.181,1.243,4.343,2.526,6.478,3.819
					c2.135,1.293,4.196,2.545,6.202,3.749s3.956,2.361,5.87,3.461c3.828,2.2,7.504,4.17,11.114,5.754
					c3.611,1.585,7.163,2.784,10.632,3.35c3.469,0.566,7.036,0.476,9.896-0.538c2.859-1.015,5.07-2.705,6.783-4.732
					c1.712-2.027,2.929-4.385,3.868-6.734"></path>
				<path class="st0" d="M24.268,153.771c3.697-0.163,7.487-0.352,11.169-0.544c3.682-0.193,7.359-0.347,10.989-0.444
					c3.63-0.096,7.215-0.135,10.713-0.093c3.498,0.042,6.924,0.259,9.731-0.213c2.807-0.472,5.235-1.358,7.497-2.452
					c2.262-1.094,4.513-2.617,6.705-3.881c2.193-1.265,4.417-2.364,6.867-3.164c2.45-0.799,5.123-1.3,8.092-1.458
					c2.969-0.157,6.234,0.028,9.785,0.553c3.551,0.524,7.383,1.295,11.557,2.677c2.087,0.691,4.195,1.503,6.307,2.407
					s4.231,1.9,6.343,2.962c2.112,1.062,4.214,2.19,6.294,3.354c2.08,1.164,4.137,2.364,6.163,3.574
					c4.052,2.419,7.802,4.677,11.403,6.725c3.602,2.05,7.051,3.884,10.447,5.37c3.396,1.487,6.744,2.626,10.043,3.2
					c3.299,0.575,6.55,0.582,9.588-0.265c3.038-0.847,5.208-2.465,6.983-4.399c1.775-1.935,3.042-4.224,4.002-6.532"></path>
				<path class="st0" d="M26.049,154.971c3.871-0.139,7.835-0.315,11.686-0.485c3.85-0.17,7.69-0.298,11.467-0.36
					c3.777-0.061,7.493-0.055,11.094,0.047c3.602,0.102,6.795-0.01,9.601-0.661c2.806-0.651,5.196-1.519,7.788-2.825
					c2.591-1.306,5.009-2.592,7.561-3.625c2.553-1.033,5.237-1.818,8.195-2.261c2.958-0.442,6.186-0.544,9.705-0.293
					c3.52,0.251,7.331,0.854,11.377,1.777s8.435,2.331,12.739,4.172c2.152,0.921,4.305,1.937,6.437,3.013
					c2.132,1.076,4.243,2.212,6.318,3.376c2.075,1.164,4.113,2.352,6.089,3.513c1.976,1.161,3.891,2.296,5.735,3.36
					c3.687,2.129,7.156,4.057,10.553,5.67c3.397,1.614,6.728,2.914,10.043,3.695c3.315,0.781,6.618,1.04,9.773,0.484
					c3.156-0.556,5.888-2.039,7.896-3.941c2.009-1.902,3.431-4.247,4.474-6.644"></path>
				<path class="st0" d="M27.62,156.269c3.837-0.109,7.768-0.259,11.58-0.404s7.611-0.251,11.343-0.29
					c3.732-0.039,7.397-0.011,10.938,0.114c3.541,0.125,6.647-0.035,9.497-0.62c2.85-0.586,5.345-1.348,8.093-2.499
					c2.749-1.151,5.36-2.261,8.103-3.128c2.743-0.867,5.613-1.495,8.726-1.805c3.113-0.31,6.467-0.306,10.068,0.016
					c3.601,0.322,7.448,0.959,11.475,1.875c4.027,0.916,8.244,2.177,12.373,3.872c4.13,1.695,8.227,3.745,12.16,5.897
					c3.933,2.152,7.687,4.385,11.142,6.342c3.454,1.957,6.687,3.723,9.853,5.203c3.166,1.48,6.272,2.676,9.384,3.409
					c3.112,0.732,6.234,0.999,9.259,0.541c3.025-0.458,5.879-1.774,7.953-3.576c2.074-1.802,3.557-4.07,4.633-6.418"></path>
				<path class="st0" d="M28.931,157.693c3.814-0.084,7.724-0.213,11.509-0.338c3.786-0.126,7.557-0.214,11.255-0.236
					c3.698-0.022,7.324,0.023,10.817,0.167c3.493,0.143,6.576-0.014,9.501-0.513c2.925-0.499,5.547-1.143,8.473-2.129
					c2.926-0.985,5.744-1.916,8.683-2.617c2.94-0.7,5.998-1.174,9.269-1.357c3.27-0.183,6.748-0.079,10.429,0.308
					c3.681,0.387,7.562,1.053,11.571,1.957c4.009,0.904,8.073,2.025,12.028,3.565c3.955,1.541,7.851,3.417,11.569,5.39
					c3.718,1.973,7.243,4.021,10.469,5.804c3.225,1.783,6.226,3.385,9.164,4.726c2.938,1.341,5.82,2.424,8.726,3.093
					c2.906,0.669,5.841,0.922,8.723,0.531c2.882-0.392,5.772-1.543,7.91-3.248c2.138-1.705,3.682-3.897,4.795-6.199"></path>
				<path class="st0" d="M29.933,159.271c4.042-0.068,8.181-0.196,12.188-0.309c4.007-0.114,7.991-0.186,11.879-0.178
					c3.887,0.007,7.767,0.208,11.285,0.291c3.517,0.083,6.772-0.237,9.939-0.764c3.167-0.527,6.295-1.316,9.573-2.122
					c3.278-0.806,6.547-1.473,9.982-1.865c3.435-0.392,7.035-0.513,10.837-0.339c3.802,0.175,7.803,0.642,11.944,1.364
					c4.141,0.721,8.532,1.686,12.629,2.822c4.097,1.137,8.114,2.719,11.983,4.516c3.868,1.797,7.583,3.844,10.942,5.665
					c3.359,1.821,6.399,3.459,9.327,4.853c2.927,1.394,5.75,2.548,8.609,3.32c2.859,0.772,5.759,1.161,8.665,0.935
					c2.905-0.227,5.952-1.14,8.368-2.784s4.152-3.89,5.378-6.289"></path>
				<path class="st0" d="M30.559,161.006c4.047-0.052,8.195-0.169,12.208-0.275c4.012-0.105,8-0.172,11.884-0.16
					c3.884,0.013,7.706,0.17,11.256,0.314c3.55,0.144,6.914-0.063,10.238-0.447c3.324-0.383,6.663-0.992,10.174-1.605
					c3.511-0.613,7.018-1.093,10.664-1.324c3.646-0.231,7.43-0.217,11.372,0.057c3.941,0.273,8.037,0.803,12.218,1.545
					c4.182,0.742,8.659,1.777,12.607,2.748c3.949,0.972,7.781,2.367,11.444,3.97c3.663,1.603,7.15,3.446,10.282,5.073
					c3.131,1.626,5.94,3.077,8.637,4.303c2.697,1.227,5.29,2.232,7.927,2.893c2.638,0.662,5.329,0.981,8.057,0.75
					c2.729-0.231,5.567-1.044,8.049-2.592c2.482-1.547,4.285-3.725,5.554-6.083"></path>
				<path class="st0" d="M30.718,162.73c4.066-0.033,8.238-0.138,12.272-0.235c4.034-0.097,8.044-0.16,11.946-0.144
					c3.902,0.016,7.696,0.109,11.293,0.328c3.597,0.219,7.085,0.144,10.572-0.089s7.037-0.661,10.78-1.083
					c3.743-0.422,7.484-0.72,11.339-0.795c3.855-0.075,7.822,0.069,11.905,0.437c4.083,0.368,8.279,0.959,12.511,1.722
					c4.232,0.762,8.5,1.695,12.671,2.721c4.171,1.026,7.504,2.02,10.984,3.432c3.481,1.414,6.762,3.06,9.688,4.501
					c2.926,1.44,5.527,2.712,8.015,3.777c2.488,1.065,4.867,1.925,7.299,2.476c2.432,0.551,4.924,0.792,7.48,0.539
					c2.557-0.252,5.179-1.005,7.654-2.466c2.476-1.46,4.42-3.563,5.74-5.885"></path>
				<path class="st0" d="M30.437,164.427c4.095-0.009,8.305-0.099,12.376-0.186s8.122-0.144,12.061-0.126
					c3.939,0.018,7.766,0.112,11.389,0.332c3.622,0.22,7.25,0.355,10.897,0.274c3.647-0.081,7.402-0.33,11.37-0.565
					c3.968-0.236,7.938-0.356,12-0.279c4.061,0.077,8.212,0.348,12.441,0.811c4.229,0.463,8.534,1.116,12.83,1.903
					c4.297,0.788,8.583,1.708,12.724,2.681c4.141,0.973,7.398,1.766,10.723,2.997c3.324,1.231,6.426,2.691,9.172,3.955
					c2.746,1.264,5.165,2.368,7.466,3.28c2.301,0.912,4.49,1.633,6.734,2.073c2.244,0.44,4.551,0.598,6.944,0.311
					c2.393-0.287,4.874-1.026,7.256-2.405c2.382-1.379,4.498-3.413,5.874-5.7"></path>
				<path class="st0" d="M29.762,166.112c4.133,0.021,8.392-0.05,12.515-0.125c4.123-0.074,8.229-0.126,12.223-0.105
					c3.994,0.021,7.875,0.113,11.543,0.332c3.669,0.219,7.385,0.535,11.182,0.604c3.796,0.069,7.745-0.006,11.929-0.06
					c4.184-0.054,8.378-0.001,12.643,0.225c4.266,0.227,8.602,0.625,12.982,1.184c4.381,0.559,8.804,1.278,13.179,2.097
					c4.374,0.819,8.698,1.737,12.831,2.667c4.132,0.931,7.398,1.58,10.594,2.639c3.196,1.059,6.144,2.346,8.737,3.444
					c2.593,1.099,4.857,2.046,6.996,2.814c2.14,0.768,4.161,1.356,6.237,1.686c2.076,0.331,4.215,0.402,6.456,0.068
					c2.242-0.333,4.589-1.078,6.875-2.407c2.287-1.329,4.511-3.287,5.948-5.544"></path>
				<path class="st0" d="M28.746,167.8c4.178,0.057,8.497,0.01,12.683-0.049c4.186-0.059,8.362-0.102,12.426-0.078
					c4.064,0.024,8.016,0.116,11.75,0.333c3.733,0.217,7.483,0.664,11.412,0.877c3.929,0.213,8.057,0.305,12.444,0.427
					c4.387,0.122,8.797,0.344,13.263,0.718c2.233,0.187,4.479,0.411,6.736,0.672c2.256,0.261,4.522,0.558,6.792,0.888
					c2.269,0.329,4.541,0.691,6.805,1.078c2.264,0.387,4.519,0.8,6.752,1.229c4.466,0.858,8.843,1.781,12.987,2.682
					c4.143,0.9,7.488,1.464,10.586,2.364c3.097,0.9,5.918,2.025,8.387,2.972c2.469,0.947,4.604,1.751,6.609,2.385
					c2.005,0.634,3.884,1.098,5.815,1.321c1.931,0.223,3.921,0.206,6.027-0.184c2.105-0.39,4.329-1.158,6.526-2.463
					c2.197-1.305,4.469-3.196,5.972-5.43"></path>
				<path class="st0" d="M27.445,169.499c4.229,0.099,8.614,0.081,12.873,0.043c4.259-0.039,8.517-0.072,12.664-0.043
					c4.148,0.029,8.185,0.121,11.999,0.337c3.814,0.215,7.55,0.731,11.589,1.079c4.039,0.348,8.325,0.598,12.899,0.887
					c2.287,0.144,4.583,0.312,6.89,0.51c2.308,0.198,4.627,0.425,6.958,0.685c2.331,0.261,4.672,0.553,7.019,0.877
					c2.347,0.323,4.7,0.678,7.049,1.059c2.349,0.381,4.696,0.787,7.026,1.212c2.33,0.425,4.645,0.868,6.928,1.32
					c4.567,0.904,9.013,1.842,13.182,2.722c4.169,0.88,7.644,1.408,10.674,2.165c3.03,0.757,5.753,1.736,8.125,2.547
					c2.373,0.811,4.412,1.487,6.312,1.999s3.666,0.861,5.479,0.982s3.68,0.015,5.67-0.439c1.99-0.453,4.108-1.259,6.226-2.564
					c2.118-1.305,4.39-3.151,5.961-5.372"></path>
				<path class="st0" d="M25.918,171.219c4.283,0.148,8.742,0.163,13.081,0.148c4.339-0.016,8.688-0.035,12.93,0.001
					c4.242,0.037,8.377,0.129,12.283,0.344c3.907,0.214,7.601,0.735,11.722,1.204c4.121,0.469,8.54,0.863,13.277,1.307
					c2.369,0.223,4.753,0.468,7.151,0.741c2.398,0.273,4.81,0.575,7.232,0.905c2.422,0.33,4.854,0.689,7.288,1.074
					c2.434,0.385,4.871,0.796,7.3,1.227c2.428,0.431,4.848,0.882,7.246,1.345c2.398,0.463,4.773,0.938,7.109,1.414
					c2.336,0.476,4.634,0.954,6.873,1.42c2.239,0.467,4.42,0.922,6.522,1.355c4.203,0.864,7.825,1.39,10.819,2.023
					c2.994,0.633,5.647,1.484,7.956,2.176c2.309,0.693,4.282,1.257,6.109,1.662c1.827,0.404,3.512,0.651,5.238,0.677
					c1.726,0.026,3.499-0.167,5.401-0.69c1.902-0.523,3.936-1.379,5.992-2.705c2.055-1.327,4.299-3.157,5.939-5.38"></path>
				<path class="st0" d="M24.229,172.965c4.338,0.203,8.873,0.257,13.297,0.269c4.425,0.011,8.87,0.009,13.213,0.055
					c4.343,0.047,8.583,0.142,12.59,0.357c4.008,0.215,7.658,0.688,11.828,1.261c2.085,0.286,4.257,0.56,6.517,0.836
					c2.261,0.275,4.61,0.552,7.047,0.845c2.437,0.293,4.897,0.609,7.375,0.953c2.478,0.343,4.973,0.714,7.479,1.109
					c2.506,0.396,5.022,0.818,7.538,1.261c2.516,0.444,5.033,0.909,7.536,1.39c2.504,0.48,4.995,0.975,7.457,1.476
					c2.463,0.501,4.897,1.007,7.286,1.507c2.388,0.5,4.73,0.995,7.006,1.472c2.275,0.476,4.484,0.934,6.604,1.359
					c4.24,0.851,7.997,1.388,10.985,1.917c2.989,0.529,5.603,1.272,7.879,1.865c2.276,0.592,4.217,1.064,6.004,1.377
					c1.787,0.312,3.424,0.469,5.096,0.409c1.671-0.06,3.383-0.337,5.226-0.931c1.843-0.594,3.82-1.51,5.835-2.875
					c2.014-1.365,4.222-3.206,5.93-5.447"></path>
				<path class="st0" d="M22.445,174.741c4.134,0.249,8.476,0.355,12.718,0.399c4.242,0.045,8.52,0.063,12.725,0.111
					c4.206,0.048,8.338,0.126,12.284,0.296c3.946,0.169,7.438,0.276,11.227,0.905c3.789,0.63,7.677,1.254,12.287,1.869
					c2.305,0.308,4.644,0.636,7.007,0.988c2.364,0.352,4.753,0.727,7.16,1.124c2.407,0.398,4.831,0.818,7.263,1.258
					c2.432,0.44,4.872,0.901,7.309,1.376c2.437,0.475,4.871,0.966,7.288,1.464c2.418,0.498,4.82,1.004,7.191,1.509
					c2.371,0.505,4.712,1.009,7.005,1.502c2.294,0.493,4.54,0.975,6.721,1.434c4.363,0.919,8.466,1.748,12.149,2.391
					c3.683,0.642,6.54,0.901,9.112,1.411c2.571,0.509,4.811,1.09,6.782,1.505c1.971,0.414,3.688,0.716,5.304,0.865
					c1.615,0.15,3.133,0.15,4.698-0.055c1.565-0.204,3.183-0.613,4.917-1.31c1.734-0.698,3.586-1.688,5.469-3.07
					c1.882-1.382,3.931-3.169,5.604-5.31"></path>
				<path class="st0" d="M20.634,176.552c4.181,0.314,8.591,0.468,12.912,0.55c4.32,0.081,8.69,0.126,12.992,0.193
					c4.302,0.068,8.538,0.158,12.584,0.337c4.046,0.179,7.903,0.447,11.444,0.874c3.541,0.427,7.605,1.349,12.255,2.059
					c2.325,0.354,4.696,0.733,7.1,1.137c2.404,0.404,4.841,0.833,7.3,1.284c2.459,0.451,4.94,0.925,7.431,1.417
					c2.491,0.492,4.991,1.002,7.488,1.524c2.496,0.522,4.989,1.056,7.463,1.593c2.474,0.538,4.929,1.079,7.35,1.614
					c2.421,0.535,4.806,1.065,7.139,1.577c2.333,0.512,4.613,1.007,6.82,1.473c4.416,0.933,8.544,1.749,12.215,2.345
					c3.67,0.597,6.644,0.83,9.253,1.282c2.608,0.452,4.87,0.973,6.871,1.333c2.001,0.36,3.748,0.608,5.387,0.701
					c1.639,0.094,3.173,0.033,4.748-0.234c1.576-0.268,3.198-0.743,4.936-1.506c1.738-0.763,3.594-1.816,5.486-3.254
					c1.892-1.438,3.942-3.271,5.682-5.458"></path>
				<path class="st0" d="M18.866,178.401c4.225,0.384,8.699,0.594,13.094,0.718c4.396,0.125,8.853,0.201,13.249,0.294
					c4.396,0.093,8.731,0.201,12.873,0.396c4.143,0.195,8.094,0.476,11.719,0.918c3.625,0.442,7.45,1.352,12.103,2.135
					c2.326,0.392,4.711,0.813,7.139,1.261c2.427,0.448,4.897,0.923,7.393,1.421c2.497,0.498,5.021,1.019,7.557,1.556
					c2.536,0.538,5.084,1.092,7.628,1.655c2.544,0.563,5.084,1.136,7.604,1.708c2.519,0.572,5.018,1.144,7.477,1.705
					c2.46,0.561,4.88,1.111,7.242,1.639c2.362,0.527,4.666,1.032,6.891,1.5c4.45,0.936,8.584,1.731,12.223,2.272
					c3.639,0.541,6.687,0.739,9.362,1.156c2.674,0.417,4.987,0.899,7.05,1.226c2.063,0.326,3.872,0.539,5.567,0.591
					c1.695,0.052,3.281-0.055,4.902-0.376c1.62-0.321,3.281-0.857,5.055-1.682c1.774-0.826,3.664-1.944,5.593-3.445
					c1.929-1.5,4.01-3.389,5.821-5.637"></path>
				<path class="st0" d="M17.21,180.292c4.263,0.46,8.796,0.73,13.262,0.904c4.466,0.173,9.006,0.288,13.49,0.413
					c4.484,0.124,8.911,0.258,13.143,0.476c4.232,0.217,8.269,0.519,11.968,0.983c3.699,0.465,7.298,1.341,11.914,2.179
					c2.308,0.419,4.689,0.873,7.121,1.356c2.432,0.483,4.917,0.996,7.434,1.533c2.518,0.536,5.068,1.097,7.634,1.673
					c2.566,0.576,5.146,1.168,7.723,1.766c2.577,0.598,5.15,1.203,7.701,1.804c2.551,0.601,5.078,1.197,7.563,1.778
					c2.485,0.58,4.927,1.145,7.305,1.681c2.378,0.536,4.653,0.996,6.856,1.425c4.405,0.859,8.493,1.562,12.138,2.061
					c3.645,0.499,6.757,0.615,9.464,0.923c2.707,0.308,5.071,0.762,7.239,1.147c2.168,0.385,4.126,0.724,5.947,0.819
					c1.821,0.095,3.478-0.082,5.179-0.446c1.701-0.364,3.437-0.952,5.281-1.837c1.844-0.885,3.8-2.069,5.794-3.638
					c1.994-1.569,4.143-3.52,6.028-5.843"></path>
				<path class="st0" d="M15.719,182.255c4.298,0.54,8.885,0.877,13.415,1.105c2.265,0.114,4.551,0.211,6.842,0.299
					c2.291,0.089,4.586,0.169,6.867,0.251c4.563,0.163,9.073,0.33,13.383,0.579c4.31,0.249,8.42,0.581,12.178,1.079
					c3.758,0.498,7.155,1.335,11.695,2.207c2.27,0.436,4.627,0.912,7.046,1.421c2.419,0.509,4.899,1.051,7.42,1.618
					c2.52,0.567,5.08,1.158,7.658,1.764c2.578,0.606,5.174,1.24,7.766,1.848c2.592,0.608,5.168,1.204,7.711,1.78
					c2.543,0.576,5.052,1.131,7.512,1.66c2.46,0.529,4.872,1.03,7.221,1.5c2.349,0.47,4.636,0.908,6.847,1.311
					c4.422,0.806,8.545,1.471,12.247,1.96c3.702,0.49,6.874,0.549,9.618,0.78c2.743,0.232,5.161,0.687,7.412,1.131
					c2.251,0.444,4.316,0.894,6.267,1.108c1.951,0.213,3.808,0.142,5.571-0.273c1.785-0.42,3.669-1.029,5.619-1.97
					c1.95-0.94,4.007-2.19,6.096-3.83c2.089-1.639,4.342-3.659,6.306-6.071"></path>
				<path class="st0" d="M14.43,184.349c2.165,0.312,4.405,0.57,6.679,0.785c2.274,0.215,4.582,0.388,6.876,0.531
					c2.294,0.143,4.612,0.268,6.936,0.382c2.324,0.115,4.653,0.219,6.97,0.323s4.62,0.209,6.891,0.323
					c2.271,0.115,4.51,0.239,6.697,0.384c4.374,0.29,8.54,0.662,12.339,1.205c3.799,0.543,7.017,1.35,11.439,2.234
					c2.211,0.441,4.509,0.924,6.921,1.46c2.412,0.536,4.896,1.099,7.416,1.673c2.52,0.574,5.076,1.157,7.642,1.737
					c2.566,0.58,5.14,1.156,7.702,1.719c2.562,0.562,5.112,1.111,7.631,1.639c2.519,0.528,5.009,1.034,7.453,1.515
					c2.444,0.481,4.844,0.936,7.185,1.362c2.341,0.426,4.624,0.823,6.836,1.189c4.424,0.732,8.566,1.339,12.308,1.803
					c3.742,0.464,6.967,0.484,9.748,0.67c2.781,0.186,5.255,0.675,7.589,1.208c2.335,0.533,4.508,1.12,6.59,1.476
					c2.082,0.356,4.071,0.467,6.03,0.123c1.958-0.344,3.882-1.155,5.978-2.147c2.096-0.992,4.29-2.307,6.506-4.02
					c2.216-1.713,4.605-3.809,6.652-6.322"></path>
				<path class="st0" d="M13.385,186.525c4.116,0.671,8.537,1.142,12.907,1.483c4.37,0.341,8.84,0.603,13.278,0.854
					s8.846,0.49,13.084,0.79c4.238,0.3,8.307,0.661,12.066,1.16c3.758,0.499,6.862,1.151,10.488,1.945
					c3.626,0.793,8.051,1.69,12.604,2.668c2.276,0.489,4.606,0.991,6.963,1.494c2.356,0.503,4.74,1.007,7.129,1.503
					c2.389,0.496,4.784,0.983,7.167,1.455c2.383,0.472,4.755,0.93,7.1,1.368c2.346,0.438,4.666,0.857,6.949,1.254
					c2.283,0.397,4.528,0.772,6.725,1.124c4.393,0.704,8.594,1.314,12.515,1.829c3.921,0.515,7.564,0.934,10.818,1.248
					c3.254,0.314,5.869,0.052,8.36,0.435c2.49,0.382,4.81,1.006,7.027,1.65c2.217,0.643,4.329,1.294,6.392,1.674
					c2.063,0.381,4.077,0.481,6.09,0.12c2.013-0.361,4.072-1.344,6.07-2.432c2.023-1.101,4.419-2.413,6.663-4.144
					c2.244-1.731,4.65-3.807,6.669-6.287"></path>
				<path class="st0" d="M12.578,188.78c4.141,0.757,8.599,1.305,13.009,1.714c4.41,0.409,8.924,0.735,13.404,1.048
					c4.48,0.312,8.972,0.572,13.193,0.972c4.199,0.399,8.278,0.906,12.016,1.423c3.738,0.516,6.863,1.062,10.414,1.829
					c3.552,0.767,7.883,1.603,12.346,2.495c2.232,0.446,4.517,0.899,6.83,1.349c2.313,0.45,4.654,0.897,7.002,1.332
					c2.348,0.436,4.703,0.86,7.049,1.269c2.346,0.408,4.683,0.801,6.996,1.173c2.314,0.373,4.604,0.728,6.86,1.061
					c2.256,0.334,4.477,0.648,6.654,0.941c4.353,0.587,8.526,1.093,12.434,1.526c3.909,0.433,7.556,0.794,10.833,1.085
					c3.277,0.291,5.914,0.011,8.451,0.461c2.537,0.45,4.928,1.206,7.236,2.007c2.308,0.8,4.531,1.634,6.725,2.187
					c2.194,0.553,4.36,0.816,6.544,0.574c2.185-0.242,4.39-0.998,6.642-2.236c2.251-1.238,4.642-2.771,7.07-4.572
					c2.428-1.8,4.997-3.961,7.109-6.556"></path>
				<path class="st0" d="M12.002,191.111c4.163,0.846,8.653,1.476,13.095,1.96c2.221,0.243,4.468,0.463,6.724,0.672
					c2.256,0.208,4.55,0.378,6.774,0.596c4.429,0.434,8.873,0.966,13.079,1.423c4.205,0.457,8.223,0.9,11.947,1.363
					c3.724,0.464,6.864,0.909,10.345,1.631c3.481,0.723,7.719,1.479,12.09,2.266c2.185,0.393,4.424,0.788,6.691,1.176
					c2.267,0.387,4.562,0.767,6.866,1.133c2.304,0.366,4.616,0.719,6.921,1.054c2.305,0.336,4.602,0.654,6.879,0.954
					c4.554,0.6,9.024,1.125,13.325,1.581c4.301,0.456,8.435,0.846,12.32,1.187c3.885,0.341,7.524,0.636,10.811,0.896
					c3.287,0.26,5.947,0.007,8.532,0.557c2.585,0.551,5.046,1.465,7.443,2.445c2.397,0.98,4.73,2.015,7.054,2.756
					c2.323,0.741,4.638,1.179,6.991,1.066c2.354-0.113,4.748-0.784,7.206-2.008c2.458-1.224,4.924-3.077,7.569-4.943
					c2.645-1.866,5.379-4.122,7.594-6.838"></path>
				<path class="st0" d="M11.65,193.513c4.184,0.94,8.7,1.658,13.165,2.226c4.465,0.568,8.964,1.257,13.384,1.822
					c4.42,0.565,8.766,1.066,12.934,1.519s8.159,0.857,11.864,1.253c3.705,0.397,6.853,0.727,10.267,1.389
					c3.413,0.662,7.557,1.319,11.833,1.982c4.276,0.664,8.756,1.307,13.269,1.884c2.256,0.288,4.522,0.561,6.783,0.816
					c2.26,0.255,4.514,0.492,6.751,0.712c4.472,0.44,8.869,0.808,13.109,1.124c4.24,0.315,8.325,0.579,12.177,0.821
					c3.852,0.241,7.472,0.463,10.757,0.687c3.286,0.225,5.971,0.047,8.605,0.728c2.633,0.681,5.163,1.778,7.648,2.957
					c2.485,1.179,4.924,2.43,7.373,3.372s4.909,1.564,7.427,1.59c2.518,0.026,5.096-0.553,7.757-1.756
					c2.661-1.203,5.408-3.031,8.194-5.147c2.787-2.116,5.723-4.398,8.052-7.241"></path>
				<path class="st0" d="M11.515,195.981c4.201,1.039,8.737,1.939,13.117,2.75c4.381,0.81,8.799,1.531,13.157,2.149
					c4.358,0.617,8.654,1.131,12.782,1.563c4.128,0.432,8.088,0.782,11.769,1.096s6.828,0.527,10.176,1.111
					c3.348,0.584,7.398,1.124,11.577,1.648c4.179,0.524,8.556,1.005,12.969,1.413c4.413,0.408,8.865,0.743,13.248,1.012
					c4.383,0.269,8.7,0.472,12.871,0.639c4.172,0.167,8.2,0.299,12.01,0.436c3.809,0.138,7.402,0.282,10.677,0.468
					c3.275,0.186,5.992,0.14,8.674,0.976c2.682,0.837,5.278,2.136,7.848,3.53c2.569,1.394,5.111,2.873,7.682,4.024
					c2.57,1.151,5.169,1.965,7.845,2.135c2.676,0.17,5.432-0.311,8.288-1.486c2.856-1.175,5.816-3.045,8.829-5.285
					c3.014-2.24,6.103-4.687,8.557-7.659"></path>
				<path class="st0" d="M11.58,198.557c4.177,1.276,8.564,2.416,12.859,3.341c4.294,0.925,8.639,1.719,12.934,2.371
					c4.295,0.652,8.539,1.163,12.624,1.559c4.085,0.395,8.01,0.676,11.663,0.893c3.652,0.217,6.784,0.317,10.069,0.807
					c3.285,0.491,7.238,0.897,11.318,1.267c4.079,0.37,8.35,0.677,12.659,0.905c4.309,0.228,8.658,0.378,12.947,0.468
					c4.289,0.09,8.519,0.122,12.616,0.136c4.097,0.014,8.061,0.011,11.821,0.042c3.76,0.031,7.317,0.098,10.575,0.244
					c3.258,0.147,6.012,0.292,8.742,1.307c2.73,1.015,5.391,2.533,8.041,4.153c2.65,1.621,5.29,3.335,7.975,4.701
					c2.685,1.366,5.416,2.374,8.242,2.693c2.826,0.319,5.75-0.061,8.792-1.202c3.041-1.142,6.204-3.048,9.434-5.403
					c3.23-2.355,6.517-4.941,9.108-8.044"></path>
				<path class="st0" d="M11.694,201.387c4.058,1.47,8.345,2.753,12.554,3.775c4.21,1.021,8.481,1.87,12.713,2.539
					c4.232,0.67,8.423,1.16,12.463,1.503c4.04,0.343,7.927,0.541,11.548,0.649c3.62,0.108,6.717,0.105,9.94,0.486
					c3.222,0.382,7.079,0.643,11.057,0.848c3.978,0.205,8.139,0.328,12.341,0.368c4.202,0.04,8.445-0.001,12.635-0.093
					c4.191-0.092,8.329-0.234,12.346-0.374c4.017-0.14,7.913-0.277,11.618-0.352c3.706-0.074,7.222-0.084,10.457,0.025
					c3.234,0.109,6.036,0.508,8.812,1.718c2.776,1.21,5.498,2.956,8.225,4.81c2.727,1.854,5.457,3.807,8.249,5.39
					c2.792,1.583,5.646,2.787,8.613,3.256c2.967,0.469,6.047,0.194,9.262-0.909c3.214-1.103,6.567-3.038,9.999-5.499
					c3.433-2.461,6.892-5.25,9.663-8.436"></path>
				<path class="st0" d="M11.812,204.34c3.944,1.645,8.135,3.049,12.263,4.148c4.127,1.099,8.327,1.984,12.496,2.653
					c4.169,0.669,8.306,1.124,12.298,1.402c3.992,0.277,7.84,0.378,11.424,0.368c3.584-0.011,6.624-0.103,9.785,0.158
					c3.161,0.261,6.92,0.366,10.794,0.398c3.875,0.032,7.925-0.035,12.016-0.186c4.091-0.151,8.225-0.386,12.314-0.66
					c4.088-0.275,8.133-0.589,12.066-0.881c3.933-0.292,7.757-0.561,11.404-0.736c3.647-0.176,7.165-0.143,10.322-0.193
					c3.157-0.05,6.068,0.798,8.888,2.214c2.819,1.416,5.599,3.395,8.395,5.484c2.797,2.089,5.61,4.279,8.5,6.078
					c2.89,1.798,5.856,3.196,8.951,3.817c3.095,0.62,6.319,0.452,9.692-0.607c3.373-1.059,6.899-3.013,10.518-5.57
					c3.618-2.556,7.234-5.476,10.187-8.795"></path>
				<path class="st0" d="M11.952,207.383c3.836,1.798,7.937,3.303,11.985,4.46c4.047,1.157,8.176,2.061,12.282,2.715
					c4.106,0.654,8.188,1.058,12.13,1.259c3.943,0.2,7.746,0.196,11.29,0.059c3.544-0.138,6.501-0.298,9.6-0.168
					c3.099,0.13,6.758,0.073,10.528-0.072c3.77-0.145,7.707-0.403,11.687-0.746c3.979-0.342,8.002-0.768,11.987-1.223
					c3.984-0.454,7.931-0.936,11.778-1.375c3.847-0.439,7.595-0.833,11.18-1.106c3.585-0.273,7.018-0.471,10.182-0.379
					c3.164,0.092,6.1,1.13,8.96,2.757c2.859,1.627,5.69,3.84,8.549,6.162c2.859,2.322,5.747,4.744,8.723,6.755
					c2.977,2.011,6.043,3.6,9.252,4.372c3.209,0.771,6.562,0.713,10.077-0.294c3.516-1.007,7.198-2.97,10.984-5.607
					c1.893-1.319,3.822-2.744,5.619-4.251s3.496-3.14,5.062-4.858"></path>
				<path class="st0" d="M12.133,210.474c3.734,1.933,7.748,3.521,11.716,4.722c3.969,1.2,8.027,2.109,12.068,2.735
					c4.041,0.627,8.065,0.971,11.955,1.086c3.89,0.115,7.645,0,11.144-0.269c3.499-0.267,6.343-0.474,9.378-0.481
					c3.035-0.006,6.592-0.23,10.255-0.554c3.663-0.324,7.484-0.773,11.348-1.305c3.864-0.531,7.772-1.145,11.649-1.773
					c3.877-0.629,7.723-1.273,11.48-1.852c3.757-0.579,7.426-1.093,10.945-1.456c3.52-0.363,6.871-0.757,10.039-0.512
					c3.168,0.245,6.126,1.478,9.019,3.318c2.893,1.84,5.767,4.284,8.678,6.838c2.912,2.553,5.863,5.206,8.914,7.43
					c3.051,2.224,6.204,4.008,9.512,4.938c3.308,0.93,6.773,0.994,10.414,0.054c3.641-0.941,7.462-2.891,11.398-5.59
					c1.968-1.349,3.967-2.817,5.841-4.371c1.875-1.554,3.658-3.235,5.313-5.003"></path>
				<path class="st0" d="M12.379,213.57c3.638,2.045,7.568,3.695,11.46,4.922c3.892,1.227,7.879,2.125,11.855,2.712
					c3.976,0.586,7.939,0.862,11.772,0.884c3.833,0.022,7.536-0.209,10.986-0.608c3.45-0.399,6.149-0.626,9.12-0.773
					c2.971-0.147,6.425-0.535,9.981-1.034c3.556-0.499,7.261-1.132,11.011-1.844c3.749-0.712,7.544-1.502,11.314-2.295
					c3.77-0.793,7.517-1.587,11.184-2.296c3.667-0.708,7.257-1.33,10.711-1.774c3.454-0.445,6.734-0.987,9.903-0.588
					c3.17,0.399,6.144,1.821,9.065,3.865c2.921,2.044,5.829,4.707,8.783,7.478c2.954,2.771,5.955,5.64,9.066,8.065
					c3.111,2.425,6.333,4.396,9.722,5.481c3.388,1.086,6.945,1.276,10.69,0.413c3.744-0.863,7.68-2.786,11.74-5.523
					c2.03-1.368,4.091-2.874,6.037-4.466c1.946-1.592,3.808-3.312,5.547-5.122"></path>
				<path class="st0" d="M12.715,216.622c3.547,2.135,7.397,3.829,11.213,5.066c3.816,1.238,7.732,2.114,11.641,2.651
					c3.909,0.537,7.81,0.736,11.583,0.662c3.774-0.074,7.42-0.421,10.815-0.95c3.395-0.529,5.919-0.748,8.826-1.034
					c2.907-0.286,6.261-0.835,9.712-1.501c3.451-0.666,7.043-1.473,10.681-2.354c3.638-0.881,7.322-1.835,10.988-2.777
					c3.666-0.942,7.315-1.872,10.895-2.696c3.58-0.824,7.093-1.541,10.482-2.054c3.389-0.514,6.609-1.157,9.775-0.607
					c3.166,0.55,6.15,2.151,9.092,4.385c2.941,2.234,5.873,5.097,8.857,8.068c2.984,2.97,6.021,6.038,9.175,8.65
					c3.155,2.612,6.429,4.758,9.878,5.995c3.449,1.237,7.077,1.555,10.901,0.778c3.825-0.777,7.85-2.654,12.009-5.407
					c2.079-1.376,4.194-2.916,6.204-4.537c2.01-1.621,3.943-3.371,5.759-5.215"></path>
				<path class="st0" d="M13.172,219.632c3.461,2.205,7.233,3.922,10.974,5.155c3.741,1.232,7.585,2.073,11.425,2.551
					c3.84,0.477,7.674,0.594,11.385,0.42c3.71-0.173,7.295-0.636,10.63-1.292c3.335-0.657,5.65-0.836,8.496-1.26
					c2.846-0.424,6.101-1.124,9.45-1.947c3.349-0.823,6.833-1.791,10.363-2.826c3.53-1.035,7.108-2.136,10.673-3.211
					c3.566-1.075,7.121-2.124,10.617-3.047c3.496-0.923,6.933-1.719,10.259-2.29c3.326-0.57,6.496-1.267,9.653-0.574
					c3.157,0.693,6.144,2.462,9.096,4.869c2.952,2.407,5.896,5.45,8.898,8.6c3.001,3.149,6.059,6.395,9.241,9.177
					c3.182,2.782,6.489,5.091,9.98,6.473c3.491,1.382,7.167,1.827,11.049,1.145c3.882-0.683,7.974-2.499,12.206-5.244
					c2.116-1.372,4.275-2.941,6.34-4.584c2.065-1.643,4.062-3.416,5.948-5.286"></path>
				<path class="st0" d="M13.759,222.591c3.377,2.252,7.073,3.974,10.739,5.187c3.666,1.212,7.437,2.005,11.205,2.415
					c3.768,0.41,7.534,0.438,11.176,0.162c3.642-0.275,7.16-0.853,10.43-1.632c3.27-0.779,5.344-0.888,8.132-1.444
					c2.787-0.557,5.948-1.4,9.2-2.368c3.252-0.968,6.632-2.082,10.059-3.254c3.428-1.172,6.904-2.403,10.375-3.592
					c3.471-1.19,6.937-2.338,10.352-3.343c3.415-1.004,6.78-1.864,10.045-2.477c3.265-0.613,6.395-1.32,9.535-0.494
					c3.141,0.826,6.124,2.744,9.076,5.303c2.952,2.56,5.898,5.759,8.902,9.064c3.005,3.304,6.068,6.705,9.261,9.638
					c3.192,2.933,6.515,5.389,10.027,6.908c3.512,1.518,7.217,2.089,11.133,1.508c3.917-0.581,8.051-2.322,12.332-5.037
					c2.141-1.358,4.332-2.947,6.443-4.605c2.111-1.659,4.163-3.448,6.112-5.337"></path>
				<path class="st0" d="M14.476,225.414c3.296,2.282,6.917,3.995,10.507,5.176c3.59,1.182,7.286,1.92,10.981,2.258
					c3.695,0.338,7.389,0.278,10.959-0.096s7.018-1.059,10.218-1.952c3.2-0.893,5.012-0.899,7.743-1.579
					c2.732-0.68,5.803-1.651,8.965-2.746c3.162-1.095,6.444-2.335,9.777-3.623c3.332-1.288,6.715-2.626,10.098-3.908
					c3.383-1.282,6.766-2.51,10.107-3.576c3.341-1.066,6.639-1.971,9.847-2.611c3.207-0.64,6.304-1.322,9.422-0.38
					c3.117,0.942,6.087,2.987,9.028,5.673c2.941,2.686,5.875,6.014,8.868,9.447c2.993,3.433,6.046,6.963,9.231,10.025
					c3.185,3.063,6.503,5.649,10.015,7.294c3.513,1.645,7.223,2.339,11.151,1.865c3.929-0.474,8.081-2.122,12.388-4.785
					c2.154-1.331,4.364-2.927,6.511-4.596c2.147-1.668,4.244-3.467,6.247-5.368"></path>
				<path class="st0" d="M15.332,228.082c3.216,2.298,6.762,3.987,10.274,5.13c3.513,1.144,7.132,1.822,10.751,2.087
					c3.619,0.265,7.237,0.118,10.733-0.349c3.496-0.467,6.869-1.253,9.995-2.247c3.126-0.995,4.658-0.869,7.338-1.659
					c2.68-0.79,5.669-1.871,8.747-3.074c3.078-1.203,6.273-2.546,9.519-3.927c3.246-1.382,6.544-2.802,9.847-4.154
					s6.612-2.635,9.884-3.743c3.273-1.108,6.51-2.04,9.665-2.692c3.154-0.652,6.224-1.282,9.31-0.245
					c3.087,1.037,6.032,3.183,8.951,5.969c2.919,2.785,5.827,6.211,8.794,9.744c2.966,3.533,5.992,7.164,9.151,10.334
					c3.159,3.17,6.453,5.868,9.945,7.629c3.493,1.761,7.187,2.575,11.105,2.214c3.919-0.362,8.066-1.905,12.376-4.494
					c2.155-1.294,4.369-2.878,6.541-4.55c2.173-1.672,4.305-3.475,6.353-5.383"></path>
				<path class="st0" d="M16.332,230.579c3.136,2.299,6.605,3.955,10.038,5.054c3.434,1.099,6.974,1.714,10.515,1.906
					c3.54,0.192,7.08-0.037,10.497-0.591c3.418-0.553,7.514-2.069,9.578-2.373c2.064-0.304,4.472-0.935,7.107-1.82
					c2.635-0.886,5.547-2.056,8.55-3.345c3.003-1.289,6.119-2.711,9.289-4.162c3.169-1.45,6.393-2.928,9.625-4.326
					c3.233-1.397,6.475-2.713,9.688-3.841c3.212-1.128,6.395-2.068,9.501-2.718c3.106-0.65,6.15-1.21,9.198-0.1
					c3.048,1.109,5.96,3.327,8.844,6.181c2.884,2.854,5.752,6.346,8.676,9.947c1.462,1.801,2.939,3.628,4.439,5.411
					c1.5,1.783,3.024,3.521,4.582,5.147c3.115,3.252,6.365,6.043,9.818,7.907c3.452,1.864,7.108,2.793,10.995,2.546
					c3.886-0.246,8.007-1.673,12.296-4.168c2.145-1.247,4.345-2.791,6.531-4.463c2.186-1.671,4.344-3.473,6.426-5.383"></path>
				<path class="st0" d="M17.479,232.893c3.054,2.288,6.444,3.903,9.796,4.953c3.352,1.05,6.81,1.601,10.269,1.722
					c3.459,0.121,6.917-0.185,10.252-0.816c3.336-0.631,6.914-1.934,8.981-2.319c2.067-0.384,4.452-1.1,7.046-2.064
					c2.595-0.964,5.44-2.203,8.378-3.553c2.938-1.351,5.986-2.828,9.09-4.321c3.103-1.493,6.262-3.003,9.435-4.42
					c3.172-1.417,6.358-2.742,9.518-3.87c3.16-1.127,6.294-2.056,9.356-2.689c3.062-0.633,6.081-1.116,9.081,0.04
					c3,1.155,5.867,3.415,8.703,6.305c2.836,2.89,5.65,6.414,8.517,10.053c1.433,1.82,2.88,3.667,4.35,5.472
					c1.47,1.805,2.963,3.568,4.49,5.223c3.053,3.309,6.241,6.171,9.632,8.124c3.391,1.953,6.989,2.988,10.822,2.857
					c3.832-0.13,7.904-1.431,12.152-3.815c2.124-1.192,4.291-2.648,6.479-4.321c2.188-1.674,4.36-3.47,6.466-5.377"></path>
				<path class="st0" d="M18.771,235.014c2.969,2.267,6.278,3.835,9.545,4.832c3.267,0.998,6.641,1.485,10.015,1.539
					c3.374,0.055,6.747-0.322,9.999-1.02c3.251-0.698,6.301-1.75,8.373-2.205c2.072-0.455,4.439-1.239,7.001-2.263
					c2.562-1.023,5.35-2.305,8.234-3.693c2.884-1.388,5.875-2.892,8.924-4.401c3.049-1.509,6.155-3.024,9.278-4.436
					c3.122-1.412,6.262-2.722,9.377-3.827c3.116-1.105,6.208-2.005,9.232-2.606c3.023-0.601,6.014-1.01,8.956,0.163
					c2.943,1.173,5.754,3.443,8.529,6.334c2.775,2.892,5.52,6.415,8.313,10.058c2.793,3.644,5.635,7.402,8.608,10.741
					c2.973,3.339,6.079,6.25,9.39,8.276c3.311,2.026,6.829,3.158,10.587,3.142c3.758-0.016,7.759-1.186,11.946-3.444
					c2.094-1.129,4.232-2.525,6.394-4.145c2.162-1.619,4.344-3.439,6.462-5.34"></path>
				<path class="st0" d="M20.203,236.936c3.051,2.37,6.468,3.924,9.847,4.86c3.379,0.936,6.871,1.295,10.349,1.183
					c3.478-0.113,6.94-0.695,10.24-1.606c3.3-0.911,5.281-1.32,7.615-2.017c2.334-0.697,4.935-1.723,7.748-2.989
					c2.813-1.266,5.795-2.737,8.877-4.282c3.082-1.545,6.263-3.162,9.491-4.725c3.228-1.562,6.503-3.069,9.777-4.398
					c3.274-1.33,6.548-2.482,9.771-3.346c3.223-0.864,6.312-1.795,9.468-1.573c3.156,0.222,6.159,1.847,9.058,4.349
					c2.899,2.502,5.723,5.888,8.567,9.589c1.422,1.851,2.849,3.779,4.294,5.709c1.445,1.929,2.907,3.858,4.399,5.711
					c2.985,3.704,6.094,7.09,9.42,9.596c3.326,2.505,6.873,4.12,10.692,4.492s7.917-0.506,12.242-2.621
					c2.162-1.058,4.38-2.418,6.629-4.037s4.541-3.52,6.786-5.524"></path>
				<path class="st0" d="M21.769,238.656c2.954,2.334,6.277,3.828,9.559,4.708c3.282,0.88,6.679,1.178,10.061,1.009
					c3.383-0.169,6.75-0.803,9.956-1.757c3.206-0.954,4.732-1.052,7.071-1.789c2.339-0.736,4.934-1.792,7.717-3.058
					c2.783-1.267,5.732-2.725,8.782-4.244c3.05-1.519,6.2-3.097,9.398-4.61c3.198-1.512,6.444-2.959,9.69-4.224
					c3.246-1.265,6.492-2.349,9.686-3.147c3.194-0.798,6.296-1.581,9.373-1.39c3.077,0.191,6.001,1.767,8.812,4.203
					c2.811,2.437,5.538,5.743,8.275,9.372c1.369,1.815,2.74,3.709,4.127,5.607c1.387,1.899,2.791,3.801,4.223,5.633
					c2.865,3.664,5.848,7.036,9.049,9.566c3.2,2.531,6.621,4.21,10.319,4.683c3.698,0.474,7.679-0.266,11.898-2.231
					c2.109-0.982,4.277-2.265,6.48-3.811c2.203-1.546,4.446-3.369,6.678-5.361"></path>
				<path class="st0" d="M23.458,240.174c2.853,2.291,6.077,3.727,9.258,4.554c3.182,0.827,6.48,1.07,9.765,0.854
					c3.285-0.216,6.555-0.888,9.665-1.868s4.205-0.738,6.555-1.493c2.35-0.755,4.949-1.816,7.714-3.056
					c2.765-1.239,5.695-2.655,8.727-4.118s6.165-2.971,9.347-4.406c3.182-1.435,6.413-2.795,9.641-3.972
					c3.229-1.178,6.456-2.172,9.627-2.888c3.171-0.716,6.291-1.329,9.281-1.199c2.99,0.13,5.824,1.619,8.534,3.953
					c2.71,2.334,5.324,5.521,7.938,9.04c2.614,3.519,5.23,7.363,7.957,10.954c2.727,3.59,5.566,6.919,8.621,9.45
					c3.056,2.531,6.33,4.256,9.887,4.819c3.557,0.564,7.401-0.042,11.496-1.855c2.047-0.906,4.156-2.109,6.305-3.575
					c2.148-1.467,4.337-3.197,6.531-5.138"></path>
			</g>
		</g>
	</g>
</svg>