<svg id="Layer_1" data-name="Layer 1" xmlns="http://www.w3.org/2000/svg" xmlns:xlink="http://www.w3.org/1999/xlink" viewBox="0 0 288 336"><defs><style>.cls-1,.cls-2{fill:none;}.cls-1{clip-rule:evenodd;}.cls-3{clip-path:url(#clip-path);}.cls-4{clip-path:url(#clip-path-2);}.cls-5{isolation:isolate;}.cls-6{clip-path:url(#clip-path-3);}.cls-7{clip-path:url(#clip-path-4);}.cls-8{fill:#6831e4;}.cls-9{clip-path:url(#clip-path-6);}.cls-10{clip-path:url(#clip-path-8);}.cls-11{clip-path:url(#clip-path-9);}.cls-12{clip-path:url(#clip-path-11);}.cls-13{clip-path:url(#clip-path-13);}.cls-14{clip-path:url(#clip-path-14);}.cls-15{fill:#00d69e;}.cls-16{clip-path:url(#clip-path-16);}.cls-17{clip-path:url(#clip-path-18);}.cls-18{clip-path:url(#clip-path-19);}.cls-19{clip-path:url(#clip-path-21);}.cls-20{clip-path:url(#clip-path-23);}.cls-21{clip-path:url(#clip-path-24);}.cls-22{clip-path:url(#clip-path-26);}.cls-23{clip-path:url(#clip-path-28);}.cls-24{clip-path:url(#clip-path-29);}.cls-25{clip-path:url(#clip-path-31);}.cls-26{clip-path:url(#clip-path-33);}.cls-27{clip-path:url(#clip-path-34);}.cls-28{clip-path:url(#clip-path-36);}.cls-29{clip-path:url(#clip-path-38);}.cls-30{clip-path:url(#clip-path-39);}.cls-31{clip-path:url(#clip-path-41);}.cls-32{clip-path:url(#clip-path-43);}.cls-33{clip-path:url(#clip-path-44);}.cls-34{clip-path:url(#clip-path-46);}.cls-35{clip-path:url(#clip-path-48);}.cls-36{clip-path:url(#clip-path-49);}.cls-37{clip-path:url(#clip-path-51);}</style><clipPath id="clip-path" transform="translate(-112 -88)"><path class="cls-1" d="M200,256a56,56,0,0,0,112,0c0-1.68-.11-3.33-.25-5a8,8,0,0,1-3.75,1l-.2,0c.1,1.33.2,2.66.2,4a52.15,52.15,0,1,1-3.67-19.07A8,8,0,0,1,308,236l.27,0A56,56,0,0,0,200,256Z"/></clipPath><clipPath id="clip-path-2" transform="translate(-112 -88)"><rect class="cls-2" x="-1136" y="-1248" width="3200" height="3120"/></clipPath><clipPath id="clip-path-3" transform="translate(-112 -88)"><rect class="cls-2" x="200" y="200" width="112" height="112"/></clipPath><clipPath id="clip-path-4" transform="translate(-112 -88)"><rect class="cls-2" x="180" y="180" width="152" height="152"/></clipPath><clipPath id="clip-path-6" transform="translate(-112 -88)"><path class="cls-1" d="M251.3,168.13A11.85,11.85,0,0,1,252,172c0,.07,0,.14,0,.2,1.34-.06,2.66-.2,4-.2a84.29,84.29,0,1,1-27.09,4.57,11.92,11.92,0,0,1-.85-4A88,88,0,1,0,256,168C254.42,168,252.86,168,251.3,168.13Z"/></clipPath><clipPath id="clip-path-8" transform="translate(-112 -88)"><rect class="cls-2" x="168" y="168" width="176" height="176"/></clipPath><clipPath id="clip-path-9" transform="translate(-112 -88)"><rect class="cls-2" x="148" y="148" width="216" height="216"/></clipPath><clipPath id="clip-path-11" transform="translate(-112 -88)"><path class="cls-1" d="M236,256a20,20,0,1,1,20,20A20,20,0,0,1,236,256Zm-4,0a24,24,0,1,0,24-24A24,24,0,0,0,232,256Z"/></clipPath><clipPath id="clip-path-13" transform="translate(-112 -88)"><rect class="cls-2" x="232" y="232" width="48" height="48"/></clipPath><clipPath id="clip-path-14" transform="translate(-112 -88)"><rect class="cls-2" x="212" y="212" width="88" height="88"/></clipPath><clipPath id="clip-path-16" transform="translate(-112 -88)"><path class="cls-1" d="M304,244a4,4,0,1,1,4,4A4,4,0,0,1,304,244Zm-4,0a8,8,0,1,0,8-8A8,8,0,0,0,300,244Z"/></clipPath><clipPath id="clip-path-18" transform="translate(-112 -88)"><rect class="cls-2" x="300" y="236" width="16" height="16"/></clipPath><clipPath id="clip-path-19" transform="translate(-112 -88)"><rect class="cls-2" x="280" y="216" width="56" height="56"/></clipPath><clipPath id="clip-path-21" transform="translate(-112 -88)"><path class="cls-1" d="M232,172a8,8,0,1,1,8,8A8,8,0,0,1,232,172Zm-4,0a12,12,0,1,0,12-12A12,12,0,0,0,228,172Z"/></clipPath><clipPath id="clip-path-23" transform="translate(-112 -88)"><rect class="cls-2" x="228" y="160" width="24" height="24"/></clipPath><clipPath id="clip-path-24" transform="translate(-112 -88)"><rect class="cls-2" x="208" y="140" width="64" height="64"/></clipPath><clipPath id="clip-path-26" transform="translate(-112 -88)"><path class="cls-1" d="M200,368a12,12,0,1,1,12,12A12,12,0,0,1,200,368Zm-4,0a16,16,0,1,0,16-16A16,16,0,0,0,196,368Z"/></clipPath><clipPath id="clip-path-28" transform="translate(-112 -88)"><rect class="cls-2" x="196" y="352" width="32" height="32"/></clipPath><clipPath id="clip-path-29" transform="translate(-112 -88)"><rect class="cls-2" x="176" y="332" width="72" height="72"/></clipPath><clipPath id="clip-path-31" transform="translate(-112 -88)"><circle class="cls-2" cx="352" cy="160" r="4"/></clipPath><clipPath id="clip-path-33" transform="translate(-112 -88)"><rect class="cls-2" x="348" y="156" width="8" height="8"/></clipPath><clipPath id="clip-path-34" transform="translate(-112 -88)"><rect class="cls-2" x="328" y="136" width="48" height="48"/></clipPath><clipPath id="clip-path-36" transform="translate(-112 -88)"><circle class="cls-2" cx="168" cy="208" r="4"/></clipPath><clipPath id="clip-path-38" transform="translate(-112 -88)"><rect class="cls-2" x="164" y="204" width="8" height="8"/></clipPath><clipPath id="clip-path-39" transform="translate(-112 -88)"><rect class="cls-2" x="144" y="184" width="48" height="48"/></clipPath><clipPath id="clip-path-41" transform="translate(-112 -88)"><circle class="cls-2" cx="348" cy="352" r="4"/></clipPath><clipPath id="clip-path-43" transform="translate(-112 -88)"><rect class="cls-2" x="344" y="348" width="8" height="8"/></clipPath><clipPath id="clip-path-44" transform="translate(-112 -88)"><rect class="cls-2" x="324" y="328" width="48" height="48"/></clipPath><clipPath id="clip-path-46" transform="translate(-112 -88)"><circle class="cls-2" cx="180" cy="132" r="4"/></clipPath><clipPath id="clip-path-48" transform="translate(-112 -88)"><rect class="cls-2" x="176" y="128" width="8" height="8"/></clipPath><clipPath id="clip-path-49" transform="translate(-112 -88)"><rect class="cls-2" x="156" y="108" width="48" height="48"/></clipPath><clipPath id="clip-path-51" transform="translate(-112 -88)"><path class="cls-1" d="M256,132a124,124,0,0,0-59.66,232.72,16.06,16.06,0,0,1,1.41-3.86,119.66,119.66,0,1,1,29.53,11.64,15.82,15.82,0,0,1-1.63,3.74A124,124,0,1,0,256,132"/></clipPath></defs><g class="cls-3"><g class="cls-4"><g class="cls-5"><g class="cls-6"><g class="cls-7"><g class="cls-6"><rect class="cls-8" x="48" y="72" width="192" height="192"/></g></g></g></g></g></g><g class="cls-9"><g class="cls-4"><g class="cls-5"><g class="cls-10"><g class="cls-11"><g class="cls-10"><rect class="cls-8" x="16" y="40" width="256" height="256"/></g></g></g></g></g></g><g class="cls-12"><g class="cls-4"><g class="cls-5"><g class="cls-13"><g class="cls-14"><g class="cls-13"><rect class="cls-15" x="80" y="104" width="128" height="128"/></g></g></g></g></g></g><g class="cls-16"><g class="cls-4"><g class="cls-5"><g class="cls-17"><g class="cls-18"><g class="cls-17"><rect class="cls-15" x="148" y="108" width="96" height="96"/></g></g></g></g></g></g><g class="cls-19"><g class="cls-4"><g class="cls-5"><g class="cls-20"><g class="cls-21"><g class="cls-20"><rect class="cls-15" x="76" y="32" width="104" height="104"/></g></g></g></g></g></g><g class="cls-22"><g class="cls-4"><g class="cls-5"><g class="cls-23"><g class="cls-24"><g class="cls-23"><rect class="cls-15" x="44" y="224" width="112" height="112"/></g></g></g></g></g></g><g class="cls-25"><g class="cls-4"><g class="cls-5"><g class="cls-26"><g class="cls-27"><g class="cls-26"><rect class="cls-15" x="196" y="28" width="88" height="88"/></g></g></g></g></g></g><g class="cls-28"><g class="cls-4"><g class="cls-5"><g class="cls-29"><g class="cls-30"><g class="cls-29"><rect class="cls-15" x="12" y="76" width="88" height="88"/></g></g></g></g></g></g><g class="cls-31"><g class="cls-4"><g class="cls-5"><g class="cls-32"><g class="cls-33"><g class="cls-32"><rect class="cls-15" x="192" y="220" width="88" height="88"/></g></g></g></g></g></g><g class="cls-34"><g class="cls-4"><g class="cls-5"><g class="cls-35"><g class="cls-36"><g class="cls-35"><rect class="cls-15" x="24" width="88" height="88"/></g></g></g></g></g></g><g class="cls-37"><g class="cls-4"><rect class="cls-8" y="24" width="288" height="288"/></g></g></svg>