<svg xmlns="http://www.w3.org/2000/svg" viewBox="0 0 1440 512"><defs><style>.cls-1{isolation:isolate;}.cls-2{fill:#0b0618;}.cls-3{opacity:0.42;}.cls-4{fill:#8b8b98;}.cls-5{fill:#fff;opacity:0.3;mix-blend-mode:overlay;}</style></defs><g class="cls-1"><g id="Layer_1" data-name="Layer 1"><rect class="cls-2" width="1440" height="512"/><g class="cls-3"><path class="cls-4" d="M1459.56,82.88A61.29,61.29,0,0,0,1402-12.48c-23.74-31.66-44.33-50.08-52.52-45.13-8,4.81-1.82,30.32,14.13,64.64a59.82,59.82,0,0,0-5.06,6.34.57.57,0,0,0-.38.56,61.31,61.31,0,0,0,66.24,93.84c22.94,30.11,42.65,47.43,50.62,42.62C1483.22,145.44,1476.51,118.64,1459.56,82.88Zm-3.38-11.6-1.3,2q-1.2-2.38-2.46-4.82a.44.44,0,0,0,.26-.23,13.19,13.19,0,0,1,3.15-4.11.41.41,0,0,0,.15-.39,33.69,33.69,0,0,0,3,3.89l-.25.33c-.38.51.34,1.21.72.7l.22-.29a33.54,33.54,0,0,0,3.53,3.19l-6.41,5.67c-.48-1-1-2-1.47-3a.54.54,0,0,0,.15-.15c.52-.8,1-1.6,1.54-2.4C1457.41,71.22,1456.53,70.74,1456.18,71.28Zm-12.83-21-.83-.65a.51.51,0,0,0-.34-.11c-1.34-2.36-2.7-4.74-4.1-7.13a22.35,22.35,0,0,0,9.22-3.8,11.42,11.42,0,0,0,2.11,0,17.92,17.92,0,0,0-.26,3.12.46.46,0,0,0-.3.05,14.78,14.78,0,0,1-4,1.32c-.63.12-.35,1.08.27,1l.52-.11a.41.41,0,0,0,.09.57,4.48,4.48,0,0,0,3.26,1c.64-.07.63-1.07,0-1a3.42,3.42,0,0,1-2.54-.74l0,0a15.46,15.46,0,0,0,2.77-1c0,.33,0,.66.08,1,.08.64,1.08.62,1,0a18.72,18.72,0,0,1,1-8.14.56.56,0,0,0,.13-.39,39.26,39.26,0,0,1,3.5-7.13c.41.59.83,1.17,1.29,1.74l.65.78a.46.46,0,0,0-.74.13c-3.77,7.17-2.83,15.19-.37,22.63.2.61,1.17.34,1-.28-2.37-7.17-3.36-14.93.28-21.88a.45.45,0,0,0,0-.45,30.55,30.55,0,0,0,2.51,2.59,13.12,13.12,0,0,0-1.09,6.57.5.5,0,0,0,1,0,12.58,12.58,0,0,1,.86-5.88,18.42,18.42,0,0,0,2.82,1.95.39.39,0,0,0-.22.13c-2.62,2.76-1.6,7.91-1,11.25.11.64,1.07.36,1-.27-.51-2.91-1.49-7.89.78-10.29a.47.47,0,0,0,.09-.52,10.38,10.38,0,0,0,1,.43.45.45,0,0,0-.1.28,20.23,20.23,0,0,0,4.31,13.13.51.51,0,0,0,.33.2q-.09,2.89-.47,5.75a8.56,8.56,0,0,1-3.3-2.82c-.36-.53-1.22,0-.86.51a9.59,9.59,0,0,0,4,3.36,60.32,60.32,0,0,1-1.17,5.93c-5.58-3.85-6.82-10.79-7.8-17.08-.1-.63-1.06-.35-1,.27,1,6.7,2.46,13.85,8.49,17.84-.36,1.34-.77,2.67-1.22,4a23.62,23.62,0,0,1-7-9.83c-.23-.6-1.19-.33-1,.27A24.59,24.59,0,0,0,1465.43,69l.06,0c-.28.79-.59,1.58-.91,2.36,0,0,0-.06-.07-.08a33.34,33.34,0,0,1-12.64-19.67c-.14-.63-1.1-.36-1,.27.08.39.18.78.28,1.17a5.6,5.6,0,0,1-3.07-.52c-.57-.29-1,.59-.48.87a6.32,6.32,0,0,0,3.6.64.43.43,0,0,0,.2-.06l.15.52a.34.34,0,0,0-.15.07,16.86,16.86,0,0,0-4.13,4.21c-1.37-2.53-2.79-5.09-4.24-7.68C1443.44,51.07,1443.73,50.6,1443.35,50.31Zm-5.12-15a8,8,0,0,1-3.34,1.58l0,0c-.56-.94-1.11-1.87-1.68-2.81a23.33,23.33,0,0,0,2-2.14,17,17,0,0,0,3.11,2.44c.53.36,1-.52.47-.87s-1.17-.83-1.72-1.28a10,10,0,0,1-1.17-1,.48.48,0,0,0,0-.24,20.64,20.64,0,0,0,1.31-2,25.08,25.08,0,0,0,13,6.6,20.15,20.15,0,0,0-.53,2s-.06,0-.09,0a11.44,11.44,0,0,1-1.94,0,.41.41,0,0,0-.53-.06,9.81,9.81,0,0,1-3.86-1.41c-.55-.33-1,.55-.48.88a10.85,10.85,0,0,0,3.17,1.33,21.18,21.18,0,0,1-8.33,3.13c-.71-1.22-1.44-2.45-2.17-3.68A9.12,9.12,0,0,0,1439,36C1439.45,35.64,1438.73,35,1438.23,35.35Zm-6.56-6.71-1.08,1.25c-.78-1.28-1.57-2.55-2.35-3.8a18.32,18.32,0,0,1-.31-4.15.41.41,0,0,0,.13.1,30.88,30.88,0,0,0,9.8,3.07,21,21,0,0,1-2.91,5.52h0a.59.59,0,0,0-.23.32,22.08,22.08,0,0,1-2,2.3l-1.51-2.48,1.25-1.44C1432.81,28.85,1432.09,28.15,1431.67,28.64Zm-4.57-16.76c.43-.48-.29-1.18-.72-.7a11.46,11.46,0,0,0-3,7.2q-1.53-2.38-3.06-4.71c2.36-6.75,8.74-10.36,15.08-12.81a42.3,42.3,0,0,0,3.07,4.75A18.3,18.3,0,0,0,1427,24.08c-.9-1.43-1.8-2.84-2.7-4.25a.5.5,0,0,0,.07-.26A10.38,10.38,0,0,1,1427.1,11.88Zm-8.38-.6a19.12,19.12,0,0,1-.43-6.26,10,10,0,0,0,5.23,1.7l.11,0a17.46,17.46,0,0,0-4,5.94Zm13-10.87a14.16,14.16,0,0,1-6.76-3l-.18-.09a25.38,25.38,0,0,0,3.2-1,14.55,14.55,0,0,0,6.28,3.07.45.45,0,0,0,.33,0l.36.68c-1,.4-2.06.83-3.07,1.3A.48.48,0,0,0,1431.68.41Zm.59-6.34A44.18,44.18,0,0,0,1434-1.74a13.56,13.56,0,0,1-5-2.43A25.84,25.84,0,0,0,1432.27-5.93Zm10.48,18a2.64,2.64,0,0,1,.5-1l.3.31c.59.55,1.2,1.1,1.83,1.63a.52.52,0,0,0-.12.17,18.78,18.78,0,0,0-1.33,4.88c-.88,0-1.75-.07-2.61-.15a3.27,3.27,0,0,1,.16-1.8c.23-.59-.64-1.07-.88-.47a4.59,4.59,0,0,0-.31,2.19l-.29,0c-1-.08-1.91-.19-2.85-.34a.24.24,0,0,0,0-.09,16.55,16.55,0,0,1,3.31-8c.39-.5-.33-1.2-.72-.69a17.4,17.4,0,0,0-3.56,8.48.42.42,0,0,0,0,.16,20.28,20.28,0,0,1-2.87-.78l.6-2.7a.5.5,0,0,0-1-.24l-.57,2.57a14,14,0,0,1-2.11-1.08c-.55-.34-1,.54-.48.88,3.11,1.93,6.6,2.56,10.2,2.85l.66.06a.53.53,0,0,0,.35,0c3.17.26,6.52.45,9.26-1.38l0,0a.54.54,0,0,0,0,.18c.19.85.43,1.68.69,2.51-3.61,1.56-7.49,1.55-11.34,1-3.48-.53-7.53-1.17-10.38-3.36a.53.53,0,0,0-.7,0,17.29,17.29,0,0,1,10.16-11.26.5.5,0,0,0,.25-.22,44.84,44.84,0,0,0,3.53,4,3.82,3.82,0,0,0-.77,1.43A.51.51,0,0,0,1442.75,12Zm7.76,5.12a.6.6,0,0,0-.18-.48l.56.35A.55.55,0,0,0,1450.51,17.15Zm-4.37-3.51a40.84,40.84,0,0,0,4.12,3,.42.42,0,0,0-.48,0,9.14,9.14,0,0,1-4.85,1.39,18.49,18.49,0,0,1,1.21-4.38Zm7.18,15.05a.56.56,0,0,0-.3-.14,2.38,2.38,0,0,1-1.55-.84c-.43-.48-1.13.24-.7.72a3.47,3.47,0,0,0,2.09,1.09c-.33.59-.65,1.2-.95,1.81a19.08,19.08,0,0,1-9.63-5.91,32.73,32.73,0,0,0,9.91-1.57.48.48,0,0,0,.2-.12,29.07,29.07,0,0,0,1.86,3.43l-.08.09C1453.88,27.73,1453.6,28.21,1453.32,28.69Zm-2.86,6a24.24,24.24,0,0,1-12.8-6.54l0,0a23.37,23.37,0,0,0,1.23-2.9c.85.09,1.71.15,2.57.18a.49.49,0,0,0,0,.61,19.94,19.94,0,0,0,10,6.21C1451.1,33.05,1450.76,33.87,1450.46,34.7Zm1.46-11.81a30.67,30.67,0,0,1-23.38-1.72.46.46,0,0,0-.57.09,17.09,17.09,0,0,1,.49-3,.49.49,0,0,0,.14.19c3.24,2.49,7.71,3.19,11.67,3.73a20.77,20.77,0,0,0,11-1.12c.21.6.45,1.19.69,1.78Zm-4,36.74a15.56,15.56,0,0,1,4-4.14c.31.94.66,1.85,1,2.75a.5.5,0,0,0-.63,0,16,16,0,0,0-3.2,3.93l-1.3-2.44A1.59,1.59,0,0,0,1448,59.63Zm1.76,3.53A15,15,0,0,1,1453,59a.41.41,0,0,0,.14-.22,34.55,34.55,0,0,0,2.58,4.7.5.5,0,0,0-.65,0,13.88,13.88,0,0,0-3.18,4.08c-.74-1.43-1.5-2.88-2.27-4.33C1449.68,63.2,1449.7,63.19,1449.71,63.16Zm14.44,9,.13,0a61.5,61.5,0,0,1-5.22,9.72c-.57-1.2-1.18-2.42-1.77-3.64Zm5-23.27A19.29,19.29,0,0,1,1465.47,37a10.89,10.89,0,0,0,1.69.39c.63.09.88-.88.24-1a13.87,13.87,0,0,1-6.81-3.39.53.53,0,0,0-.4-.36,29.32,29.32,0,0,1-3.76-4.1,29,29,0,0,1-5.14-11.19.34.34,0,0,0-.07-.16,28.33,28.33,0,0,0,5.38,2.46,12.88,12.88,0,0,0,1.48,4.87c.3.57,1.16.06.86-.51a11.81,11.81,0,0,1-1.3-4,20,20,0,0,0,4.74.75h0A60.07,60.07,0,0,1,1467,32.29a12.42,12.42,0,0,1-4.33-2.94c-.45-.46-1.14.26-.7.72a13.58,13.58,0,0,0,5.13,3.34.41.41,0,0,0,.21,0A59.49,59.49,0,0,1,1469.13,48.86Zm-26-49.7a68.87,68.87,0,0,0,5.77,6.78c1.78,1.82,3.56,3.65,6.07,4.36a.43.43,0,0,0,.48-.15,58.64,58.64,0,0,1,4.07,5.58,40.84,40.84,0,0,1-20.41-19.44q2,1.16,3.94,2.48A.39.39,0,0,0,1443.13-.84Zm11.43,9.94c-2.22-.87-3.93-2.78-5.54-4.48-1.24-1.31-2.4-2.68-3.53-4.08A59.56,59.56,0,0,1,1454.56,9.1Zm-31.45-19.22a19.41,19.41,0,0,1-13.09-1.7A60.67,60.67,0,0,1,1423.11-10.12Zm-14.77-1.72a.47.47,0,0,0,.24.4,20.51,20.51,0,0,0,16,2,.52.52,0,0,0,.29-.22c1.26.34,2.5.73,3.74,1.16A26.77,26.77,0,0,1,1419-6.3a.5.5,0,0,0,0,1,28,28,0,0,0,10.27-2.4.4.4,0,0,0,.25-.48,61.52,61.52,0,0,1,8.32,3.77.5.5,0,0,0,0,.43,41.67,41.67,0,0,0,21.42,20.7.54.54,0,0,0,.69-.26l.51.81c.49.81,1,1.63,1.39,2.45-6.92-.41-13.36-4.9-18.18-9.6a43.46,43.46,0,0,1-10.5-16.4.51.51,0,0,0-.62-.32.46.46,0,0,0-.7-.26,24.36,24.36,0,0,1-13.15,3.94.51.51,0,0,0-.33.86c-.38,0-.76.34-.47.71a5.31,5.31,0,0,0,2.16,1.68c.59.24,1.07-.63.48-.88a4.29,4.29,0,0,1-1.78-1.31.24.24,0,0,0-.08-.06h0a25.58,25.58,0,0,0,5.48-.64.42.42,0,0,0,0,.68,15.16,15.16,0,0,0,7.21,3.26.44.44,0,0,0,.2,0c-1.05.49-2.07,1-3.06,1.61a25.23,25.23,0,0,1-4.76-1.31c-.6-.22-.83.75-.24,1a26.92,26.92,0,0,0,3.75,1.11A23.84,23.84,0,0,0,1424,6.38a.51.51,0,0,0-.47-.66,9,9,0,0,1-4.85-1.65.42.42,0,0,0-.25-.07c0-.06,0-.12,0-.17.1-.63-.87-.88-1-.24a20.45,20.45,0,0,0-.1,5.63c-1.61-2.4-3.21-4.74-4.81-7a.41.41,0,0,0,.13-.27c.15-1.25.29-2.51.44-3.77.6,0,.82-.89.19-1a16.64,16.64,0,0,1-5.16-1.46.49.49,0,0,0-.2,0q-1.61-2.25-3.21-4.42A22.58,22.58,0,0,0,1411.49-6a.5.5,0,0,0,.24-1,21.86,21.86,0,0,1-7.22-3.1.41.41,0,0,0-.62.15l-1.19-1.62Q1405.52-11.82,1408.34-11.84Zm.67,9a17.52,17.52,0,0,0,3.12.84l-.36,3.09C1410.85-.26,1409.92-1.57,1409-2.86Zm-20,.12a12.21,12.21,0,0,0,6-.62.71.71,0,0,0,.17-.11q3.35,3.77,6.83,8.12A33.71,33.71,0,0,1,1391.41,0a29.67,29.67,0,0,0,4.89-.93.5.5,0,0,0-.27-1,27.4,27.4,0,0,1-18.48-1.25l.1-.07c1-.61,2.06-1.19,3.1-1.74a.47.47,0,0,0,.21.61,6.28,6.28,0,0,0,3,.77.5.5,0,0,0,0-1,5.2,5.2,0,0,1-2.47-.65l-.09,0q1.71-.87,3.45-1.62A36.81,36.81,0,0,0,1392-5.68c.64,0,.62-1,0-1a35.17,35.17,0,0,1-5.6-.82q1.86-.75,3.75-1.38c1.41,1.45,2.85,3,4.32,4.63a11.1,11.1,0,0,1-5.21.54C1388.56-3.79,1388.32-2.82,1389-2.74Zm-4.23-5.17-.46-.12c-.4-.12-.63.24-.59.56a61.84,61.84,0,0,0-6.55,3.41,60.91,60.91,0,0,0-10.62,8.13c-4.42-14-5-24-.55-26.64s13,2.46,23.34,12.9C1387.76-9.15,1386.24-8.55,1384.73-7.91Zm-8,5.29a.41.41,0,0,0,.25.33,29,29,0,0,0,8.21,2.22l0,0A29.58,29.58,0,0,1,1375,8.17c-3.72,1.81-9.16,3.69-13.43,2.78.6-.76,1.22-1.5,1.86-2.23h0c5.77.34,10.83-2.45,15.29-5.86.5-.38,0-1.25-.51-.86-4.1,3.13-8.67,5.76-13.92,5.74A60.33,60.33,0,0,1,1376.74-2.62Zm-19,27.33a5.15,5.15,0,0,1-3.44-.86.41.41,0,0,0-.58.09c.45-1,.92-2,1.42-3a4.23,4.23,0,0,0,3.33,1.39A20.22,20.22,0,0,0,1357.75,24.71Zm-.58,54.92a60.32,60.32,0,0,1-3.56-55.4.51.51,0,0,0,.22.5,6.05,6.05,0,0,0,3.74,1,19,19,0,0,0,.19,7.42c.14.63,1.1.36,1-.27a17.74,17.74,0,0,1,1.76-12.55.5.5,0,0,0-.88-.48c-.26.49-.5,1-.72,1.48a.22.22,0,0,0-.08,0,3.35,3.35,0,0,1-3-1.1.44.44,0,0,0-.23-.14,60.65,60.65,0,0,1,3.46-5.71,39.9,39.9,0,0,0,8.67,0,.44.44,0,0,0,0,.54,16.92,16.92,0,0,0,5.14,5.41c.53.35,1-.53.48-.88a15.81,15.81,0,0,1-4.76-5,.58.58,0,0,0-.1-.12,39.16,39.16,0,0,0,9-2.27c.59-.23.33-1.2-.28-1a38.16,38.16,0,0,1-17.5,2.38c.38-.55.79-1.09,1.2-1.62,4.11,1.08,9.46-.54,13.21-2.15a30.42,30.42,0,0,0,11.77-9,.5.5,0,0,0,0-.64,29.36,29.36,0,0,0,4.4.06.52.52,0,0,0,.22.53,34.76,34.76,0,0,0,11.32,5.06.47.47,0,0,0,.59-.4q1.78,2.25,3.59,4.63a25.21,25.21,0,0,1-11.8-3,.5.5,0,0,0-.48.88,26.5,26.5,0,0,0,12.44,3.15.43.43,0,0,0,.41-.25c.92,1.21,1.83,2.43,2.74,3.69A27.61,27.61,0,0,1,1392.69,11c-.56-.32-1,.56-.48.88a28.51,28.51,0,0,0,17.63,3.44l.13-.05c.66.91,1.31,1.82,2,2.75a.46.46,0,0,0-.2,0,18.88,18.88,0,0,1-6.13.43c-.64-.06-.62.94,0,1l.88,0a.46.46,0,0,0,.08.21,19,19,0,0,0,10.91,7.55A.45.45,0,0,0,1418,27c1.56,2.37,3.12,4.81,4.67,7.3a18.8,18.8,0,0,1-14.66-1.08c-.58-.29-1.06.59-.48.88a19.85,19.85,0,0,0,15.69,1.08c.5.8,1,1.61,1.49,2.43a.46.46,0,0,0-.35,0,23.84,23.84,0,0,1-15.23-.08c-.61-.2-.85.77-.24,1a24.63,24.63,0,0,0,7.64,1.31.55.55,0,0,0-.06.22,27,27,0,0,0,.3,6.3,6,6,0,0,1-3.12-1.79c-.44-.47-1.13.25-.7.72a7,7,0,0,0,3.83,2.11h.17a28.58,28.58,0,0,0,.89,3.26,12.25,12.25,0,0,1-6.26-1.76c-.55-.33-1,.55-.48.88a13.3,13.3,0,0,0,7.09,1.88,27.28,27.28,0,0,0,1.38,3l-.11,0a15.17,15.17,0,0,1-6.83,1c-.64-.05-.62.95,0,1a15.84,15.84,0,0,0,7.08-1,.44.44,0,0,0,.25-.21,27.56,27.56,0,0,0,4.55,5.92c.46.46,1.15-.26.7-.72a26.23,26.23,0,0,1-7.76-20.6.66.66,0,0,0,0-.21,25.11,25.11,0,0,0,4.55-.54l0,.09a15.84,15.84,0,0,0,1,8.74c.25.59,1.21.32,1-.27a14.79,14.79,0,0,1-1-8.23.47.47,0,0,0-.19-.48q.95-.22,1.89-.54A.48.48,0,0,0,1425,38l.3.5c.75,1.24,1.49,2.48,2.21,3.71a.5.5,0,0,0-.8.39A15.24,15.24,0,0,0,1433.65,55c.54.36,1-.52.48-.88a14.18,14.18,0,0,1-6.41-11.55s0,0,0-.06c3.55,6.07,6.81,12,9.75,17.82a13.77,13.77,0,0,1-9-3.79c-.47-.44-1.16.28-.69.72a14.89,14.89,0,0,0,10.08,4.09s.06,0,.09,0c.66,1.3,1.29,2.59,1.91,3.86a1,1,0,0,0-.17,0,15.73,15.73,0,0,1-7.43-.55c-.61-.19-.85.78-.23,1q.68.21,1.35.36a15.66,15.66,0,0,0,.54,7.77c.2.61,1.17.34,1-.27a14.74,14.74,0,0,1-.53-7.3,16.94,16.94,0,0,0,4.33.14,28.22,28.22,0,0,0,2,14.8c.25.59,1.21.32,1-.27a27.36,27.36,0,0,1-2-14.6v0l.27,0a.4.4,0,0,0,.28-.17c1.25,2.59,2.43,5.14,3.53,7.63a.46.46,0,0,0-.63.46,29.35,29.35,0,0,0,6.21,15.79.56.56,0,0,0,.84,0l.62,1.84q-1.23,1.2-2.55,2.34a12,12,0,0,1-4.32-6.73c-.15-.63-1.11-.36-1,.27a12.77,12.77,0,0,0,4.5,7.1c-.84.7-1.7,1.39-2.58,2a.44.44,0,0,0-.15-.27c-5.22-4.63-7.29-11.35-9.17-17.85a.5.5,0,0,0-1,.27c1.93,6.66,4.09,13.55,9.44,18.3a.37.37,0,0,0,.12.07c-.68.5-1.37,1-2.08,1.45a.5.5,0,0,0-.22-.45,15.9,15.9,0,0,1-5.46-6.45c-.28-.58-1.14-.07-.86.51a16.92,16.92,0,0,0,5.84,6.82h0c-.48.31-.94.63-1.43.92A60.41,60.41,0,0,1,1357.17,79.63Zm55.18-61q2.6,3.69,5.19,7.62a17.9,17.9,0,0,1-9.84-6.71A19.7,19.7,0,0,0,1412,19,.42.42,0,0,0,1412.35,18.59Zm31.87,56.06c2.2,5,4.09,9.8,5.63,14.23A28.47,28.47,0,0,1,1444.22,74.65Zm6.93,18.16c4.43,14,5,24,.55,26.66s-13-2.45-23.32-12.89a60.27,60.27,0,0,0,22.77-13.77Zm23.36,56.72c-5.13,3.09-16.81-4.76-32.06-21.57-5.43-6-11.13-12.89-16.94-20.49.61-.17,1.22-.35,1.82-.55,10.92,11,20,16.34,24.88,13.41,9.73-5.87-1.71-42-26-82.34s-51-67.28-60.72-61.41c-4.86,2.93-4.41,13.45.27,28.25-.46.45-.9.91-1.34,1.37-4-8.69-7.47-16.95-10.24-24.54-7.76-21.32-9.27-35.32-4.14-38.42s16.81,4.77,32.06,21.57c11.21,12.35,23.53,28.57,35.76,46.94a.62.62,0,0,0,.1.16c.42.63.85,1.26,1.27,1.9a.43.43,0,0,0,.37.56q3.89,5.91,7.73,12.09h0a.38.38,0,0,0,.18.28c1.56,2.52,3.13,5.05,4.68,7.62,16.68,27.64,30.25,54.89,38.21,76.74C1478.13,132.43,1479.64,146.43,1474.51,149.53Z"/><path class="cls-4" d="M1388,54.18c.63-.13.36-1.1-.27-1a20.24,20.24,0,0,1-16.16-3.49c-.52-.38-1,.5-.48.87A21.14,21.14,0,0,0,1388,54.18Z"/><path class="cls-4" d="M1391.33,52.2,1391,52c-.5-.38-1.2.33-.69.72l.28.21C1391.14,53.3,1391.84,52.59,1391.33,52.2Z"/><path class="cls-4" d="M1394.31,51.14l0-.25c-.09-.63-1.09-.62-1,0l0,.25C1393.4,51.79,1394.4,51.78,1394.31,51.14Z"/><path class="cls-4" d="M1398,49.11l.4-.81c.28-.57-.59-1.06-.88-.48l-.4.81C1396.83,49.2,1397.71,49.69,1398,49.11Z"/><path class="cls-4" d="M1396.4,44a22.56,22.56,0,0,1-11,4.55c-.63.08-.62,1.08,0,1a23.45,23.45,0,0,0,11.46-4.69C1397.41,44.49,1396.9,43.62,1396.4,44Z"/><path class="cls-4" d="M1381.29,48.33l0,.24c.09.63,1.09.62,1,0l0-.25C1382.2,47.68,1381.2,47.69,1381.29,48.33Z"/><path class="cls-4" d="M1384.57,7l.17-.24s0,0,.06.07l1.42,1.06c.51.38,1.21-.33.69-.72l-1.41-1.06a.48.48,0,0,0-.21-.09L1387,3.68a5.8,5.8,0,0,0,2.63,1.56c.61.18.85-.79.23-1a4.86,4.86,0,0,1-2.26-1.4l.35-.48c.38-.51-.34-1.21-.72-.69l-3.35,4.55C1383.47,6.76,1384.19,7.46,1384.57,7Z"/><path class="cls-4" d="M1389.67,9.32c-.63.09-.62,1.09,0,1l.24,0c.63-.09.62-1.09,0-1Z"/><path class="cls-4" d="M1391.38,6.29l.25,0c.63-.09.62-1.09,0-1l-.24,0C1390.74,5.38,1390.75,6.38,1391.38,6.29Z"/><path class="cls-4" d="M1404.6,37l.25,0c.63-.09.62-1.09,0-1l-.24,0C1404,36.07,1404,37.07,1404.6,37Z"/><path class="cls-4" d="M1405.1,32.17c.5.38,1.2-.33.69-.72l-.28-.21c-.51-.38-1.21.33-.7.72Z"/><path class="cls-4" d="M1420.29,31.85c.64,0,.63-1,0-1a18.43,18.43,0,0,1-12.35-3.72c-.51-.38-1.21.33-.7.72A19.56,19.56,0,0,0,1420.29,31.85Z"/><path class="cls-4" d="M1405.52,25.73l.25,0c.63-.09.62-1.09,0-1l-.24,0C1404.88,24.82,1404.89,25.82,1405.52,25.73Z"/><path class="cls-4" d="M1403.51,22.32c.24.59,1.21.33,1-.27l-1-2.41c-.24-.58-1.21-.32-1,.28Z"/><path class="cls-4" d="M1379.09,22.91a26.62,26.62,0,0,0,15.49,1.23.52.52,0,0,0,.22-.12,24.83,24.83,0,0,0,7.34,11.19c.49.42,1.18-.3.7-.72a23.8,23.8,0,0,1-8.19-16.91c.83.29,1.68.56,2.54.79a.45.45,0,0,0-.3.57,31.93,31.93,0,0,0,6,11.41c.4.49,1.09-.23.69-.72a30.38,30.38,0,0,1-5.69-11c0-.05,0-.09-.07-.13a.5.5,0,0,0,.23-1A34.25,34.25,0,0,1,1383,9.46c-.48-.43-1.17.29-.7.72a35.49,35.49,0,0,0,11.39,7.05.09.09,0,0,0,0,.05,25.3,25.3,0,0,0,.92,5.91.48.48,0,0,0-.24,0A25.5,25.5,0,0,1,1379.57,22C1379,21.8,1378.49,22.67,1379.09,22.91Z"/><path class="cls-4" d="M1393.44,19.85a.5.5,0,0,0-.27-1,12.37,12.37,0,0,1-6.85-.18c-.62-.2-.85.78-.24,1A13.44,13.44,0,0,0,1393.44,19.85Z"/><path class="cls-4" d="M1378.41,16.11c.54.35,1-.53.48-.87a14.44,14.44,0,0,1-2.5-2.05c-.45-.46-1.14.26-.7.72A15.15,15.15,0,0,0,1378.41,16.11Z"/><path class="cls-4" d="M1426,54.69c.51.38,1.21-.33.69-.72l-.28-.21c-.51-.38-1.21.34-.69.72Z"/><path class="cls-4" d="M1407.81,46.69l0-.25c-.09-.63-1.09-.62-1,0l0,.24C1406.91,47.33,1407.91,47.32,1407.81,46.69Z"/><path class="cls-4" d="M1405.3,42.78a3.72,3.72,0,0,1-1.56-1.58c-.3-.57-1.16-.06-.86.5a4.7,4.7,0,0,0,1.94,2A.5.5,0,0,0,1405.3,42.78Z"/><path class="cls-4" d="M1431.44,65.42a.5.5,0,0,0-1-.24,30.05,30.05,0,0,0-.91,5.09.37.37,0,0,0-.41-.19A22.8,22.8,0,0,1,1418.22,69c-.61-.22-.84.76-.24,1a23.15,23.15,0,0,0,11.19,1.11.6.6,0,0,0,.35-.21c0,.69-.08,1.38-.08,2.07h0a32.34,32.34,0,0,1-20.32-2.81c-.57-.29-1.06.59-.48.87a33.4,33.4,0,0,0,20.81,2.94,29,29,0,0,0,1.77,9c.22.6,1.19.33,1-.27A28.27,28.27,0,0,1,1431.44,65.42Z"/><path class="cls-4" d="M1434.74,75.61l-.25,0c-.63.09-.62,1.09,0,1l.25,0C1435.39,76.52,1435.38,75.52,1434.74,75.61Z"/><path class="cls-4" d="M1406.08,69.15l.28.21c.51.38,1.21-.33.7-.72l-.28-.21C1406.27,68.05,1405.57,68.77,1406.08,69.15Z"/><path class="cls-4" d="M1403.38,66.89l0,.25c.09.63,1.09.62,1,0l0-.25C1404.29,66.24,1403.29,66.25,1403.38,66.89Z"/><path class="cls-4" d="M1397.8,60.75l2.71,3.42c.4.51,1.09-.22.7-.72L1398.49,60C1398.09,59.52,1397.4,60.25,1397.8,60.75Z"/><path class="cls-4" d="M1414.94,68.27l0,.25c.09.63,1.09.62,1,0l0-.25C1415.85,67.62,1414.85,67.63,1414.94,68.27Z"/><path class="cls-4" d="M1404.62,60.21a26.35,26.35,0,0,0,7.79,7.23c.55.33,1-.55.48-.88a25,25,0,0,1-7.41-6.86C1405.11,59.18,1404.25,59.69,1404.62,60.21Z"/><path class="cls-4" d="M1413.72,60.17a22.35,22.35,0,0,0,8.09-.88.5.5,0,0,0-.27-1,21.65,21.65,0,0,1-7.84.84C1413.06,59.13,1413.08,60.13,1413.72,60.17Z"/><path class="cls-4" d="M1364,35.09A10.79,10.79,0,0,1,1363,25c.23-.59-.64-1.07-.88-.47a11.8,11.8,0,0,0,1.09,11C1363.52,36.14,1364.39,35.63,1364,35.09Z"/><path class="cls-4" d="M1365.89,20.09l0-.24c-.09-.63-1.09-.62-1,0l0,.25C1365,20.74,1366,20.73,1365.89,20.09Z"/><path class="cls-4" d="M1368.62,17.53c.49-.41-.23-1.1-.72-.7l-1.13.92c-.5.41.23,1.1.72.7Z"/><path class="cls-4" d="M1389,38.27a.5.5,0,0,0,.24-1,12.27,12.27,0,0,1-6.39-4.08c-.41-.5-1.11.23-.7.72A13.17,13.17,0,0,0,1389,38.27Z"/><path class="cls-4" d="M1386.21,70.48a14.86,14.86,0,0,0,4.76,7.91c.48.43,1.18-.29.69-.71a14,14,0,0,1-4.49-7.47C1387,69.58,1386.07,69.86,1386.21,70.48Z"/><path class="cls-4" d="M1394,79.26a3,3,0,0,1-.22.28c-.38.51.34,1.21.72.7l.22-.28C1395.08,79.45,1394.36,78.75,1394,79.26Z"/><path class="cls-4" d="M1380,74.52a20.4,20.4,0,0,1-11.68-4.33c-.5-.39-1.2.33-.69.72A21.58,21.58,0,0,0,1380,75.52C1380.67,75.55,1380.64,74.55,1380,74.52Z"/><path class="cls-4" d="M1365.76,68.29l-.25,0c-.63.09-.62,1.09,0,1l.25,0C1366.41,69.2,1366.4,68.2,1365.76,68.29Z"/><path class="cls-4" d="M1364,66.52l-.24,0c-.63.09-.62,1.09,0,1l.25,0C1364.64,67.43,1364.63,66.43,1364,66.52Z"/><path class="cls-4" d="M1360.31,60.4c-.21-.6-1.17-.34-1,.27a11,11,0,0,0,2.37,4c.44.48,1.13-.24.7-.72A9.67,9.67,0,0,1,1360.31,60.4Z"/><path class="cls-4" d="M1391.64,101.1c-3.83-2.41-8-5.37-8.13-10.36a.5.5,0,0,0-1,0c.1,5.37,4.5,8.61,8.65,11.22C1391.71,102.32,1392.19,101.44,1391.64,101.1Z"/><path class="cls-4" d="M1411,102.26a13.12,13.12,0,0,1-10.24-4.92c-.41-.5-1.1.23-.7.72a14.3,14.3,0,0,0,3.49,3.07,8.06,8.06,0,0,1-3.68.92.5.5,0,0,0,0,1,9,9,0,0,0,4.71-1.35,14.23,14.23,0,0,0,6.43,1.56A.5.5,0,0,0,1411,102.26Z"/><path class="cls-4" d="M1415.68,102.17l-.21.29c-.38.51.33,1.21.72.69l.21-.28C1416.78,102.36,1416.07,101.66,1415.68,102.17Z"/><path class="cls-4" d="M1412.05,99.89a17.87,17.87,0,0,1-11.58-7.21c-.37-.52-1.24,0-.86.5a18.9,18.9,0,0,0,12.21,7.68C1412.45,101,1412.69,100,1412.05,99.89Z"/><path class="cls-4" d="M1398.76,89.9l-.53-.18c-.61-.21-.84.76-.24,1l.53.18C1399.13,91.08,1399.36,90.11,1398.76,89.9Z"/><path class="cls-4" d="M1417.69,1.84c.5.38,1.2-.34.69-.72L1418.1.9c-.51-.38-1.21.34-.7.72Z"/><path class="cls-4" d="M1433.28,6.09l2.83-1.42c.58-.28.06-1.14-.51-.86l-2.83,1.42C1432.2,5.52,1432.71,6.38,1433.28,6.09Z"/></g><path class="cls-5" d="M1440,512V286.76a121.86,121.86,0,0,1-87.81,8.75c-24.68-7-50.33-22-74.22-12.63-11.31,4.45-19.92,13.78-27.44,23.33-17.06,21.66-30.65,45.93-48.39,67s-40.91,39.47-68.18,43.52c-47.28,7-97.12-29.65-140.81-10.25-13.81,6.14-24.77,17.25-34.31,29-14,17.16-32.56,46.23-44.9,76.51Z"/><g class="cls-3"><path class="cls-4" d="M1389.36,435.32a.47.47,0,0,0-.15-.13,34.68,34.68,0,1,0,.15.13ZM1351,483.79a8.76,8.76,0,0,0-3.75,5.58.46.46,0,0,0,.19.49c-.11.13-.23.24-.34.37-.79-.52-1.55-1.08-2.29-1.67a8.49,8.49,0,0,1,6.31-6.83A10.18,10.18,0,0,0,1351,483.79Zm.12,1.15a10,10,0,0,0,.3,1.29,25,25,0,0,0-3,2.55A7.69,7.69,0,0,1,1351.12,484.94Zm5.92,9.8a26.06,26.06,0,0,1,16.67.07c.6.21.84-.76.23-1a26.94,26.94,0,0,0-17.75.11.5.5,0,0,0-.34.45c-.81-.25-1.6-.54-2.38-.85a7.22,7.22,0,0,1,3.69-1.78c.63-.11.35-1.07-.27-1a8.08,8.08,0,0,0-4.46,2.32c-.81-.36-1.61-.74-2.39-1.15,4.44-4,9.65-5,15.51-5.13a.5.5,0,0,0,0-1c-6.23.17-11.72,1.26-16.42,5.61-.39-.22-.78-.44-1.16-.68a23.64,23.64,0,0,1,5.51-4.71.5.5,0,0,0-.51-.86l-.65.44a9,9,0,0,1-.25-1.34l0,0a.49.49,0,0,0-.09-.89,9.46,9.46,0,0,1,.51-3c.22-.61-.76-.84-1-.24-.08.25-.16.5-.22.74a.48.48,0,0,0-.43-.1,9.47,9.47,0,0,0-6.94,7.1c-.49-.41-1-.84-1.42-1.27a.49.49,0,0,0,.19-.36,8.65,8.65,0,0,1,1.91-4.65c.4-.5-.32-1.2-.72-.69a9.84,9.84,0,0,0-2.13,5c-.54-.54-1.06-1.11-1.57-1.69a10.35,10.35,0,0,1,11.93-8.36c.63.09.87-.88.24-1a11.34,11.34,0,0,0-13,8.39c-.34-.41-.66-.83-1-1.26a.42.42,0,0,0,.35-.36,11.81,11.81,0,0,1,1.62-4.17c.34-.55-.54-1-.88-.48a12.6,12.6,0,0,0-1.66,4.2,34.23,34.23,0,0,1,41.3-51.1,35.26,35.26,0,0,1-7.89.39c-.65,0-.62,1,0,1a37,37,0,0,0,9.39-.62l.1,0c.92.44,1.81.92,2.68,1.44l-2.78,1.12c-.6.24-.33,1.2.27,1l3.44-1.38a.33.33,0,0,0,.1-.06,35.35,35.35,0,0,1,3.5,2.57,33.51,33.51,0,0,1-10.09,1.54c-3.09,0-8.54-.12-10.84-2.55-.44-.47-1.13.25-.69.72a6.69,6.69,0,0,0,2.36,1.53,19.27,19.27,0,0,0-2.93,7.44c-.11.63.87.88,1,.24a18.41,18.41,0,0,1,2.92-7.33,16.63,16.63,0,0,0,2.65.56.45.45,0,0,0-.18.24,27.63,27.63,0,0,0-1.57,8.92c0,.64,1,.63,1,0a27,27,0,0,1,1.54-8.67.4.4,0,0,0,0-.39c1.07.12,2.11.18,3,.24a34.07,34.07,0,0,0,12.76-1.7,34.48,34.48,0,0,1,7.25,9.16l-1.37.9c-.54.36,0,1.22.5.86l1.33-.86c.33.66.66,1.33,1,2a23.76,23.76,0,0,0-10,15.58.46.46,0,0,0,.08.37c-.56.05-1.12.1-1.68.18a16.76,16.76,0,0,1,3.22-10.5c.38-.52-.5-1-.88-.48s-.59.86-.85,1.31c-2.14-4.58-4.14-9.2-4.54-14.3,0-.64-1-.63-1,0,.43,5.48,2.64,10.44,4.94,15.36h0a18.06,18.06,0,0,0-1,2.54,40.91,40.91,0,0,1-4.53-8.26c-.23-.59-1.2-.32-1,.27a41.76,41.76,0,0,0,5.06,9.13l.09.08c-.11.46-.21.94-.28,1.41a.48.48,0,0,0-.36.07c-.38.24-3.4-4.27-3.83-5a31.42,31.42,0,0,1-2.61-5.3,32.15,32.15,0,0,1-2.09-11.31.5.5,0,0,0-1,0,33.42,33.42,0,0,0,2.53,12.57.47.47,0,0,0-.26-.08h-.25a.5.5,0,0,0,0,1h.25a.46.46,0,0,0,.47-.43c.17.41.35.81.54,1.21s.46.93.89,1.72a4.83,4.83,0,0,0-2.16.57c-.57.31,0,1.17.51.87a3.77,3.77,0,0,1,2-.45.5.5,0,0,0,.18,0c.49.87,1.07,1.82,1.68,2.69a.47.47,0,0,0-.51-.17,7.65,7.65,0,0,0-3.2,1.68c-.49.42.24,1.11.72.7a6.58,6.58,0,0,1,2.75-1.42.47.47,0,0,0,.27-.74c1.16,1.68,2.42,3,3.33,2.82a18.72,18.72,0,0,0-.09,2.49s0,0,0,.06c-.68.12-1.36.25-2.05.42s-.35,1.12.27,1a27.49,27.49,0,0,1,10-.59h.07c-.08.65-.15,1.3-.2,2-5.38-.37-10.9.75-15.24,4.1-3.28,2.54-6.84,7.22-6.37,11.62.06.64,1.06.63,1,0-.47-4.46,3.4-9.09,6.83-11.43a21.65,21.65,0,0,1,13.73-3.29c0,.5,0,1,0,1.48a13.53,13.53,0,0,0-6.16,1.31c-.58.28-.07,1.13.51.86a12.63,12.63,0,0,1,5.67-1.17q0,1.24.18,2.49a17.56,17.56,0,0,0-16.94,12.82s0,0,0,.08c-.2-.2-.43-.37-.64-.55a.45.45,0,0,0,.19-.4,13.39,13.39,0,0,1,4.89-10.63c.49-.42-.23-1.11-.72-.7a14.36,14.36,0,0,0-5.16,11.13,14.23,14.23,0,0,0-5.34-2.18.5.5,0,0,0,.14-.3c.51-5.11,2.76-12.74,7.93-15,.59-.26.07-1.12-.51-.86a9.69,9.69,0,0,0-3.27,2.39c-.51-.21-1-.41-1.55-.59a9.39,9.39,0,0,1,2.73-4.42c.47-.43-.25-1.13-.72-.69a10.27,10.27,0,0,0-3,4.79c-.53-.16-1.06-.29-1.6-.41a.56.56,0,0,0,.15-.25,14.94,14.94,0,0,1,3.62-7c.43-.47-.29-1.17-.72-.69a16,16,0,0,0-3.81,7.18s0,0,0,.08l0,.17a.46.46,0,0,0,.06.35c-.58-.11-1.17-.19-1.75-.25a6.35,6.35,0,0,1,.35-4.13l.12-.08a.44.44,0,0,0,.17-.64,20.72,20.72,0,0,1,5.35-7.08c.5-.39,0-1.26-.51-.86a18.43,18.43,0,0,0-4.81,6.06c-.3.58-.62,1.17-.9,1.77a15,15,0,0,0-5.62,5.38,13.81,13.81,0,0,0-3.38,1.38,14.32,14.32,0,0,1,2.39-5.45c.38-.52-.5-1-.88-.47a14.86,14.86,0,0,0-2.63,6.34.59.59,0,0,0,0,.27,12.58,12.58,0,0,0-2.24,2,16.82,16.82,0,0,1,2.67-11.2c.35-.54-.53-1-.88-.48a17.79,17.79,0,0,0-2.79,11.77.55.55,0,0,0,.16.31,13.3,13.3,0,0,0-8.59-.21.5.5,0,0,0,.27,1,12.52,12.52,0,0,1,8.11.23c-.11.16-.22.3-.32.46-.34.55.54,1,.87.48,3.71-6,10.81-6.94,17-5.05a.52.52,0,0,0,.7.24q.66.22,1.29.48a16.3,16.3,0,0,0-1.65,2.59.4.4,0,0,0-.2-.12,12.88,12.88,0,0,0-7.3-.36c-.63.14-.36,1.1.27,1a12,12,0,0,1,6.8.37h0a24.59,24.59,0,0,0-1.33,3.59.55.55,0,0,0-.14-.12,6.42,6.42,0,0,0-3-.82c-.65,0-.63,1,0,1a5.26,5.26,0,0,1,2.5.7.46.46,0,0,0,.41,0c-.16.61-.3,1.22-.42,1.82a5.31,5.31,0,0,0-6.56,2.66.47.47,0,0,0,0,.4c-.69.07-1.37.16-2,.26a.4.4,0,0,0,.15-.38,6.84,6.84,0,0,1,.62-3.78c.28-.57-.6-1.06-.88-.47a7.84,7.84,0,0,0-.74,4.27.52.52,0,0,0,.36.44c-.78.13-1.55.28-2.3.45s-.35,1.11.27,1c6.13-1.39,14.11-1.79,18.54,3.51a.4.4,0,0,0,.54.1,16,16,0,0,0-.36,4h0a23.1,23.1,0,0,0-14.68-2.15c-.64.11-.36,1.07.27,1a22,22,0,0,1,13.93,2.06.45.45,0,0,0,.53-.06c0,.48.1.95.18,1.43a34.26,34.26,0,0,1-19.76.56Zm41.61-43.4a.53.53,0,0,0-.13.13,32.3,32.3,0,0,0-5.14,12.92c-.78-.1-1.56-.16-2.34-.2a11.86,11.86,0,0,1,1.89-4c.38-.51-.5-1-.88-.47a12.44,12.44,0,0,0-2,4.38s0,0,0,.05c-.53,0-1.06,0-1.59,0a.25.25,0,0,0,0-.09,22.75,22.75,0,0,1,9.43-14.84C1398.17,449.94,1398.42,450.64,1398.65,451.34Zm.81,3.07,0,0a35.61,35.61,0,0,0-3,21.72.4.4,0,0,0,.48.35,34,34,0,0,1-4.55,7.07.46.46,0,0,0-.63-.13,21.69,21.69,0,0,0-6.36,5.82.39.39,0,0,0,.12.59,33.93,33.93,0,0,1-3,1.86,17.56,17.56,0,0,1,7-9.32c.54-.35,0-1.21-.51-.86a18.62,18.62,0,0,0-7.71,10.59.4.4,0,0,0,0,.21c-.52.27-1.06.52-1.6.75a11.13,11.13,0,0,1,2.21-7.49c.39-.51-.33-1.21-.72-.7a12.18,12.18,0,0,0-2.48,8.37.65.65,0,0,0,.06.21l-1,.38a14.67,14.67,0,0,1,4.06-12.81,19.14,19.14,0,0,1,4.76-3.47c.48-.25,5.84-1.87,5.9-2.22-.11.63.86.87,1,.24v0c.11.57.23,1.13.36,1.69a12.27,12.27,0,0,0-7.42,3.15c-.48.43.24,1.12.72.69a11.17,11.17,0,0,1,7-2.86c.09.33.17.65.26,1a.5.5,0,0,0,1-.27,32.24,32.24,0,0,1-1.09-5,.52.52,0,0,0,0-.4,31.62,31.62,0,0,1,4.84-21C1399.17,453.17,1399.33,453.79,1399.46,454.41Zm.78,7.55a33.8,33.8,0,0,1-1,8.17A25.42,25.42,0,0,1,1400.24,462Zm0-2.24a.52.52,0,0,0-.36.32,26.12,26.12,0,0,0-1.44,12.69v0c-.32.95-.69,1.88-1.09,2.79a34.31,34.31,0,0,1,2.48-19.42A36,36,0,0,1,1400.19,459.72Zm-23.09,27.42c-.14-.16-.28-.3-.42-.45a.46.46,0,0,0,.49-.35,16.54,16.54,0,0,1,16.1-12.06c0,.23.06.45.1.68a.81.81,0,0,0-.12-.14c-1.42-.94-4.42.64-5.76,1.22a20.47,20.47,0,0,0-6.13,4.06,15.67,15.67,0,0,0-4.23,7.11S1377.12,487.16,1377.1,487.14Zm-8.54-4.43a24.55,24.55,0,0,0-5.15-.18,4.32,4.32,0,0,1,5.34-2l.08,0c-.12.71-.22,1.41-.28,2.07A.32.32,0,0,0,1368.56,482.71ZM1366,467.34a17.3,17.3,0,0,0-3.38.18,13.93,13.93,0,0,1,3.56-3.5A5.86,5.86,0,0,0,1366,467.34Zm21.13,21.27a20.07,20.07,0,0,1,3.76-3.43A34.92,34.92,0,0,1,1387.13,488.61Z"/><path class="cls-4" d="M1382.51,483.25v.25a.5.5,0,0,0,1,0v-.25A.5.5,0,0,0,1382.51,483.25Z"/><path class="cls-4" d="M1384.65,481.39l-.25.25c-.45.46.27,1.15.72.7l.25-.25C1385.83,481.63,1385.11,480.94,1384.65,481.39Z"/><path class="cls-4" d="M1368,487.38a.5.5,0,0,0,.67-.21.48.48,0,0,0,.18-.67C1368.35,485.6,1367.12,486.92,1368,487.38Z"/><path class="cls-4" d="M1370.38,488.38a7.65,7.65,0,0,1,5.6,1.36c.53.37,1-.51.48-.88a8.62,8.62,0,0,0-6.35-1.44C1369.48,487.51,1369.75,488.47,1370.38,488.38Z"/><path class="cls-4" d="M1379,466.74h.25a.5.5,0,0,0,0-1H1379A.5.5,0,0,0,1379,466.74Z"/><path class="cls-4" d="M1381.51,465.73v-.25a.5.5,0,0,0-1,0v.25A.5.5,0,0,0,1381.51,465.73Z"/><path class="cls-4" d="M1352.4,476.14l-.25.25c-.45.46.27,1.15.72.7l.25-.25C1353.58,476.38,1352.86,475.69,1352.4,476.14Z"/><path class="cls-4" d="M1358.23,475.22c.39-.5-.32-1.2-.72-.7a11.88,11.88,0,0,0-2.43,9.74.48.48,0,0,0-.07.24v.25a.5.5,0,0,0,1,0v-.25s0,0,0-.06a.45.45,0,0,0,0-.33A10.81,10.81,0,0,1,1358.23,475.22Z"/><path class="cls-4" d="M1359.77,474.24h.25a.5.5,0,0,0,0-1h-.25A.5.5,0,0,0,1359.77,474.24Z"/><path class="cls-4" d="M1346.26,479.24H1346a.5.5,0,0,0,0,1h.25A.5.5,0,0,0,1346.26,479.24Z"/><path class="cls-4" d="M1348.86,477.88c-.45-.45-1.15.26-.69.72.08.08.16.17.25.25.45.46,1.15-.26.69-.72Z"/><path class="cls-4" d="M1375.37,454.09l.25-.25c.46-.46-.26-1.15-.72-.7l-.25.25C1374.2,453.85,1374.92,454.54,1375.37,454.09Z"/><path class="cls-4" d="M1377,462v-.25a.5.5,0,0,0-1,0V462A.5.5,0,0,0,1377,462Z"/><path class="cls-4" d="M1379.77,448h.16a.5.5,0,0,0,0-1h-.15A.5.5,0,0,0,1379.77,448Z"/><path class="cls-4" d="M1379.5,442.1a6,6,0,0,1-.07-3.26.5.5,0,0,0-1-.24,7,7,0,0,0,.08,3.77A.5.5,0,0,0,1379.5,442.1Z"/><path class="cls-4" d="M1389.29,452a.47.47,0,0,0,.71.13.5.5,0,0,0,.76-.42v-.5a.5.5,0,0,0-.91-.26,20.94,20.94,0,0,1-1.83-4.37.5.5,0,0,0-1,.27A22,22,0,0,0,1389.29,452Z"/><path class="cls-4" d="M1385.92,444.1c.08.08.16.17.25.25.45.46,1.15-.26.69-.72l-.25-.25C1386.16,442.93,1385.46,443.64,1385.92,444.1Z"/><path class="cls-4" d="M1386.51,441.35A8,8,0,0,1,1386,439c0-.64-1-.62-1,0a9,9,0,0,0,.54,2.62C1385.77,442.22,1386.73,442,1386.51,441.35Z"/><path class="cls-4" d="M1392.08,448.5a.5.5,0,0,0,.86-.51,19.51,19.51,0,0,1-2-4.88c-.15-.63-1.12-.35-1,.27A20.68,20.68,0,0,0,1392.08,448.5Z"/><path class="cls-4" d="M1394,445.93c.58.27,1-.57.5-.86a.5.5,0,0,0-1-.19A.88.88,0,0,0,1394,445.93Z"/><path class="cls-4" d="M1369.4,433.69l5.74.82c.63.08.88-.89.24-1l-5.74-.81C1369,432.63,1368.76,433.6,1369.4,433.69Z"/><path class="cls-4" d="M1367,449.48v-.25a.5.5,0,0,0-1,0v.25A.5.5,0,0,0,1367,449.48Z"/><path class="cls-4" d="M1373.26,453.6a10.88,10.88,0,0,1-.78-3.37c0-.64-1-.62-1,0a11.55,11.55,0,0,0,.82,3.62C1372.54,454.46,1373.51,454.19,1373.26,453.6Z"/><path class="cls-4" d="M1356.1,454.07a16.56,16.56,0,0,1,8.79-4.4c.64-.11.36-1.07-.27-1a17.52,17.52,0,0,0-9.24,4.66C1354.92,453.82,1355.64,454.51,1356.1,454.07Z"/><path class="cls-4" d="M1353.51,456.74h-.25a.5.5,0,0,0,0,1h.25A.5.5,0,0,0,1353.51,456.74Z"/><path class="cls-4" d="M1351,465.61a19.61,19.61,0,0,1,1.85-5.92c.29-.57-.59-1.05-.88-.48a20.63,20.63,0,0,0-1.94,6.17C1350,466,1350.94,466.25,1351,465.61Z"/><path class="cls-4" d="M1350.71,470.87a3.34,3.34,0,0,1,0-2.39c.23-.59-.65-1.07-.88-.47a4.33,4.33,0,0,0-.09,3.13C1350,471.74,1350.93,471.47,1350.71,470.87Z"/><path class="cls-4" d="M1358.76,458.24h-.25a.5.5,0,0,0,0,1h.25A.5.5,0,0,0,1358.76,458.24Z"/><path class="cls-4" d="M1361.23,457.11a31.84,31.84,0,0,1,5.64-2.72.46.46,0,0,0,.15-.09,11.24,11.24,0,0,0,1.43,2.83h-.1a9.6,9.6,0,0,0-3.59,1.67c-.51.39,0,1.25.51.86a8.89,8.89,0,0,1,3.35-1.57.43.43,0,0,0,.35-.37c.41.17,1-.25.64-.67a10.66,10.66,0,0,1-2.08-4.71c-.11-.64-1.07-.36-1,.27,0,.27.12.52.19.79a.47.47,0,0,0-.16,0,33.09,33.09,0,0,0-5.88,2.82A.5.5,0,0,0,1361.23,457.11Z"/><path class="cls-4" d="M1361.9,460.39l-.25.25c-.45.46.27,1.15.72.7l.25-.25C1363.08,460.63,1362.36,459.94,1361.9,460.39Z"/><path class="cls-4" d="M1344.78,460.85a13.47,13.47,0,0,0-6.27,5.87.5.5,0,0,0,.88.47,12.58,12.58,0,0,1,5.9-5.47C1345.87,461.45,1345.36,460.59,1344.78,460.85Z"/><path class="cls-4" d="M1348,460.74h.25a.5.5,0,0,0,0-1H1348A.5.5,0,0,0,1348,460.74Z"/><path class="cls-4" d="M1341.89,461.68a.5.5,0,0,0-.27-1,7.41,7.41,0,0,0-4.25,3.06c-.36.53.52,1,.87.48A6.42,6.42,0,0,1,1341.89,461.68Z"/><path class="cls-4" d="M1351.47,447.73a10.75,10.75,0,0,1,2.4-6.65c.4-.49-.32-1.19-.72-.69a11.92,11.92,0,0,0-2.68,7.36C1350.45,448.39,1351.45,448.38,1351.47,447.73Z"/><path class="cls-4" d="M1355.51,438.73v-.25a.5.5,0,0,0-1,0v.25A.5.5,0,0,0,1355.51,438.73Z"/><path class="cls-4" d="M1355.42,443.71c.34-.55-.54-1-.88-.48a16.93,16.93,0,0,0-2.55,8.52c0,.64,1,.62,1,0A15.93,15.93,0,0,1,1355.42,443.71Z"/><path class="cls-4" d="M1357,441.24h.25a.5.5,0,0,0,0-1H1357A.5.5,0,0,0,1357,441.24Z"/></g><g class="cls-3"><path class="cls-4" d="M435.06,194.42a5.13,5.13,0,0,1,6.34-.45,5.19,5.19,0,0,1,1.43,6.74c-1.28,2.52-4.45,4.18-7.15,2.76a4.58,4.58,0,0,1-.13-8c.55-.34,0-1.2-.5-.86a5.58,5.58,0,0,0-1.27,8.63c2.67,2.77,7.14,1.91,9.29-1.05,1.81-2.49,2-6.19-.29-8.43a6.18,6.18,0,0,0-8.44-.06C433.88,194.18,434.6,194.87,435.06,194.42Z"/><path class="cls-4" d="M563.26,108.33a4.92,4.92,0,0,0,6.56,2.43c2.6-1.07,4.29-3.94,3.08-6.66a5.73,5.73,0,0,0-7.17-3,.46.46,0,0,0-.22.19.38.38,0,0,0-.28.07A5.7,5.7,0,0,0,563.26,108.33Zm2.48-6.16a.8.8,0,0,0,.13-.13.32.32,0,0,0,.13,0,4.72,4.72,0,0,1,5.8,2.11c1.25,2.16,0,4.62-2.13,5.61C564.72,112.06,561.5,104.92,565.74,102.17Z"/><path class="cls-4" d="M669.62,84.86c1.53,1.84,4.45.91,5.46-1,1.26-2.38-.87-5.1-3.33-5.33-.76-.07-2.1.08-2.18,1.09a.84.84,0,0,0,.36.79A3.3,3.3,0,0,0,669.62,84.86Zm1.43-4a.55.55,0,0,0,.17-.89.54.54,0,0,0-.85-.25c.5-.42,1.79-.11,2.29.13a3.38,3.38,0,0,1,1.48,1.37,2.45,2.45,0,0,1-1.1,3.36,2,2,0,0,1-3-.94A2.2,2.2,0,0,1,671.05,80.81Z"/><path class="cls-4" d="M722.94,157.78a4.58,4.58,0,0,0,1.54-7.08,5,5,0,0,0-3.46-2,2.94,2.94,0,0,0-1.53.28.54.54,0,0,0-.76-.54,5.62,5.62,0,0,0-2.73,7.11C717.14,158.21,720.45,159,722.94,157.78Zm-4-8.36a1,1,0,0,0,0,.86c.21.61,1.18.34,1-.27s1.69-.21,1.89-.14a4.14,4.14,0,0,1,1.41.88,4.59,4.59,0,0,1,1.32,2.38c.43,2.33-1.52,4-3.7,4.19C716.11,157.67,715.32,151.42,719,149.42Z"/><path class="cls-4" d="M583.93,417.29a4.46,4.46,0,0,0,5.39-3.74,5,5,0,0,0-4-5.79,3.84,3.84,0,0,0-4.23,2.73.44.44,0,0,0-.19.3C580.38,413.57,580.74,416.55,583.93,417.29Zm-2-5.33c-.43-2.61,2.51-3.93,4.54-2.75a4,4,0,0,1,1.63,5,3.37,3.37,0,0,1-4.1,2c-1.9-.54-2.36-2.11-2.3-3.78A.51.51,0,0,0,581.91,412Z"/><path class="cls-4" d="M436.58,416.1c2.94-2.25,2.87-6.63.65-9.37-2-2.41-5.71-3.22-8-1.17-3.46-.06-2.44,6.72-1.56,8.57A5.84,5.84,0,0,0,436.58,416.1Zm-8.11-9.27a.56.56,0,0,0,.88,0l.24-.28a.39.39,0,0,0,.28-.31c4.08-4,11.5,4.84,6.13,9a4.85,4.85,0,0,1-7.11-.94C428.24,413.32,427,408.09,428.47,406.83Z"/><path class="cls-4" d="M403.89,348.75a3.93,3.93,0,0,0,6.25-4.76,4.25,4.25,0,0,0-5.56-.92.84.84,0,0,1-.37.31A4.24,4.24,0,0,0,403.89,348.75Zm1-4.68a.23.23,0,0,0,.07-.1l.1,0a3.24,3.24,0,0,1,4.08.46,2.77,2.77,0,0,1-.49,4.19C405.67,350.91,402.5,346.55,404.92,344.07Z"/><path class="cls-4" d="M203,294.05a5.32,5.32,0,0,0,4-6,6,6,0,0,0-6.75-4.42c-.48.08-.43.66-.1.88a.49.49,0,0,0-.2,0C194.77,286.82,197.08,295.67,203,294.05Zm-2.54-8.67c.41-.18.28-.64,0-.83h.08a4.91,4.91,0,0,1,5.6,4.31,4.46,4.46,0,0,1-4,4.32C197.51,293.81,196.69,287.05,200.44,285.38Z"/><path class="cls-4" d="M239.45,158.8a6.13,6.13,0,0,0,4.11-6.61,6.48,6.48,0,0,0-6.72-5.12.47.47,0,0,0-.47.43.51.51,0,0,0-.76-.08c-2.31,2.1-4.44,4.67-3.12,7.94A5.65,5.65,0,0,0,239.45,158.8Zm-3.12-10.68a.48.48,0,0,0,.14-.23.44.44,0,0,0,.38.18,5.55,5.55,0,0,1,5.61,3.8,5.06,5.06,0,0,1-4.1,6.15,4.75,4.75,0,0,1-5.2-4C232.73,151.46,234.62,149.67,236.33,148.12Z"/><path class="cls-4" d="M216.74,144.79a2.56,2.56,0,0,0-.59-3.73,2.9,2.9,0,0,0-3.69.48.25.25,0,0,0,0,.07s0,0,0,0a2.88,2.88,0,0,0,.63,3.77A2.57,2.57,0,0,0,216.74,144.79Zm-3.52-2.59c1.32-1.47,4,.1,2.75,2S212.08,144,213.22,142.2Z"/><path class="cls-4" d="M297.15,78.21a.5.5,0,0,0-.27-1,3.43,3.43,0,0,0-2.23,4.27,3.11,3.11,0,0,0,4.55,1.9A3.71,3.71,0,0,0,300.81,78a4.5,4.5,0,0,0-5.6-1.38c-.57.28-.06,1.14.51.86a3.48,3.48,0,0,1,4.09.87,2.65,2.65,0,0,1-.86,4C295.7,84.32,294.15,79,297.15,78.21Z"/><path class="cls-4" d="M496.79,288.93c1.39,2.2,4.31,1.74,5.75-.13s1.06-4.55-1.27-5.38a4.28,4.28,0,0,0-2.43-.11.51.51,0,0,0-.63-.15,3.47,3.47,0,0,0-1.65,1.69,3.51,3.51,0,0,0-.5,1,.44.44,0,0,0,.12.44A4.27,4.27,0,0,0,496.79,288.93Zm.69-3.67a3.14,3.14,0,0,1,3.08-1c2,.43,2.31,2.64,1.07,4.08s-3.52,1.49-4.26-.48A3.3,3.3,0,0,1,497.48,285.26Z"/><path class="cls-4" d="M566.63,225.06c.45-1.51.94-3.63-.55-4.74a2.23,2.23,0,0,0-2.87.06.45.45,0,0,0-.61.2,3.43,3.43,0,0,0,3.67,4.84A.54.54,0,0,0,566.63,225.06Zm-.88-.57a2.47,2.47,0,0,1-2.46-2.94.41.41,0,0,0,.5-.24c.37-.82,1.54-.5,2,.09C566.4,222.24,566.05,223.52,565.75,224.49Z"/><path class="cls-4" d="M831.13,424.67c-.58.27-.06,1.13.51.86,1.62-.76,3.13.43,3.85,1.84a3.81,3.81,0,0,1-.48,4.18c-1.41,1.89-3.76,2.7-6,3.18a6.13,6.13,0,0,1,1.18-5.94c.41-.48-.3-1.18-.72-.69a7.16,7.16,0,0,0-1.29,7.34.53.53,0,0,0,.62.35c3.3-.64,8.07-2.49,8.13-6.54C837,426.28,834.11,423.28,831.13,424.67Z"/></g><g class="cls-3"><path class="cls-4" d="M97.6,127.46a30.11,30.11,0,0,0,29.68-17c5-10.74,2.41-24.35-7.11-31.72A29.43,29.43,0,0,0,100.79,73a.52.52,0,0,0-.57,0,38.29,38.29,0,0,0-14.37,3.72c-.58.28-.07,1.14.5.86l.14-.06a.3.3,0,0,0,0,.1c.4,5.74,4.63,5.88,9.42,5.83,2,0,4.4.16,5.59,2.07a10.35,10.35,0,0,1,1,3.55c.36,1.78.79,3.66,2.58,4.51s3.81,0,5.66-.29c4.15-.64,4.43,2.91,5.4,5.87a5,5,0,0,0,2.7,3.42c1.3.5,2.72,0,4,.43,2.33.69,2.76,2.94,3.11,5.09.1.63,1.06.35,1-.27-.32-2-.81-4.39-2.69-5.49-2.47-1.46-5.62.49-7-2.94-1.3-3.27-1.44-7.64-6.11-7.18-3.26.33-6.52,1.87-7.54-2.55-.43-1.89-.5-4-1.92-5.48-4.2-4.37-13.64,1.94-14.23-6.58a.47.47,0,0,0-.27-.41,36.89,36.89,0,0,1,12.9-3.22c.27,1.48.46,2.8,1.6,3.94a9.32,9.32,0,0,0,3.9,2.07c2.06.64,4.49.86,6.11,2.46,1.46,1.44,1.56,3.66,2.87,5.2a3.66,3.66,0,0,0,3.26,1.38c1.12,0,2.12-.71,3.22-.09a5,5,0,0,1,1.62,2,16.92,16.92,0,0,0,2,3.23c.69.73,3.71,1.73,3.58,2.75a.55.55,0,0,0,.47.6,25.08,25.08,0,0,1-.85,8.24,27.77,27.77,0,0,1-9.17,14,.39.39,0,0,0-.36-.35c-3-.39-2-5-4.07-6.48-1.53-1.08-3.43-.62-5.14-1-4.71-1.14-2.15-8.24-7.26-9.32-2.17-.47-5,.53-6.94-.74-2.3-1.5-1.75-5.19-3.28-7.3-2.54-3.52-14.92-5.9-10.61-12a.41.41,0,0,0-.15-.62,24.39,24.39,0,0,1,4.83-3.6.5.5,0,0,0-.51-.86,26.34,26.34,0,0,0-12.45,29A28.22,28.22,0,0,0,97.6,127.46Zm28.52-33.33a6.15,6.15,0,0,1-1.67-2c-1.08-1.78-2-4.37-4.46-4.46-1.4,0-2.9.63-4.26-.2-1.08-.66-1.45-2.55-2-3.6a6.67,6.67,0,0,0-2.55-3,20.45,20.45,0,0,0-5.06-1.73,9.08,9.08,0,0,1-3.3-1.54A5.63,5.63,0,0,1,101.11,74a29.64,29.64,0,0,1,15,3.33,24.43,24.43,0,0,1,12.4,18.11C127.85,94.84,126.87,94.66,126.12,94.13ZM87.3,92.46c1.82.92,3.56,2.1,4.31,4.08.49,1.29.55,2.7,1.07,4a4.6,4.6,0,0,0,4.06,2.93c3.53.4,6.86-.7,8,3.76.47,1.79.69,3.86,2.34,5,2.47,1.72,6.57-.27,7.74,3.35.63,2,.74,4.42,3.17,4.85a29.42,29.42,0,0,1-12.49,5.62,3.86,3.86,0,0,0-2.33-2.31c-2.26-1.15-3.74-1.89-4.79-4.35-1.3-3-2.28-5.36-6-5.39-1.64,0-3.2,0-4.29-1.41a10.29,10.29,0,0,1-1.38-3.12A12.26,12.26,0,0,0,84.55,105c-2.75-3.08-12.82-5.15-10-11a.51.51,0,0,0-.42-.73,25.62,25.62,0,0,1,5.3-9.67C77.86,88,84.11,90.84,87.3,92.46ZM73.36,96.92c.61,2.21,2.71,4.06,4.77,5.16,2.32,1.24,5,2.21,6.43,4.57,1.13,1.87,1.3,4.17,2.43,6A4.54,4.54,0,0,0,90.21,115c1.5.27,3.26-.33,4.65.49A6.2,6.2,0,0,1,97,118.59c.64,1.53,1.17,3.19,2.47,4.31s4.32,1.52,5,3.34c-.71.11-1.42.19-2.14.24A27.37,27.37,0,0,1,75.47,111,24.71,24.71,0,0,1,73.36,96.92Z"/><path class="cls-4" d="M124,142a.5.5,0,0,0-.23.94c1.72.95,3.37,2,5,3.09a53.1,53.1,0,0,1-3,5.33.39.39,0,0,0,0,.44l-.23.13a.5.5,0,0,0,.51.86l6.6-3.89a60.57,60.57,0,0,1,4.76,4.33.51.51,0,0,0,.83-.5c-.66-2-1.27-4-1.84-6l1.62-1a.5.5,0,0,0,0-.87c-.78-.37-1.58-.68-2.39-1q-1.11-4.22-2-8.51a.5.5,0,0,0-1,0,51.68,51.68,0,0,1-2.27,7.08A31.54,31.54,0,0,0,124,142Zm3.16,8.94q1.32-2.12,2.41-4.34c.74.53,1.46,1.08,2.17,1.63Q129.47,149.58,127.17,150.93Zm9.46.18q-1.51-1.44-3.12-2.76l1.94-1.15C135.83,148.51,136.22,149.81,136.63,151.11ZM133,137.63q.65,2.94,1.39,5.84a30.59,30.59,0,0,0-3.09-.82A51.07,51.07,0,0,0,133,137.63Zm-2.08,6a29.74,29.74,0,0,1,3.77,1c.14.53.3,1.05.44,1.58l-2.49,1.47c-.87-.69-1.75-1.36-2.65-2C130.36,145,130.66,144.29,131,143.58Zm-1-.18c-.24.58-.5,1.14-.76,1.7-1.07-.73-2.17-1.44-3.29-2.1A30.19,30.19,0,0,1,130,143.4Z"/></g><g class="cls-3"><path class="cls-4" d="M1051.44,73.42a5.07,5.07,0,0,0-7.82,6.29c1.29,2.52,4.49,4.18,7.2,2.76a4.56,4.56,0,0,0,.13-8,.5.5,0,0,1,.51-.86,5.56,5.56,0,0,1,1.28,8.63c-2.69,2.77-7.19,1.91-9.36-1-1.82-2.49-2.05-6.19.3-8.43a6.24,6.24,0,0,1,8.49-.06C1052.63,73.18,1051.91,73.87,1051.44,73.42Z"/><path class="cls-4" d="M761.67,36.78a4.57,4.57,0,0,1-1.55-7.08,5,5,0,0,1,3.49-2,3,3,0,0,1,1.54.28.54.54,0,0,1,.76-.54,5.6,5.6,0,0,1,2.74,7.11C767.51,37.21,764.18,38,761.67,36.78Zm4-8.36a1,1,0,0,1,.05.86c-.22.61-1.19.34-1-.27s-1.7-.21-1.91-.14a4.14,4.14,0,0,0-1.41.88,4.53,4.53,0,0,0-1.33,2.38c-.43,2.33,1.53,4,3.73,4.19C768.55,36.67,769.34,30.42,765.65,28.42Z"/><path class="cls-4" d="M901.59,296.29a4.48,4.48,0,0,1-5.42-3.74,5,5,0,0,1,4.06-5.79,3.87,3.87,0,0,1,4.26,2.73.41.41,0,0,1,.19.3C905.17,292.57,904.8,295.55,901.59,296.29Zm2-5.33c.43-2.61-2.53-3.93-4.58-2.75a4,4,0,0,0-1.63,5,3.4,3.4,0,0,0,4.12,2c1.92-.54,2.38-2.11,2.32-3.78A.51.51,0,0,1,903.63,291Z"/><path class="cls-4" d="M1049.92,295.1c-3-2.25-2.89-6.63-.66-9.37,2-2.41,5.75-3.22,8.09-1.17,3.47-.06,2.45,6.72,1.56,8.57A5.89,5.89,0,0,1,1049.92,295.1Zm8.16-9.27a.57.57,0,0,1-.89,0l-.23-.28a.38.38,0,0,1-.29-.31c-4.1-4-11.57,4.84-6.17,9a4.89,4.89,0,0,0,7.15-.94C1058.31,292.32,1059.58,287.09,1058.08,285.83Z"/><path class="cls-4" d="M1105,285.75a4,4,0,0,1-6.3-4.76,4.3,4.3,0,0,1,5.6-.92.39.39,0,0,1,.16.18.46.46,0,0,1,.22.13A4.24,4.24,0,0,1,1105,285.75Zm-1-4.68a.33.33,0,0,1-.06-.1l-.1,0a3.28,3.28,0,0,0-4.11.46,2.76,2.76,0,0,0,.49,4.19C1103.17,287.91,1106.36,283.55,1103.92,281.07Z"/><path class="cls-4" d="M1209.37,243.64a3.53,3.53,0,0,1,3.05-1.51c.87.13,1.39.63,1.17,1.52-.15.62-1.12.35-1-.27a1.39,1.39,0,0,0-1.91.35,7.5,7.5,0,0,0-.84.85,7.06,7.06,0,0,0-1.54,2.86,4.32,4.32,0,0,0,2.21,5.14c2.66,1.28,4.67-.8,4.91-3.39a8.57,8.57,0,0,0-1.58-5.56c-.36-.54.53-1,.89-.48,1.76,2.64,2.74,7,.3,9.63-2,2.11-5.42,1.18-7-1C1206.22,249.22,1207.39,245.78,1209.37,243.64Z"/><path class="cls-4" d="M1285.05,173.05c-2.62-.72-4.64-3.29-4-6a6,6,0,0,1,6.79-4.42c.49.08.43.66.1.88a.49.49,0,0,1,.2.05C1293.32,165.82,1291,174.67,1285.05,173.05Zm2.56-8.67c-.41-.18-.29-.64,0-.83h-.09a4.93,4.93,0,0,0-5.63,4.31,4.48,4.48,0,0,0,4,4.32C1290.56,172.81,1291.39,166.05,1287.61,164.38Z"/><path class="cls-4" d="M1248.34,37.8a6.14,6.14,0,0,1-4.14-6.61,6.53,6.53,0,0,1,6.77-5.12.47.47,0,0,1,.47.43.51.51,0,0,1,.76-.08c2.33,2.1,4.47,4.67,3.14,7.94A5.68,5.68,0,0,1,1248.34,37.8Zm3.14-10.68a.48.48,0,0,1-.14-.23.46.46,0,0,1-.39.18,5.58,5.58,0,0,0-5.64,3.8,5.07,5.07,0,0,0,4.13,6.15,4.78,4.78,0,0,0,5.24-4C1255.11,30.46,1253.2,28.67,1251.48,27.12Z"/><path class="cls-4" d="M1271.2,23.79a2.55,2.55,0,0,1,.59-3.73,2.94,2.94,0,0,1,3.72.48s0,.05,0,.07,0,0,0,0a2.88,2.88,0,0,1-.63,3.77A2.6,2.6,0,0,1,1271.2,23.79Zm3.54-2.59c-1.32-1.47-4,.1-2.77,1.95S1275.89,23,1274.74,21.2Z"/><path class="cls-4" d="M989.31,167.93c-1.4,2.2-4.34,1.74-5.79-.13s-1.07-4.55,1.28-5.38a4.35,4.35,0,0,1,2.45-.11.51.51,0,0,1,.63-.15,3.45,3.45,0,0,1,1.66,1.69,3.51,3.51,0,0,1,.5,1.05.42.42,0,0,1-.12.44A4.2,4.2,0,0,1,989.31,167.93Zm-.7-3.67a3.18,3.18,0,0,0-3.1-1c-2,.43-2.32,2.64-1.08,4.08s3.55,1.49,4.3-.48A3.3,3.3,0,0,0,988.61,164.26Z"/><path class="cls-4" d="M919,104.06c-.46-1.51-1-3.63.56-4.74a2.25,2.25,0,0,1,2.88.06.47.47,0,0,1,.62.2,3.43,3.43,0,0,1-3.7,4.84A.52.52,0,0,1,919,104.06Zm.88-.57a2.48,2.48,0,0,0,2.48-2.94.41.41,0,0,1-.5-.24c-.37-.82-1.55-.5-2,.09C919.24,101.24,919.59,102.52,919.89,103.49Z"/><path class="cls-4" d="M652.76,303.67c.59.27.07,1.13-.51.86-1.63-.76-3.15.43-3.87,1.84a3.79,3.79,0,0,0,.48,4.18c1.43,1.89,3.79,2.7,6,3.18a6.13,6.13,0,0,0-1.19-5.94c-.42-.48.3-1.18.72-.69a7.1,7.1,0,0,1,1.29,7.34.52.52,0,0,1-.62.35c-3.32-.64-8.12-2.49-8.18-6.54C646.89,305.28,649.77,302.28,652.76,303.67Z"/></g><g class="cls-3"><path class="cls-4" d="M-16.34,451.6a.52.52,0,0,0,.37.85A47.74,47.74,0,0,0-22.24,465a.48.48,0,0,0-.63.47l.09,1.24a47.53,47.53,0,0,0,3.39,35.78c9.5,17.51,30.44,27.9,50.12,24.62a48.28,48.28,0,0,0,18-7,.51.51,0,0,0,.28-.17,51.2,51.2,0,0,0,5.49-4.1.71.71,0,0,0,.09-.07,48.88,48.88,0,0,0,16.38-27.65c3.91-20.55-6-43.24-24.57-53.29-.59-.32-1.19-.62-1.78-.91a.45.45,0,0,0-.6-.27,39.42,39.42,0,0,0-14.9-3.54.52.52,0,0,0-.79,0,45.76,45.76,0,0,0-6.08.29.48.48,0,0,0-.75-.07l-.15.17a51.09,51.09,0,0,0-8.12,1.81.49.49,0,0,0-.63.18,60.21,60.21,0,0,0-7.94,3.21.46.46,0,0,0-.75.28s0,.07,0,.11A69.2,69.2,0,0,0-16.34,451.6ZM-14.57,508c-8.47-10.92-10.93-25.22-7.94-38.32a79.32,79.32,0,0,0,10.09,30.49c5.35,9.35,12.75,19.27,22.5,24.49A48.5,48.5,0,0,1-14.57,508Zm85.33-30.28a60.67,60.67,0,0,1-13.68-33.45A51.74,51.74,0,0,1,70.76,477.71ZM20,454.87c.11.64,1.07.36,1-.27A58.2,58.2,0,0,1,20.11,443a54.19,54.19,0,0,1,.48-6c.21-1.58.32-4.35,1.35-5.78a41.83,41.83,0,0,1,6.13-.31,67.56,67.56,0,0,0,2.65,35.56c.21.6,1.18.33,1-.27A66.51,66.51,0,0,1,29.08,431a40.07,40.07,0,0,1,5.75.68,69.61,69.61,0,0,0,1.61,28.15.5.5,0,0,0,1-.27,68,68,0,0,1-1.6-27.68c.67.15,1.34.31,2,.5a38.44,38.44,0,0,1,5.74,2.08,72,72,0,0,0,1.87,24.46.5.5,0,0,0,1-.27,71.09,71.09,0,0,1-1.88-23.74,40.69,40.69,0,0,1,4.81,2.75.14.14,0,0,1,0,.06,70.84,70.84,0,0,0,2.43,25.46.5.5,0,0,0,1-.27,70,70,0,0,1-2.43-24.61,42.94,42.94,0,0,1,5.71,4.8,61.8,61.8,0,0,0,14.73,36.1l.06,0c0,.22,0,.45,0,.67a44.68,44.68,0,0,1-.7,7.06,70.17,70.17,0,0,1-12.6-15.09.5.5,0,0,0-.86.51,70.85,70.85,0,0,0,13,15.54.46.46,0,0,0,.22.11,46.65,46.65,0,0,1-4.27,12.09.55.55,0,0,0-.17-.17,61.37,61.37,0,0,1-8.91-6.91c-.47-.44-1.16.28-.69.72A62.55,62.55,0,0,0,65,500.87a.44.44,0,0,0,.24.07,49.76,49.76,0,0,1-11.08,13.84A71.52,71.52,0,0,1,37.59,503a.5.5,0,0,0-.69.72,72.34,72.34,0,0,0,16.39,11.76A51.43,51.43,0,0,1,48.52,519a78.07,78.07,0,0,1-15.61-10.32c-.49-.41-1.19.3-.7.72a79.49,79.49,0,0,0,15.33,10.22A48.8,48.8,0,0,1,43,522.1a36.85,36.85,0,0,1-13-7.8c-.48-.42-1.17.3-.69.72a39.07,39.07,0,0,0,12.43,7.69c-1.19.52-2.39,1-3.62,1.43-.81.28-1.63.53-2.45.76h0a132.08,132.08,0,0,1-25.53-20.06c-.46-.45-1.15.27-.7.72a132.83,132.83,0,0,0,24.93,19.7,44.06,44.06,0,0,1-6.49,1.12.56.56,0,0,0-.18-.16A86.34,86.34,0,0,1-3.49,497.89c-.35-.53-1.21,0-.86.51A87.48,87.48,0,0,0,26.1,526.51a47,47,0,0,1-12.46-1,.4.4,0,0,0-.26-.41c-11-4.63-19.15-15.4-24.94-25.49a77.56,77.56,0,0,1-10.21-32.86,46.64,46.64,0,0,1,4.47-10.4,57.31,57.31,0,0,0,5.51,29.05c.28.58,1.14.06.86-.51a56.55,56.55,0,0,1-5.23-30.23.38.38,0,0,0,0-.15A44.84,44.84,0,0,1-11.91,449,51.64,51.64,0,0,0-11,463.21c.13.64,1.09.36,1-.27a51,51,0,0,1-.84-14.54A.38.38,0,0,0-11,448c.19-.2.37-.41.57-.61a.43.43,0,0,0,.12-.44q2.44-2.22,5.12-4.22c-2.51,10.22,0,20.66,2.8,30.59a.5.5,0,0,0,1-.27c-2.83-10.14-5.46-20.82-2.49-31.24a66.12,66.12,0,0,1,7.63-4.69,88.32,88.32,0,0,0,.24,30.08c.11.63,1.07.36,1-.27a87,87,0,0,1-.11-30.37,57.62,57.62,0,0,1,7.52-3.12,69.54,69.54,0,0,0,8.28,52.31.5.5,0,0,0,.86-.51,68.54,68.54,0,0,1-8-52.15,48.21,48.21,0,0,1,7.28-1.66A14.48,14.48,0,0,0,19.9,435a58.63,58.63,0,0,0-.71,6.19A59.31,59.31,0,0,0,20,454.87Z"/><path class="cls-4" d="M53.88,466.9a.5.5,0,0,0,0-1A.5.5,0,0,0,53.88,466.9Z"/><path class="cls-4" d="M55.55,469.57a.5.5,0,0,0,0-1A.5.5,0,0,0,55.55,469.57Z"/><path class="cls-4" d="M46.88,462.57a.5.5,0,0,0,0-1A.5.5,0,0,0,46.88,462.57Z"/><path class="cls-4" d="M58.94,484.35c.44.46,1.14-.26.7-.72a46.07,46.07,0,0,1-10.53-18.06c-.19-.61-1.16-.34-1,.27A47.47,47.47,0,0,0,58.94,484.35Z"/><path class="cls-4" d="M61.74,486.49a.51.51,0,0,0,.58-.65c.08-.3-.07-.65-.46-.6C61.17,485.32,61,486.35,61.74,486.49Z"/><path class="cls-4" d="M66.7,490.39v-.33a.5.5,0,0,0-1,0v.33A.5.5,0,0,0,66.7,490.39Z"/><path class="cls-4" d="M46.63,483.73c.31.57,1.17.06.86-.51a114.32,114.32,0,0,1-8.78-20.63c-.19-.61-1.15-.34-1,.27A115.54,115.54,0,0,0,46.63,483.73Z"/><path class="cls-4" d="M50.19,485.9a.5.5,0,0,0,0,1A.5.5,0,0,0,50.19,485.9Z"/><path class="cls-4" d="M52.53,488.57a.5.5,0,0,0,0,1A.5.5,0,0,0,52.53,488.57Z"/><path class="cls-4" d="M33.21,470.9a.5.5,0,0,0,0-1A.5.5,0,0,0,33.21,470.9Z"/><path class="cls-4" d="M34.55,473.9a.5.5,0,0,0,0-1A.5.5,0,0,0,34.55,473.9Z"/><path class="cls-4" d="M49.31,497c.47.44,1.17-.28.7-.72a58.37,58.37,0,0,1-13.6-19.33c-.25-.59-1.11-.08-.86.51A59.31,59.31,0,0,0,49.31,497Z"/><path class="cls-4" d="M53.21,500.23a.5.5,0,0,0,0-1A.5.5,0,0,0,53.21,500.23Z"/><path class="cls-4" d="M58.21,504.9a.5.5,0,0,0,0-1A.5.5,0,0,0,58.21,504.9Z"/><path class="cls-4" d="M21.55,458.57h.33a.5.5,0,0,0,0-1h-.33A.5.5,0,0,0,21.55,458.57Z"/><path class="cls-4" d="M22.21,462.23a.5.5,0,0,0,0-1A.5.5,0,0,0,22.21,462.23Z"/><path class="cls-4" d="M33.89,488.23c.38.52,1.24,0,.86-.51a59.83,59.83,0,0,1-9-18.8.5.5,0,0,0-1,.27A60.8,60.8,0,0,0,33.89,488.23Z"/><path class="cls-4" d="M36.86,490.23a.5.5,0,0,0,0,1A.5.5,0,0,0,36.86,490.23Z"/><path class="cls-4" d="M40.68,494.45c-.39-.51-1.25,0-.86.51a61.73,61.73,0,0,0,17.07,15.33c.55.33,1-.54.48-.88A60.39,60.39,0,0,1,40.68,494.45Z"/><path class="cls-4" d="M30.94,498.34c.46.46,1.15-.26.7-.72a77,77,0,0,1-7.87-9.24c-.38-.51-1.24,0-.86.51A79.55,79.55,0,0,0,30.94,498.34Z"/><path class="cls-4" d="M34.19,499.9h-.33a.5.5,0,0,0,0,1h.33A.5.5,0,0,0,34.19,499.9Z"/><path class="cls-4" d="M6,471.39v-.33a.5.5,0,0,0-1,0v.33A.5.5,0,0,0,6,471.39Z"/><path class="cls-4" d="M6.88,475.9h.33a.5.5,0,0,0,0-1H6.86A.5.5,0,0,0,6.88,475.9Z"/><path class="cls-4" d="M9.44,479.56c-.26-.59-1.12-.07-.86.51a70.62,70.62,0,0,0,16.91,23.72c.48.44,1.17-.28.7-.72A69.93,69.93,0,0,1,9.44,479.56Z"/><path class="cls-4" d="M29.53,505.9a.5.5,0,0,0,0,1A.5.5,0,0,0,29.53,505.9Z"/><path class="cls-4" d="M-.45,477.9a.5.5,0,0,0,0-1A.5.5,0,0,0-.45,477.9Z"/><path class="cls-4" d="M1.7,481.73v-.34a.5.5,0,0,0-1,0v.33A.5.5,0,0,0,1.7,481.73Z"/><path class="cls-4" d="M4.36,486a.5.5,0,0,0-.86.51A79.93,79.93,0,0,0,20.61,507c.49.42,1.19-.3.69-.72A79.27,79.27,0,0,1,4.36,486Z"/><path class="cls-4" d="M24.19,508.9a.5.5,0,0,0,0,1A.5.5,0,0,0,24.19,508.9Z"/><path class="cls-4" d="M-8.83,470.65a.5.5,0,0,0-1,.27A93.54,93.54,0,0,0,3.77,499c.37.52,1.23,0,.86-.51A92.55,92.55,0,0,1-8.83,470.65Z"/><path class="cls-4" d="M6.53,501.23a.5.5,0,0,0,0,1A.5.5,0,0,0,6.53,501.23Z"/></g><path class="cls-5" d="M415.82,501.91C395.77,480,389.05,449,387.05,419.36c-2-30.05-1.14-63.41-21.05-86-22.52-25.55-61.6-26.06-95.52-23.11s-71.78,6.29-98.37-15c-35.25-28.17-34.57-87.57-72.48-112.06-16.34-10.56-37-12.25-56.33-10.1A173.38,173.38,0,0,0,0,183.89V512H426.72A94.43,94.43,0,0,1,415.82,501.91Z"/></g></g></svg>