<svg id="Layer_1" data-name="Layer 1" xmlns="http://www.w3.org/2000/svg" xmlns:xlink="http://www.w3.org/1999/xlink" viewBox="0 0 192 296"><defs><style>.cls-1,.cls-2{fill:none;}.cls-1{clip-rule:evenodd;}.cls-3{clip-path:url(#clip-path);}.cls-4{clip-path:url(#clip-path-2);}.cls-5{fill:#6831e4;}.cls-6{clip-path:url(#clip-path-3);}.cls-7{clip-path:url(#clip-path-5);}.cls-8{fill:#00d69e;}.cls-9{clip-path:url(#clip-path-7);}.cls-10{clip-path:url(#clip-path-9);}.cls-11{clip-path:url(#clip-path-11);}.cls-12{clip-path:url(#clip-path-13);}.cls-13{clip-path:url(#clip-path-15);}.cls-14{clip-path:url(#clip-path-17);}.cls-15{clip-path:url(#clip-path-19);}.cls-16{clip-path:url(#clip-path-21);}.cls-17{clip-path:url(#clip-path-23);}.cls-18{clip-path:url(#clip-path-25);}.cls-19{clip-path:url(#clip-path-27);}.cls-20{clip-path:url(#clip-path-29);}.cls-21{clip-path:url(#clip-path-31);}.cls-22{clip-path:url(#clip-path-33);}.cls-23{clip-path:url(#clip-path-35);}.cls-24{clip-path:url(#clip-path-37);}.cls-25{clip-path:url(#clip-path-39);}</style><clipPath id="clip-path" transform="translate(-160 -108)"><path class="cls-1" d="M216,364v1.37a11.92,11.92,0,0,1-3.52,8.49L208,378.34l-4.48-4.48a11.92,11.92,0,0,1-3.52-8.49V364Zm4-4H196v5.37a16,16,0,0,0,4.69,11.32L208,384l7.31-7.31A16,16,0,0,0,220,365.37Z"/></clipPath><clipPath id="clip-path-2" transform="translate(-160 -108)"><rect class="cls-2" x="-2380" y="-1248" width="3200" height="3120"/></clipPath><clipPath id="clip-path-3" transform="translate(-160 -108)"><path class="cls-1" d="M312,364v1.37a11.92,11.92,0,0,1-3.52,8.49L304,378.34l-4.48-4.48a11.92,11.92,0,0,1-3.52-8.49V364Zm4-4H292v5.37a16,16,0,0,0,4.69,11.32L304,384l7.31-7.31A16,16,0,0,0,316,365.37Z"/></clipPath><clipPath id="clip-path-5" transform="translate(-160 -108)"><path class="cls-1" d="M192,352v8a4,4,0,0,0,4,4h24a4,4,0,0,0,4-4v-4h-4v4H196v-8Z"/></clipPath><clipPath id="clip-path-7" transform="translate(-160 -108)"><path class="cls-1" d="M288,356v4a4,4,0,0,0,4,4h24a4,4,0,0,0,4-4v-8h-4v8H292v-4Z"/></clipPath><clipPath id="clip-path-9" transform="translate(-160 -108)"><path class="cls-1" d="M242.37,225.16a2,2,0,0,1,.48-2.79c4.31-3.05,21.88-4.08,26.5.15a2,2,0,1,1-2.7,3c-2.91-2.68-18.27-2.12-21.5.15A2,2,0,0,1,244,226,2,2,0,0,1,242.37,225.16Z"/></clipPath><clipPath id="clip-path-11" transform="translate(-160 -108)"><path class="cls-1" d="M256,132.05,282.59,176l.13.21.15.19A24.1,24.1,0,0,1,288,191.21V297l4,8.31V191.21a28,28,0,0,0-6-17.3l-26.87-44.38a4,4,0,0,0-6.3,0L226,172a28,28,0,0,0-6,17.3V305.38l4-9.86V189.3a24.1,24.1,0,0,1,5.13-14.83l.12-.16.11-.17L256,132.05"/></clipPath><clipPath id="clip-path-13" transform="translate(-160 -108)"><path class="cls-1" d="M256,188h0l11.94,40.58A100.19,100.19,0,0,1,272,256.8v77.43l4,1.49V256.8a103.68,103.68,0,0,0-4.23-29.34l-11.93-40.59a4,4,0,0,0-7.68,0l-11.93,40.59A103.68,103.68,0,0,0,236,256.8v78.51l4-1.22V256.8a100.19,100.19,0,0,1,4.06-28.22L256,188H256"/></clipPath><clipPath id="clip-path-15" transform="translate(-160 -108)"><path class="cls-1" d="M304,185.61l8.64,13A19.89,19.89,0,0,1,316,209.66V321.1l4,2.5V209.66a24,24,0,0,0-4-13.31l-10.31-15.46a2,2,0,0,0-3.32,0L292,196.35a24,24,0,0,0-4,13.31v90.61l4,5V209.66a19.89,19.89,0,0,1,3.36-11.09l8.64-13"/></clipPath><clipPath id="clip-path-17" transform="translate(-160 -108)"><path class="cls-1" d="M208,185.61l8.64,13A19.89,19.89,0,0,1,220,209.66v95.72l4-5.38V209.66a24,24,0,0,0-4-13.31l-10.31-15.46a2,2,0,0,0-3.32,0L196,196.35a24,24,0,0,0-4,13.31V324l4-2.68V209.66a19.89,19.89,0,0,1,3.36-11.09l8.64-13"/></clipPath><clipPath id="clip-path-19" transform="translate(-160 -108)"><path class="cls-1" d="M236,264.27v71.46l4-1.64V236l-17.8,61.63A24,24,0,0,1,215,308l-25.06,15.08a19.94,19.94,0,0,0-7,12.53L180,352l49.71,6.63.15-4-45.19-6,2.2-12.41a15.94,15.94,0,0,1,5.38-9.84L217,311.43l.26-.16.24-.2A28,28,0,0,0,226,299l0-.12,0-.12L236,264.27"/></clipPath><clipPath id="clip-path-21" transform="translate(-160 -108)"><path class="cls-1" d="M276,264.27,286,298.74l0,.12,0,.12a28,28,0,0,0,8.44,12.09l.24.2.26.16,24.78,14.91a16,16,0,0,1,5.4,10l2.18,12.28-45.45,6.05-.12,4.06L332,352l-2.91-16.39a19.94,19.94,0,0,0-7-12.53L297,308a24,24,0,0,1-7.23-10.37L272,236v98.23l4,.95V264.27"/></clipPath><clipPath id="clip-path-23" transform="translate(-160 -108)"><path class="cls-1" d="M268,248H244a8,8,0,0,1,8-8h8a8,8,0,0,1,8,8"/></clipPath><clipPath id="clip-path-25" transform="translate(-160 -108)"><path class="cls-1" d="M242,336a10,10,0,0,1,10,10v18H232V346a10,10,0,0,1,10-10m0-4a14,14,0,0,0-14,14v18a4,4,0,0,0,4,4h20a4,4,0,0,0,4-4V346a14,14,0,0,0-14-14"/></clipPath><clipPath id="clip-path-27" transform="translate(-160 -108)"><path class="cls-1" d="M270,336a10,10,0,0,1,10,10v18H260V346a10,10,0,0,1,10-10m0-4a14,14,0,0,0-14,14v18a4,4,0,0,0,4,4h20a4,4,0,0,0,4-4V346a14,14,0,0,0-14-14"/></clipPath><clipPath id="clip-path-29" transform="translate(-160 -108)"><path class="cls-1" d="M234,384h0a2,2,0,0,1-2-2v-8a2,2,0,0,1,4,0v8a2,2,0,0,1-2,2"/></clipPath><clipPath id="clip-path-31" transform="translate(-160 -108)"><path class="cls-1" d="M242,384h0a2,2,0,0,1-2-2v-8a2,2,0,0,1,4,0v8a2,2,0,0,1-2,2"/></clipPath><clipPath id="clip-path-33" transform="translate(-160 -108)"><path class="cls-1" d="M250,384h0a2,2,0,0,1-2-2v-8a2,2,0,0,1,4,0v8a2,2,0,0,1-2,2"/></clipPath><clipPath id="clip-path-35" transform="translate(-160 -108)"><path class="cls-1" d="M262,384h0a2,2,0,0,1-2-2v-8a2,2,0,0,1,4,0v8a2,2,0,0,1-2,2"/></clipPath><clipPath id="clip-path-37" transform="translate(-160 -108)"><path class="cls-1" d="M270,384h0a2,2,0,0,1-2-2v-8a2,2,0,0,1,4,0v8a2,2,0,0,1-2,2"/></clipPath><clipPath id="clip-path-39" transform="translate(-160 -108)"><path class="cls-1" d="M278,384h0a2,2,0,0,1-2-2v-8a2,2,0,0,1,4,0v8a2,2,0,0,1-2,2"/></clipPath></defs><g class="cls-3"><g class="cls-4"><rect class="cls-5" x="16" y="232" width="64" height="64"/></g></g><g class="cls-6"><g class="cls-4"><rect class="cls-5" x="112" y="232" width="64" height="64"/></g></g><g class="cls-7"><g class="cls-4"><rect class="cls-8" x="12" y="224" width="72" height="52"/></g></g><g class="cls-9"><g class="cls-4"><rect class="cls-8" x="108" y="224" width="72" height="52"/></g></g><g class="cls-10"><g class="cls-4"><rect class="cls-8" x="62" y="91.71" width="68" height="46.29"/></g></g><g class="cls-11"><g class="cls-4"><rect class="cls-5" x="40" width="112" height="217.38"/></g></g><g class="cls-12"><g class="cls-4"><rect class="cls-5" x="56" y="56" width="80" height="191.72"/></g></g><g class="cls-13"><g class="cls-4"><rect class="cls-8" x="108" y="52" width="72" height="183.6"/></g></g><g class="cls-14"><g class="cls-4"><rect class="cls-8" x="12" y="52" width="72" height="184"/></g></g><g class="cls-15"><g class="cls-4"><rect class="cls-5" y="108" width="100" height="162.63"/></g></g><g class="cls-16"><g class="cls-4"><rect class="cls-5" x="92" y="108" width="100" height="162.7"/></g></g><g class="cls-17"><g class="cls-4"><rect class="cls-5" x="64" y="112" width="64" height="48"/></g></g><g class="cls-18"><g class="cls-4"><rect class="cls-8" x="48" y="204" width="68" height="76"/></g></g><g class="cls-19"><g class="cls-4"><rect class="cls-8" x="76" y="204" width="68" height="76"/></g></g><g class="cls-20"><g class="cls-4"><rect class="cls-5" x="52" y="244" width="44" height="52"/></g></g><g class="cls-21"><g class="cls-4"><rect class="cls-5" x="60" y="244" width="44" height="52"/></g></g><g class="cls-22"><g class="cls-4"><rect class="cls-5" x="68" y="244" width="44" height="52"/></g></g><g class="cls-23"><g class="cls-4"><rect class="cls-5" x="80" y="244" width="44" height="52"/></g></g><g class="cls-24"><g class="cls-4"><rect class="cls-5" x="88" y="244" width="44" height="52"/></g></g><g class="cls-25"><g class="cls-4"><rect class="cls-5" x="96" y="244" width="44" height="52"/></g></g></svg>