<svg id="Layer_1" data-name="Layer 1" xmlns="http://www.w3.org/2000/svg" xmlns:xlink="http://www.w3.org/1999/xlink" viewBox="0 0 216 296"><defs><style>.cls-1,.cls-2{fill:none;}.cls-1{clip-rule:evenodd;}.cls-3{clip-path:url(#clip-path);}.cls-4{clip-path:url(#clip-path-2);}.cls-5{fill:#00d69e;}.cls-6{clip-path:url(#clip-path-3);}.cls-7{clip-path:url(#clip-path-5);}.cls-8{fill:#6831e4;}.cls-9{clip-path:url(#clip-path-7);}.cls-10{clip-path:url(#clip-path-9);}.cls-11{clip-path:url(#clip-path-11);}.cls-12{clip-path:url(#clip-path-13);}.cls-13{clip-path:url(#clip-path-15);}.cls-14{clip-path:url(#clip-path-17);}.cls-15{clip-path:url(#clip-path-19);}.cls-16{clip-path:url(#clip-path-21);}.cls-17{clip-path:url(#clip-path-23);}.cls-18{clip-path:url(#clip-path-25);}.cls-19{clip-path:url(#clip-path-27);}.cls-20{clip-path:url(#clip-path-29);}</style><clipPath id="clip-path" transform="translate(-148 -108)"><path class="cls-1" d="M313,195a2,2,0,0,1-1.42-3.41,22,22,0,0,0-31.11-31.12,2,2,0,1,1-2.83-2.82,26,26,0,0,1,36.78,36.77A2,2,0,0,1,313,195"/></clipPath><clipPath id="clip-path-2" transform="translate(-148 -108)"><rect class="cls-2" x="-1556" y="-1664" width="3200" height="3120"/></clipPath><clipPath id="clip-path-3" transform="translate(-148 -108)"><path class="cls-1" d="M324.29,206.29a2,2,0,0,1-1.42-3.42,38,38,0,0,0-53.74-53.74,2,2,0,0,1-2.83-2.83,42,42,0,0,1,59.4,59.4,2,2,0,0,1-1.41.59"/></clipPath><clipPath id="clip-path-5" transform="translate(-148 -108)"><path class="cls-1" d="M300,176a4,4,0,1,1-4-4,4,4,0,0,1,4,4"/></clipPath><clipPath id="clip-path-7" transform="translate(-148 -108)"><rect class="cls-2" x="283.93" y="179" width="14.14" height="4" transform="translate(-42.75 258.78) rotate(-45)"/></clipPath><clipPath id="clip-path-9" transform="translate(-148 -108)"><path class="cls-1" d="M324,246a2.07,2.07,0,0,1-1.42-.58l-96-96a2,2,0,0,1,2.84-2.84l96,96a2,2,0,0,1,0,2.84A2.07,2.07,0,0,1,324,246"/></clipPath><clipPath id="clip-path-11" transform="translate(-148 -108)"><path class="cls-1" d="M232,224a15.88,15.88,0,0,1,14.59,9.18L282.5,344h-101l35.91-110.82A15.88,15.88,0,0,1,232,224m0-4a19.75,19.75,0,0,0-18.32,11.73L176,348H288L250.32,231.73A19.75,19.75,0,0,0,232,220"/></clipPath><clipPath id="clip-path-13" transform="translate(-148 -108)"><path class="cls-1" d="M232,236a8,8,0,1,1-8,8,8,8,0,0,1,8-8m0-4a12,12,0,1,0,12,12,12,12,0,0,0-12-12"/></clipPath><clipPath id="clip-path-15" transform="translate(-148 -108)"><path class="cls-1" d="M180,380H284V364H180Zm-4,4H288V360H176Z"/></clipPath><clipPath id="clip-path-17" transform="translate(-148 -108)"><path class="cls-1" d="M172,360H292V348H172Zm-4,4H296V344H168Z"/></clipPath><clipPath id="clip-path-19" transform="translate(-148 -108)"><path class="cls-1" d="M338.27,240.6a75.85,75.85,0,0,1-82.94,12.19l1.09,4.85a79.76,79.76,0,0,0,87.58-17L231.34,128a79.69,79.69,0,0,0-11.58,98l3.58-1.82a75.84,75.84,0,0,1,8.07-90.47Z"/></clipPath><clipPath id="clip-path-21" transform="translate(-148 -108)"><rect class="cls-2" x="192" y="314" width="68" height="4" transform="translate(-122.13 143.55) rotate(-28.08)"/></clipPath><clipPath id="clip-path-23" transform="translate(-148 -108)"><rect class="cls-2" x="236" y="282" width="4" height="68" transform="translate(-152.82 377.29) rotate(-61.93)"/></clipPath><clipPath id="clip-path-25" transform="translate(-148 -108)"><rect class="cls-2" x="234" y="258.39" width="4" height="51.22" transform="translate(-133.2 290.87) rotate(-51.34)"/></clipPath><clipPath id="clip-path-27" transform="translate(-148 -108)"><rect class="cls-2" x="202.39" y="282" width="51.22" height="4" transform="translate(-127.46 204.72) rotate(-38.67)"/></clipPath><clipPath id="clip-path-29" transform="translate(-148 -108)"><path class="cls-1" d="M245.12,268l21.33,64h-68.9l21.33-64Zm2.88-4H216l-24,72h80Z"/></clipPath></defs><g class="cls-3"><g class="cls-4"><rect class="cls-5" x="109.03" y="22.01" width="84.96" height="84.96"/></g></g><g class="cls-6"><g class="cls-4"><rect class="cls-5" x="97.72" y="6.02" width="112.26" height="112.27"/></g></g><g class="cls-7"><g class="cls-4"><rect class="cls-8" x="124" y="44" width="48" height="48"/></g></g><g class="cls-9"><g class="cls-4"><rect class="cls-8" x="116.59" y="46.59" width="52.83" height="52.83"/></g></g><g class="cls-10"><g class="cls-4"><rect class="cls-5" x="58" y="18" width="140" height="140"/></g></g><g class="cls-11"><g class="cls-4"><rect class="cls-8" x="8" y="92" width="152" height="168"/></g></g><g class="cls-12"><g class="cls-4"><rect class="cls-5" x="52" y="104" width="64" height="64"/></g></g><g class="cls-13"><g class="cls-4"><rect class="cls-8" x="8" y="232" width="152" height="64"/></g></g><g class="cls-14"><g class="cls-4"><rect class="cls-5" y="216" width="168" height="60"/></g></g><g class="cls-15"><g class="cls-4"><rect class="cls-8" x="40" width="176" height="176"/></g></g><g class="cls-16"><g class="cls-4"><rect class="cls-5" x="27.06" y="170.23" width="101.88" height="75.53"/></g></g><g class="cls-17"><g class="cls-4"><rect class="cls-5" x="39.06" y="170.23" width="101.88" height="75.53"/></g></g><g class="cls-18"><g class="cls-4"><rect class="cls-5" x="46.75" y="138.44" width="82.5" height="75.12"/></g></g><g class="cls-19"><g class="cls-4"><rect class="cls-5" x="38.75" y="138.44" width="82.5" height="75.12"/></g></g><g class="cls-20"><g class="cls-4"><rect class="cls-8" x="24" y="136" width="120" height="112"/></g></g></svg>