<svg xmlns="http://www.w3.org/2000/svg" width="1884" height="608" viewBox="0 0 1884 608"><g fill="none" fill-rule="evenodd" stroke="#B1A5F5" opacity=".321"><path d="M646.386 1001.202c-19.353-2.975-9.869-82.846 36.244-151.667 26.706-39.858 47.204-78.7 85.566-115.702 33.58-32.389 69.33-51.24 104.143-68.172 27.927-13.58 66.252-26.232 106.804-39.793 18.515-6.192 36.844-11.595 53.96-18.274 61.175-23.875 124.287-12.979 184.055-2.859 85.378 14.458 163.299 33.89 223.215 36.94 31.483 1.603 55.74 4.77 71.783-.181 28.81-8.895 58.946-18.739 92.364-23.663 41.914-6.177 113.035 20.986 188.222 21.922" opacity=".27"/><path d="M629.973 993.603c-22.578-3.47-12.472-85.787 35.882-153.694 28.826-40.483 49.275-79.346 89.465-116.77 35.48-33.034 72.647-50.747 107.802-67.215 28.134-13.178 67.767-25.888 109.295-40.744 18.692-6.687 37.218-12.68 54.375-20.237 61.618-27.142 126.124-15.221 187.64-4.964 86.406 14.408 166.787 26.382 228.665 34.196 31.682 4.002 56.79 3.69 73.464-.921 30.1-8.322 60.879-16.284 93.605-18.747 41.285-3.107 113.702 32.294 186.74 33.203" opacity=".27"/><path d="M613.56 986.004c-25.804-3.967-15.004-88.699 35.519-155.721 30.982-41.097 51.353-79.986 93.367-117.834 37.386-33.679 75.959-50.261 111.46-66.264 28.338-12.774 69.283-25.531 111.786-41.694 18.868-7.175 37.587-13.768 54.79-22.2 62.06-30.42 127.96-17.458 191.226-7.067 87.43 14.36 169.636 24.845 234.111 31.45 32.2 3.299 57.844 2.61 75.148-1.66 31.39-7.744 62.977-16.776 94.845-13.831 40.525 3.746 114.366 43.602 185.257 44.486" opacity=".27"/><path d="M597.148 978.405c-29.03-4.463-17.473-91.582 35.156-157.747 33.17-41.702 53.434-80.624 97.267-118.902 39.295-34.315 79.273-49.77 115.117-65.309 28.542-12.372 70.804-25.164 114.278-42.644 19.046-7.658 37.961-14.862 55.204-24.162 62.501-33.713 129.796-19.696 194.813-9.173 88.458 14.317 172.447 23.431 239.559 28.706 32.72 2.57 58.896 1.53 76.83-2.4 32.685-7.163 64.832-11.32 96.085-8.914 40.149 3.09 115.035 54.91 183.777 55.765" opacity=".27"/><path d="M580.735 970.807c-32.256-4.96-19.884-94.434 34.795-159.775 35.386-42.289 55.52-81.255 101.167-119.97 41.207-34.947 82.584-49.283 118.775-64.354 28.744-11.97 72.325-24.784 116.768-43.594 19.224-8.137 38.331-15.955 55.619-26.125 62.937-37.014 131.633-21.93 198.4-11.276 89.481 14.276 175.268 30.356 245.006 25.96 33.232-2.094 59.95.455 78.513-3.139 33.977-6.578 66.847-8.795 97.325-3.998 39.633 6.237 115.7 66.218 182.293 67.048" opacity=".27"/><path d="M564.323 963.208c-35.481-5.455-22.246-97.251 34.43-161.802 37.634-42.86 57.612-81.883 105.07-121.035 43.124-35.578 85.892-48.796 122.432-63.401 28.945-11.57 73.85-24.396 119.26-44.546 19.405-8.61 38.7-17.053 56.033-28.085 63.367-40.33 133.468-24.162 201.985-13.382 90.508 14.24 178.248 29.574 250.456 23.215 33.663-2.964 61.002-.619 80.194-3.878 35.273-5.991 68.879-6.235 98.566.918 39.14 9.428 116.366 77.526 180.812 78.329" opacity=".27"/><path d="M547.91 955.61c-38.708-5.95-24.565-100.04 34.068-163.83 39.904-43.412 59.706-82.506 108.969-122.101 45.044-36.205 89.204-48.311 126.091-62.448 29.146-11.17 75.378-23.998 121.753-45.495 19.584-9.08 39.066-18.155 56.447-30.049 63.794-43.652 135.3-26.392 205.571-15.486 91.53 14.207 181.228 28.829 255.903 20.47 34.095-3.814 62.055-1.69 81.876-4.617 36.568-5.397 70.919-3.633 99.807 5.834 38.662 12.667 117.032 88.835 179.33 89.612" opacity=".27"/><path d="M531.496 948.01c-41.932-6.445-26.848-102.794 33.708-165.854 42.198-43.946 61.801-83.129 112.868-123.17 46.967-36.828 92.513-47.826 129.75-61.493 29.346-10.771 76.91-23.593 124.243-46.446 19.769-9.546 39.433-19.259 56.862-32.01 64.212-46.983 137.138-28.622 209.157-17.591 92.554 14.174 184.214 28.116 261.35 17.725 34.529-4.65 63.112-2.762 83.56-5.357 37.861-4.804 72.955-.991 101.049 10.75 38.18 15.956 117.694 100.143 177.846 100.892" opacity=".27"/><path d="M515.084 940.412c-45.159-6.942-29.101-105.52 33.344-167.883 44.517-44.456 63.9-83.744 116.77-124.237 48.89-37.446 95.819-47.343 133.407-60.538 29.545-10.374 78.445-23.178 126.733-47.395 19.953-10.009 39.8-20.363 57.278-33.974 64.63-50.32 138.97-30.848 212.743-19.696 93.576 14.148 187.207 27.439 266.797 14.983 34.968-5.473 64.167-3.834 85.243-6.098 39.157-4.207 74.983 1.686 102.29 15.665 37.69 19.297 118.361 111.452 176.362 112.176" opacity=".27"/><path d="M498.671 932.813c-48.383-7.437-31.327-108.218 32.98-169.91 46.855-44.947 66.004-84.356 120.672-125.304 50.817-38.062 99.128-46.861 137.066-59.585 29.744-9.975 79.985-22.755 129.223-48.345 20.142-10.468 40.161-21.47 57.693-35.934 65.036-53.664 140.806-33.073 216.33-21.8 94.6 14.12 190.208 26.79 272.245 12.236 35.409-6.283 65.22-4.902 86.927-6.837 40.452-3.607 76.993 4.395 103.528 20.581 37.175 22.677 119.027 122.762 174.88 123.457" opacity=".27"/><path d="M482.259 925.214c-51.61-7.933-33.53-110.887 32.618-171.935 49.21-45.416 68.104-84.967 124.57-126.37 52.746-38.677 102.436-46.382 140.726-58.632 29.943-9.581 81.53-22.329 131.713-49.297 20.33-10.923 40.523-22.576 58.108-37.896 65.437-57.013 142.64-35.296 219.916-23.905 95.623 14.095 193.218 26.172 277.694 9.492 35.85-7.08 66.274-5.97 88.607-7.577 41.75-3.006 78.985 7.129 104.77 25.497 36.628 26.096 119.693 134.069 173.398 134.74" opacity=".27"/><path d="M465.846 917.616c-54.835-8.43-35.714-113.53 32.256-173.963 51.58-45.862 70.209-85.574 128.47-127.438 54.676-39.285 105.743-45.9 144.383-57.677 30.143-9.187 83.08-21.894 134.205-50.246 20.52-11.379 40.883-23.686 58.523-39.858 65.833-60.366 144.473-37.52 223.503-26.01 96.643 14.072 196.237 25.58 283.14 6.746 36.3-7.868 67.329-7.034 90.29-8.316 43.044-2.403 80.953 9.88 106.01 30.413 36.05 29.541 120.36 145.377 171.917 146.02" opacity=".27"/><path d="M449.433 910.017c-58.06-8.926-37.882-116.146 31.894-175.99 53.966-46.284 72.315-86.178 132.372-128.505 56.605-39.894 109.047-45.422 148.04-56.722 30.341-8.794 84.63-21.454 136.698-51.198 20.71-11.831 41.241-24.793 58.935-41.82 66.223-63.72 146.307-39.739 227.089-28.114 97.664 14.052 199.267 25.016 288.588 4.001 36.753-8.646 68.384-8.1 91.974-9.055 44.337-1.795 82.895 12.643 107.25 35.33 35.433 33.003 121.025 156.686 170.434 157.302" opacity=".27"/><path d="M433.02 902.418c-61.285-9.422-40.04-118.74 31.53-178.018 56.367-46.684 74.423-86.78 136.273-129.57 58.54-40.499 112.354-44.946 151.698-55.77 30.54-8.399 86.188-21.006 139.19-52.146 20.902-12.282 41.598-25.905 59.35-43.782 66.609-67.08 148.138-41.956 230.675-30.22 98.687 14.033 202.308 24.474 294.035 1.256 37.21-9.418 69.438-9.162 93.656-9.794 45.632-1.19 84.814 15.412 108.492 40.246 34.78 36.478 121.69 167.994 168.95 168.583" opacity=".27"/><path d="M416.607 894.82c-64.511-9.918-42.185-121.31 31.17-180.044 58.777-47.066 76.528-87.38 140.171-130.638 60.473-41.104 115.659-44.472 155.357-54.817 30.735-8.008 87.75-20.555 141.68-53.096 21.098-12.73 41.953-27.015 59.765-45.745 66.988-70.44 149.974-44.172 234.26-32.324 99.71 14.017 205.361 23.955 299.485-1.488 37.672-10.184 70.49-10.226 95.339-10.534 46.925-.58 86.709 18.18 109.73 45.162 34.093 39.956 122.357 179.303 167.47 179.863" opacity=".27"/><path d="M400.195 887.22C332.457 876.809 355.87 763.367 431 705.15c61.201-47.422 78.638-87.977 144.074-131.705 62.405-41.702 118.963-43.997 159.015-53.861 30.932-7.618 89.314-20.101 144.171-54.047 21.294-13.18 42.307-28.128 60.177-47.709 67.366-73.799 151.807-46.388 237.849-34.428 100.73 14.002 208.425 23.456 304.932-4.233 38.138-10.941 71.547-11.662 97.02-11.272 48.213.739 88.585 20.946 110.972 50.077 33.376 43.435 123.025 190.611 165.986 191.146" opacity=".27"/><path d="M383.782 879.622c-70.961-10.909-46.455-126.383 30.442-184.098 63.633-47.759 80.75-88.574 147.975-132.772 64.342-42.303 122.267-43.525 162.674-52.908 31.13-7.228 90.883-19.639 146.66-54.997 21.492-13.624 42.661-29.237 60.595-49.669 67.732-77.164 153.639-48.602 241.433-36.532 101.752 13.987 211.504 22.973 310.38-6.98 38.608-11.694 72.597-12.35 98.702-12.011 49.511.641 90.447 23.706 112.213 54.993 32.634 46.908 123.689 201.92 164.505 202.427" opacity=".27"/><path d="M367.37 872.023c-74.188-11.404-48.584-128.89 30.08-186.125 66.071-48.075 82.858-89.166 151.875-133.837 66.277-42.9 125.571-43.056 166.331-51.954 31.325-6.84 92.456-19.177 149.15-55.95 21.694-14.067 43.015-30.348 61.011-51.629 68.097-80.528 155.47-50.815 245.02-38.639 102.773 13.974 214.592 22.512 315.825-9.723 39.084-12.444 73.651-13.412 100.387-12.751 50.804 1.253 92.293 26.46 113.453 59.909 31.869 50.372 124.356 213.228 163.023 213.71" opacity=".27"/><path d="M350.957 864.424c-77.414-11.9-50.707-131.377 29.718-188.15 68.52-48.372 84.968-89.76 155.775-134.906 68.214-43.495 128.875-42.586 169.988-51 31.524-6.453 94.036-18.707 151.644-56.898 21.89-14.513 43.365-31.46 61.424-53.594 68.46-83.893 157.303-53.026 248.607-40.741 103.792 13.961 217.692 22.064 321.273-12.468 39.563-13.19 74.702-14.473 102.07-13.492 52.095 1.87 94.124 29.206 114.694 64.825 31.082 53.83 125.018 224.536 161.538 224.99" opacity=".27"/><path d="M334.543 856.826c-80.64-12.398-52.828-133.85 29.357-190.179 70.973-48.645 87.079-90.35 159.675-135.972 70.152-44.087 132.18-42.117 173.648-50.047 31.72-6.065 95.615-18.234 154.134-57.847 22.093-14.954 43.713-32.573 61.837-55.555 68.816-87.258 159.137-55.235 252.193-42.848 104.815 13.952 220.805 21.634 326.722-15.212 40.048-13.933 75.753-15.535 103.752-14.231 53.387 2.483 95.95 31.944 115.934 69.74 30.283 57.275 125.685 235.845 160.057 236.274" opacity=".27"/><path d="M318.13 849.227c-83.863-12.893-54.95-136.303 28.993-192.206 73.435-48.903 89.193-90.938 163.577-137.04 72.089-44.677 135.485-41.648 177.306-49.09 31.916-5.681 97.2-17.762 156.625-58.798 22.297-15.398 44.06-33.686 62.254-57.519 69.17-90.623 160.967-57.442 255.777-44.952 105.836 13.945 223.93 21.215 332.171-17.957 40.535-14.67 76.805-16.593 105.432-14.97 54.679 3.1 97.766 34.675 117.177 74.657 29.471 60.711 126.352 247.153 158.574 247.554" opacity=".27"/><path d="M301.718 841.628c-87.09-13.389-57.071-138.742 28.63-194.231 75.898-49.143 91.304-91.528 167.478-138.108 74.026-45.268 138.788-41.183 180.964-48.138 32.11-5.295 98.788-17.283 159.116-59.748 22.5-15.837 44.41-34.795 62.668-59.479 69.519-93.989 162.798-59.652 259.364-47.058 106.855 13.936 227.064 20.81 337.617-20.701 41.027-15.405 77.856-17.654 107.116-15.71 55.969 3.717 99.576 37.397 118.417 79.574 28.65 64.136 127.016 258.46 157.09 258.835" opacity=".27"/><path d="M285.305 834.03c-90.315-13.885-59.194-141.167 28.268-196.26 78.367-49.364 93.416-92.112 171.377-139.173 75.967-45.858 142.092-40.719 184.624-47.184 32.308-4.912 100.38-16.804 161.606-60.698 22.706-16.279 44.756-35.908 63.083-61.442 69.867-97.355 164.63-61.857 262.95-49.162 107.877 13.93 230.211 20.416 343.064-23.447 41.523-16.139 78.909-18.712 108.8-16.45 57.259 4.335 101.378 40.113 119.655 84.49 27.822 67.551 127.685 269.77 155.611 270.117" opacity=".27"/><path d="M268.893 826.43c-93.542-14.38-61.318-143.575 27.905-198.286 80.839-49.568 95.53-92.695 175.277-140.24 77.906-46.444 145.398-40.254 188.28-46.23 32.507-4.528 101.977-16.32 164.1-61.648 22.91-16.717 45.101-37.018 63.497-63.405 70.21-100.718 166.461-64.06 266.536-51.265 108.896 13.923 233.365 20.032 348.513-26.193 42.022-16.869 79.958-19.771 110.481-17.188 58.548 4.952 103.18 42.82 120.897 89.406 26.986 70.957 128.35 281.077 154.127 281.397" opacity=".27"/><path d="M252.48 818.832c-96.766-14.876-63.444-145.974 27.542-200.314 83.315-49.755 97.642-93.279 179.179-141.306 79.845-47.03 148.7-39.794 191.938-45.275 32.703-4.15 103.575-15.837 166.589-62.6 23.119-17.157 45.449-38.13 63.913-65.366 70.553-104.083 168.293-66.266 270.124-53.371 109.915 13.917 236.53 19.662 353.96-28.938 42.524-17.598 81.01-20.827 112.163-17.927 59.836 5.573 104.976 45.522 122.137 94.322 26.146 74.353 129.015 292.387 152.645 292.68" opacity=".27"/><path d="M236.067 811.233c-99.992-15.372-65.571-148.36 27.18-202.34 85.793-49.93 99.755-93.863 183.078-142.375 81.785-47.614 152.008-39.331 195.599-44.32 32.9-3.767 105.175-15.349 169.079-63.55 23.326-17.594 45.795-39.24 64.328-67.329 70.892-107.447 170.123-68.467 273.708-55.474 110.937 13.912 239.71 19.297 359.409-31.683 43.03-18.326 82.06-21.886 113.846-18.667 61.124 6.192 106.771 48.217 123.376 99.238 25.304 77.742 129.683 303.695 151.164 303.96" opacity=".27"/><path d="M219.654 803.635c-103.218-15.868-67.705-150.732 26.818-204.367 88.27-50.088 101.868-94.446 186.979-143.44 83.725-48.2 155.31-38.873 199.255-43.37 33.097-3.386 106.782-14.86 171.57-64.5 23.538-18.031 46.14-40.35 64.743-69.29 71.23-110.811 171.931-70.469 277.295-57.58 111.93 14.122 242.896 18.942 364.856-34.427 43.54-19.051 83.112-22.945 115.528-19.406 62.416 6.813 108.566 50.908 124.618 104.155 24.458 81.123 130.347 315 149.682 315.242" opacity=".27"/><path d="M203.241 796.036C96.8 779.673 133.403 642.94 229.696 589.642c90.751-50.23 103.983-95.025 190.88-144.508 85.665-48.78 158.616-38.414 202.913-42.415 33.295-3.005 108.39-14.367 174.062-65.448 23.748-18.47 46.484-41.464 65.157-71.254 71.566-114.175 173.765-72.687 280.881-59.684 112.954 14.099 246.093 18.594 370.303-37.17 44.054-19.78 84.164-24.004 117.212-20.148 63.702 7.432 110.358 53.592 125.859 109.071 23.612 84.497 131.013 326.31 148.198 326.523" opacity=".27"/><path d="M186.829 788.437C77.16 771.578 114.852 632.99 212.92 580.017c93.233-50.362 106.094-95.604 194.78-145.576 87.607-49.362 161.923-37.956 206.572-41.46 33.491-2.63 110-13.874 176.553-66.4 23.958-18.907 46.826-42.573 65.57-73.214 71.9-117.537 175.6-74.905 284.468-61.79 113.976 14.076 249.297 18.256 375.752-39.916 44.568-20.503 85.211-25.06 118.893-20.886 64.99 8.055 112.148 56.271 127.1 113.987 22.762 87.865 131.679 337.619 146.716 337.806" opacity=".27"/><path d="M170.416 780.838c-112.894-17.354-74.119-157.79 25.73-210.447 95.717-50.479 108.208-96.183 198.681-146.643 89.546-49.942 165.227-37.498 210.23-40.506 33.688-2.25 111.611-13.38 179.043-67.349 24.17-19.344 47.172-43.685 65.985-75.178 72.232-120.899 177.432-77.125 288.054-63.893 115 14.052 252.51 17.92 381.2-42.661 45.089-21.226 86.253-26.051 120.578-21.626 66.257 8.804 113.937 58.949 128.34 118.903 21.913 91.227 132.343 348.927 145.231 349.087" opacity=".27"/><path d="M154.003 773.24c-116.12-17.852-76.264-160.123 25.368-212.475 98.2-50.582 110.412-96.596 202.582-147.71 91.576-50.359 168.532-37.043 213.887-39.551 33.888-1.875 113.227-12.883 181.534-68.3 24.383-19.78 47.513-44.795 66.4-77.139 72.56-124.262 179.267-79.344 291.64-65.998 116.024 14.029 255.731 17.593 386.647-45.407 45.61-21.948 87.304-27.118 122.26-22.365 67.545 9.406 115.728 61.621 129.58 123.818 21.066 94.585 133.01 360.236 143.751 360.37" opacity=".27"/><path d="M137.59 765.641c-119.344-18.348-78.415-162.449 25.005-214.502 100.683-50.675 112.509-97.203 206.482-148.775 93.501-50.968 171.835-36.678 217.546-38.6 34.083-1.562 114.846-12.385 184.026-69.248 24.597-20.217 47.798-45.939 66.814-79.102 72.668-127.748 181.102-81.56 295.229-68.103 117.045 14.005 258.959 17.27 392.092-48.152 46.135-22.67 88.354-28.186 123.941-23.104 68.837 10.009 117.52 64.29 130.823 128.734 20.215 97.936 133.676 371.545 142.268 371.651" opacity=".27"/><path d="M121.177 758.042C-1.393 739.2 40.608 593.276 145.82 541.514c103.167-50.756 114.604-97.813 210.384-149.843 95.423-51.577 175.145-36.205 221.204-37.644 34.284-1.173 116.467-11.888 186.517-70.2 24.81-20.653 48.154-47.039 67.228-81.064 73.047-131.077 182.935-83.78 298.815-70.207 118.067 13.98 262.195 16.953 397.541-50.897 46.661-23.39 89.403-29.254 125.625-23.844 70.123 10.609 119.307 66.956 132.062 133.65 19.367 101.286 134.34 382.853 140.784 382.934" opacity=".27"/><path d="M104.765 750.443c-125.797-19.339-82.729-167.074 24.28-218.555 105.648-50.825 116.7-98.42 214.284-150.91 97.345-52.187 178.451-35.73 224.86-36.69 34.484-.782 118.09-11.388 189.008-71.15 25.027-21.09 48.511-48.14 67.644-83.026 73.428-134.405 184.768-85.998 302.401-72.312 119.09 13.958 265.44 16.642 402.988-53.642 47.191-24.113 90.455-30.32 127.308-24.583 71.412 11.211 121.097 69.62 133.301 138.566 18.52 104.629 135.008 394.161 139.304 394.215" opacity=".27"/><path d="M88.352 742.845C-40.67 723.01 3.462 573.468 112.268 522.262c108.132-50.885 118.796-99.03 218.184-151.977 99.27-52.795 181.764-35.256 228.522-35.735 34.684-.391 119.777-10.816 191.498-72.101 25.265-21.5 48.867-49.242 68.058-84.987 73.807-137.734 186.602-88.218 305.987-74.419 120.115 13.936 268.692 16.336 408.437-56.386 47.723-24.833 91.504-31.388 128.99-25.322 72.702 11.813 122.804 72.293 134.541 143.482 17.549 107.989 135.674 405.47 137.82 405.497" opacity=".27"/><path d="M71.94 735.246c-132.249-20.33-87.06-171.673 23.554-222.608 110.613-50.937 120.891-99.639 222.084-153.044 101.194-53.405 185.07-34.783 232.178-34.783 47.109 0 188.28-18.94 262.465-160.001 74.184-141.062 188.435-90.435 309.571-76.523 121.137 13.914 271.95 16.032 413.884-59.129 141.933-75.162 249.63 11.03 266.455 122.337 16.827 111.304 136.34 416.776 136.34 416.776" opacity=".27"/></g></svg>